<svg id="Layer_1" data-name="Layer 1" xmlns="http://www.w3.org/2000/svg" viewBox="0 0 568.67 714.81"><defs><style>.cls-1{fill:#d6b500;}.cls-2{fill:#fee201;}.cls-3{fill:#edcd00;}.cls-4{fill:#eed87b;}.cls-5{fill:#d9bc28;}.cls-6{fill:#dac13e;}.cls-7{fill:#dcc332;}.cls-8{fill:#edd257;}.cls-9{fill:#e5cd5d;}.cls-10{fill:#eed120;}.cls-11{fill:#e7d370;}.cls-12{fill:#eed046;}.cls-13{fill:#ecd034;}.cls-14{fill:#e1c649;}.cls-15{fill:#fce02f;}.cls-16{fill:#fdeb5b;}.cls-17{fill:#fee21b;}.cls-18{fill:#fce951;}.cls-19{fill:#cfb100;}.cls-20{fill:#dec031;}.cls-21{fill:#f3cf07;}.cls-22{fill:#ceb82d;}.cls-23{fill:#e2cd65;}.cls-24{fill:#fde848;}.cls-25{fill:#ead03c;}.cls-26{fill:#e6cb41;}.cls-27{fill:#cab026;}.cls-28{fill:#fdf5b2;}.cls-29{fill:#fdee6c;}.cls-30{fill:#e6c000;}.cls-31{fill:#fee41f;}.cls-32{fill:#fee72a;}.cls-33{fill:#d8d7d7;}.cls-34{fill:#f6f7f6;}.cls-35{fill:#fee61d;}.cls-36{fill:#6a644f;}.cls-37{fill:#aea639;}.cls-38{fill:#a49f70;}.cls-39{fill:#fee950;}.cls-40{fill:#b78c0e;}.cls-41{fill:#756e3f;}.cls-42{fill:#706939;}.cls-43{fill:#e1a308;}.cls-44{fill:#544e2d;}.cls-45{fill:#201e15;}.cls-46{fill:#312d1e;}.cls-47{fill:#fee301;}.cls-48{fill:#5c5218;}.cls-49{fill:#594d17;}.cls-50{fill:#c9ae07;}.cls-51{fill:#675c1f;}.cls-52{fill:#feee7b;}.cls-53{fill:#fee105;}.cls-54{fill:#f3c21a;}.cls-55{fill:#e4a50b;}.cls-56{fill:#fee400;}.cls-57{fill:#e3ae06;}.cls-58{fill:#fcf390;}.cls-59{fill:#ceaa00;}.cls-60{fill:#fee40a;}.cls-61{fill:#afa738;}.cls-62{fill:#c69103;}.cls-63{fill:#faea97;}.cls-64{fill:#e7b400;}.cls-65{fill:#ebcf56;}.cls-66{fill:#f4d100;}.cls-67{fill:#e9cb2c;}.cls-68{fill:#0f1015;}.cls-69{fill:#e2b303;}.cls-70{fill:#c49d00;}.cls-71{fill:#dcb500;}.cls-72{fill:#fedf00;}.cls-73{fill:#f7cd01;}.cls-74{fill:#a3a4a2;}.cls-75{fill:#b3b3b0;}.cls-76{fill:#949087;}.cls-77{fill:#a7a28b;}.cls-78{fill:#d7d273;}.cls-79{fill:#e89600;}.cls-80{fill:#fdea56;}.cls-81{fill:#ecb43b;}.cls-82{fill:#fceb4d;}.cls-83{fill:#d8bf36;}.cls-84{fill:#d8bf35;}.cls-85{fill:#f0cd02;}.cls-86{fill:#fee434;}.cls-87{fill:#fee237;}.cls-88{fill:#140f05;}.cls-89{fill:#25211a;}.cls-90{fill:#929393;}.cls-91{fill:#916f0a;}.cls-92{fill:#bfbbb8;}.cls-93{fill:#191508;}.cls-94{fill:#ecc400;}.cls-95{fill:#dfb700;}.cls-96{fill:#f9de51;}.cls-97{fill:#e8c300;}.cls-98{fill:#ebcb3d;}.cls-99{fill:#ad7d00;}.cls-100{fill:#fee94f;}.cls-101{fill:#e2b601;}.cls-102{fill:#bd8900;}.cls-103{fill:#a57600;}.cls-104{fill:#d1ad00;}.cls-105{fill:#c49000;}.cls-106{fill:#635727;}.cls-107{fill:#514500;}.cls-108{fill:#8d5900;}.cls-109{fill:#fde52b;}.cls-110{fill:#eed56a;}.cls-111{fill:#feec67;}.cls-112{fill:#fee401;}.cls-113{fill:#fdf1a1;}.cls-114{fill:#feed68;}.cls-115{fill:#feec38;}.cls-116{fill:#7a7b77;}.cls-117{fill:#868581;}.cls-118{fill:#8f8e8b;}.cls-119{fill:#ccccc9;}.cls-120{fill:#989490;}.cls-121{fill:#7f7d78;}.cls-122{fill:#bf9400;}.cls-123{fill:#e9ce2d;}.cls-124{fill:#fdf2a0;}.cls-125{fill:#d1b100;}.cls-126{fill:#bcbab6;}</style></defs><path class="cls-1" d="M421.4,373.51c-16.79,30.79-34.61,61-54.59,89.82-2.18-.36-1.23-1.85-1.08-3,.17-1.43,1.93-3.6,1-3.95-1.93-.71-3-2.66-5.08-2.9-14.8-1.73-28.52-7.66-42.76-11.51-12.35-3.33-24.89-6.91-36.61-12.43-3.79-1.79-6.21-.85-8.41,2.44-6.58,9.81-12.77,19.87-19.64,29.49-1.05,1.47-1.78,4.56-4.77,2.18-.59-1.86.54-3.16,1.47-4.53,22.56-33.31,43.15-67.83,63.11-102.73,2.13-3.74,4.46-7.41,5.94-11.5,5.07-9.16,10.21-18.27,15-27.59a533.55,533.55,0,0,0,32.52-77.73c1-3,.87-6.75,4.38-8.52,2.94,1,2.35,3.39,1.8,5.37-.8,2.87.32,4.38,2.76,5.5,4.52,2.09,9.17,3.9,13.74,5.83,5.21,2.19,10.08,4.95,15.14,7.34,6.72,3.17,13.6,6.1,20.58,8.67,9.83,3.61,16.84,11.08,24.77,17.3,2.57,2,3.05,4.86,2.29,8.13-2.42,10.4-6.4,20.31-9.35,30.54-4.44,15.39-11.1,29.91-17.72,44.45C424.44,367.3,421.84,369.89,421.4,373.51Z" transform="translate(75.9 171.38)"/><path class="cls-2" d="M42.05-63.47a342,342,0,0,1,45.07-46.94c2.24.6,2.51,1,1.14,2.48-2.09,2.25-4.68,4-6.26,5.81,6.33-5.43,12.24-12.4,20.48-16.54,5.58-1.8,10.5-5,15.76-7.47,28.17-13.27,56.63-25.75,86.88-33.63a279.32,279.32,0,0,1,31.82-6.06,127.79,127.79,0,0,1,62.95,21.06c9.87,6,18.4,13.59,26.62,21.59,4.64,3.81,7.46,9.74,13.73,11.68,1,.3,1.29,1.45,1.22,2.51-.11,1.74,1,2.23,2.41,2.43.41-3-5.79-4.57-1.66-8.26,1.88.07,3,1.34,4,2.67a204.27,204.27,0,0,1,17.15,26.85c.76,1.44,1.71,2.93.87,4.7-1.92.94-2.7-.65-3.55-1.75-2.6-3.38-3.63-8.39-8.47-7.93,4.15,7.36,9.48,15.23,12.09,24.47-.47,1.11-1.67,1.43-2.4,2.25-1.75,1.95-3.63,3.77-5.38,5.71-1.19,1-1.33,2.94-3,3.6-3.93-3.19-5.45-8-7.94-12.09-10.27-16.79-22.86-31.27-39.66-42a157.72,157.72,0,0,0-61.08-23.35c-22.91-3.58-45.76-1.83-68.24,3.94-30.82,7.91-58.93,21.71-85.07,39.62a188.91,188.91,0,0,0-36.8,32.76c-1.21,1.4-2.45,2.72-4.37,3.12-3.68-.54-3.67-4-5.11-6.37a10.92,10.92,0,0,0-1-2.39C43.8-62,41.54-61.54,42.05-63.47Z" transform="translate(75.9 171.38)"/><path class="cls-3" d="M363.93-80.46a119.22,119.22,0,0,0-22-34c-3.62-1.86-5.49-5.46-8.09-8.3-2.2-2.4-4.28-4.92-6.64-7.19-1.23-1.47-3-2.64-2.67-5,4.06-2.88,7.16.87,10.22,2.06,9.38,3.65,18.68,7.56,27.89,11.66,7.65,3.41,15.16,7.15,23.13,9.82l2.25,1.7c5.4,5.66,11.61,10.44,17.13,16A223.54,223.54,0,0,1,438-51c11.25,18.79,22.57,37.63,30.74,58.09.25.62.54,1.22.75,1.85,1.15,3.45,3.23,7.22.07,10.3-3,2.89-7,1.79-10.45.57-8.56-3.05-17.29-5.66-25.77-8.94-3.74-1.45-7.75-1.75-11.6-2.86-9.3-2.69-17.49-8.16-27-10.33-2-.46-3.27-1.58-3.31-3.63,2.31,6.68,3.28,13.75,4,20.88.9,6.09,1.51,12.22,2.74,18.26.2,10.82,2,21.58,1.2,32.43.23,5.82.15,11.64,0,17.45,0,2.07.29,4.45-2.19,5.64a3.43,3.43,0,0,1-1.61-3.42c.35-7.48-1.2-14.87-1.22-22.32a334.23,334.23,0,0,0-6-60.78,46.8,46.8,0,0,1-.84-5.39c-.58-2.91-.73-5.9-1.45-8.79a19.9,19.9,0,0,1-.62-2.26C382.19-29.22,378.29-44,372.11-58c-2.81-6.37-6.19-12.46-8.08-19.22C363.72-78.33,363-79.35,363.93-80.46Z" transform="translate(75.9 171.38)"/><path class="cls-4" d="M492,105.48c2.45,30.19-1,60-5.26,89.83a4.27,4.27,0,0,1-.69,1.29c-3.73,2.47-5.51.82-6.65-2.91-1.75-5.74-6.51-8.86-11.42-11.22-7-3.37-14.08-7-20.62-11-10.63-6.49-21.84-12-32.19-18.91a26.6,26.6,0,0,0-8.51-4c-5.33-1.29-9.29-4.83-13.55-7.92-1.24-8.17,1.49-16,2.25-24,.23-2.43-.5-5.5,2.6-7,5.5.14,10,3.37,15.06,4.91q36.93,14.27,73.82,28.64Q450.43,129,414,115c-5.72-2.74-12.12-3.89-17.49-7.47-1.29-4.79.43-9.48.58-14.23.05-2,1.68-2.23,3.32-1.36,4.1,2.2,8.39,4,12.59,6,2.89,1.39,1.78,4.37,2.64,6.55,3.23.06,6.2,1.54,9.42,1.5a7.7,7.7,0,0,1,3,1.69c3.94,2.43,7.67,4.91,12.78,2.37,2.46-1.22,5,.86,7.32,2.1,1.08,1.12.74,3,2.18,3.92A33.64,33.64,0,0,0,461,121.39a6.4,6.4,0,0,1,3.81,2.26c1.7,2.49,4.17,3.09,6.9,3.28,2,1.16,3.69,3,6.3,2.61,1.14-1.35.76-2.74.14-4.13-.9-1.3-2.49-1.66-3.63-2.64a2.25,2.25,0,0,1-.81-1.83c2.79-1.46,5.75-2.53,8.31-4.51s4.91-4.21,6.09-7.45C488.69,107.26,489.26,105.08,492,105.48Z" transform="translate(75.9 171.38)"/><path class="cls-5" d="M249.91,463.37c4.68-1.66,6-6.39,8.3-9.91,5.37-8.14,10.72-16.3,16.28-24.31,2-2.92,4.06-2.48,6.91-1.37,9.76,3.81,19.72,7,29.75,10.05,7,2.13,14,4.84,21.18,6.41,8.55,1.86,16.32,6.06,25,7.49,1.66.27,3.15.83,4.83.12,1.43-.6,2.55-.58,2.46,1.63-.07,1.59,1,2.06,2.25,1,.81-.67,1.63-1.52,2.49-.47s-.69,1.69-.81,2.54c-.33,2.34-2.91,4.1-1.71,6.79-2.83,6.76-7.65,12.27-11.64,18.29-3.56,5.38-7.45,10.53-11.2,15.78-3.13-1.07-1.06-2.87-.36-4.07a124.18,124.18,0,0,1,7.07-10.24c.95-.7-.2-1,.34-.66.13.09.08.27-.21.42-4,2-6.65,5.78-11,7.55-5.31,2.15-10.44,1-15.65.69-2.62-.15-2.64-2.59-3.08-4.51-2.38-3.42-6.05-2.71-9.29-2.51a22.48,22.48,0,0,0-11.24,3.43,5.59,5.59,0,0,1-3.67,1.3c-2.05-1.69-2.05-1.69-2-5.54-.72,2,.22,3.73-1.41,4.34-1.84-.65-1.39-2.4-1.79-3.74-1.1-3.75-6.48-8.06-10.29-8.43a3.12,3.12,0,0,0-2.91,1.43c-1.16,1.39-2.14,3-3.73,3.95-2.51,2.36-4.66,3.21-8,.55-3.14-2.52-7.71-.86-11.57-1.86-1.72-.44-3.87,0-5.35-.91-5.05-3-7.08,0-9.67,3.75-5,7.26-10.12,14.42-15.2,21.61-1.23,1.74-2.3,3.76-4.93,3.63a2.57,2.57,0,0,1-.74-1.22c-.27-2.21,1.07-3.79,2.26-5.35,8.34-11,16-22.41,23.79-33.74C246.45,465.61,247.09,463.14,249.91,463.37Z" transform="translate(75.9 171.38)"/><path class="cls-6" d="M220,507.45c5.67-5,8.88-11.79,13.31-17.69,3.85-5.12,7.46-10.41,11.26-15.74,1.39,2.18,3,3.44,5.72,3.48,4.63.09,9.09,2.38,13.88,1.1a3.19,3.19,0,0,1,2.22.79c2.37,1.75,4.61,3.91,7.63,1.13-.15,5.28-4.33,8.4-6.76,12.42-2.69,4.43-2.91,4.26,2,5.8,2.39.75,4.82,1.28,7.27,1.8,6.53,1.39,6.4,1.33,10.44-4.22,2.14-2.93,3.18-6.62,6.2-8.93,1.41-1,.28-2.91,1.52-4.33.32,2.1.38,4.16,2.3,5.3.26,3.92-3.46,5.29-5.19,7.93-5.34,8.16-4.31,6.74,3.29,8.57,12.56,3,9.3,4.35,16.79-6.52,2.25-3.27,4.65-6.43,6.88-9.71.75-1.11,1.35-2.8,3.33-2.22.16,5.29,4.3,2.66,6.78,3.54,5.63,2,10.65,0,14.73-3.08,2.85-2.14,5.73-4,9.41-6.34-2.4,5.71-6.11,9.53-8.77,14-.57,1-1.76,1.77-.24,2.87-9,13.16-17.73,26.56-29.14,37.88-2.51-1.35.69-2.54,0-4-7.58,2.39-15.43,1.23-23.19,1.41-6.82.16-13.66-.18-20.47.13-3.15.14-7.18-1.06-8.65,3.68-.2.66-1.82.4-2.77,0l-3.79-.11c-9.29-.66-18.19-3.23-27.16-5.46-6.8-.53-12.13-3.77-16.47-8.87-1.3-1.53-2.59-3-2.21-5.24,2-3.55,2.91-.24,3.95.52C215.37,513.68,215.57,509.37,220,507.45Z" transform="translate(75.9 171.38)"/><path class="cls-7" d="M421.4,373.51c-1.88-1.2-.25-2.32.19-3.31,4.58-10.28,9.69-20.35,13.73-30.83,4.36-11.27,7.78-22.9,11.52-34.41,1.73-5.34,3.67-10.61,5-16.11.7-3,.28-5.18-2-7.06-1.66-1.36-3.38-2.66-5-4.05A85.75,85.75,0,0,0,418.21,262,162.93,162.93,0,0,1,394,250.64c-3.71-2.09-8-4.28-12.46-5.18-3.37-.68-5.91-3-9.05-4-2.16-.71-.83-2.09-.62-3.25.42-2.31,2.35-4.67-.19-6.9a2.35,2.35,0,0,1-.58-1.85,254.14,254.14,0,0,1,7.2-25.4c.16-.47.68-.71,1.13-.94,3,.15,2.29,2.37,2.12,4.06-.29,2.81,1.2,4,3.45,5.31,12.76,7.69,27.31,11.42,40.35,18.29,6.19,3.25,12.74,5.44,18.85,8.64,10.26,5.38,15.12,14.36,16.05,25.83a195.27,195.27,0,0,1,.59,23.2c-1.13,8-5,15.08-8.08,22.35A547.2,547.2,0,0,1,421.4,373.51Z" transform="translate(75.9 171.38)"/><path class="cls-8" d="M448.8,117.49c-1.41-1.35-.69-3.09-.82-4.67-3.66-3.31-7.91-4.4-12.55-2.77a5.8,5.8,0,0,1-6.94-2c-1.88-2.91-1,1.19-1.7.42l-1.47-2c-1.3-.51-1-2-1.72-2.85-1.61-1.83-3.62-3.3-6-3.09-2.6.24-.91,3.06-1.85,4.47-.46.68-.3,1.62-.7,2.36-.33-.35-1-.78-.95-1,1.58-7.43-4.43-8.56-9-10.57a18.75,18.75,0,0,1-6.73-4.2c-.51,5.73-.95,10.71-1.4,15.69a1.58,1.58,0,0,1-2.11.44c-1.62-4.71.07-9.38.13-14.07.67-1.68.38-3.73,1.91-5.09,2-5.42.58-11.06,1-16.58.16-2.13.07-4.29.1-6.44,1.69-1.5,3.4-1,5.05,0,9.35,5.59,20.22,6.36,30.33,9.5,2,.63,4.27.76,6.19,1.81a14.48,14.48,0,0,0,10.1,1.7c3.39-.65,6.46.52,9.45,2.33,5.82,3.5,11.91,1.25,17.79,0,2.12-.44,2.35-3.08,2.5-5.08a27.59,27.59,0,0,1,2.77-9.54c.85-1.84,1.87-3.84,4.12-3.91,2.64-.09,1.42,3,2.77,4.07,2.82,12.87,3,25.94,2.85,39a4.14,4.14,0,0,0-2.46,2.94c-2.32,7.79-8.37,11-15.58,12.88-6.11,5.34-11.14.89-16.26-1.92a16.91,16.91,0,0,1-3.47-2.72C451.92,114.43,450.26,115.07,448.8,117.49Z" transform="translate(75.9 171.38)"/><path class="cls-9" d="M399,110.46c-3.9,1.29-2,4.9-2.37,7.18-1.09,7.9-3,15.75-2.65,23.82.66,5-.42,10-1.29,14.82-.91,5.05.51,8.38,4.61,11a14.07,14.07,0,0,0,2.52,1.6c10.24,3.68,18.66,10.78,28.47,15.17,10.44,4.66,20.34,10.31,30.52,15.46,10.59,5.36,16.94,12.79,16.17,25.46-.27,4.47-.93,9.46,2.09,13.63A200.4,200.4,0,0,1,469,266.51c-4.48.11-4.51-3.18-4.26-6.12a96.48,96.48,0,0,0-.44-17.32c-.81-8.53-6.16-12.83-12.64-15.94-16.77-8-33.34-16.52-50.35-24.08-4.88-2.16-10.05-3.53-14.85-5.91-2.69-1.33-3.47-2.94-3.07-5.92.64-4.79,2.05-9.42,2.73-14.2a18.19,18.19,0,0,0-.17-7.39c1.09-10.89,3.66-21.55,4.71-32.45.63-6.59,1.15-13.2,2-19.78.35-2.78.47-5.64,2.11-8.09C396.42,108.52,398.18,107.67,399,110.46Z" transform="translate(75.9 171.38)"/><path class="cls-10" d="M394,14.5q-1.48-11-3-22c.89,2.72,2.57,3.45,5.33,4.24a62.48,62.48,0,0,1,13,4.76C416,5.15,423.32,6.85,430.66,8.8a149.35,149.35,0,0,1,14.23,4.65c6.35,2.41,12.69,5.54,19.67,6,4.93.32,6.41-1.55,5-6.34a69.51,69.51,0,0,0-4-10.2c-6.06-12.75-12.15-25.5-19.34-37.67C432.54-58,418-80.62,397.88-99c-2.32-2.12-4.82-4.06-7.12-6.19-1.31-1.21-3-2.3-2.71-4.5,11.68,3.87,20.67,11.88,29.48,19.86C438.28-71,453.38-48.17,465-22.79a252.73,252.73,0,0,1,15,42.11c.44,7.15-4.48,14.18-11,15.77a4.7,4.7,0,0,1-2.46.13c-14.95-4.65-30.78-6.37-45-13.4a31.79,31.79,0,0,0-9.53-2.71c-4.48-.63-8.87-1.37-12.68-4C397.56,14,395.73,14.69,394,14.5Z" transform="translate(75.9 171.38)"/><path class="cls-11" d="M477,238.58c-2.39-.56-3.85-.77-3.47-4.54a59.73,59.73,0,0,0-1-19.47c-1.6-6.78-7.9-10.14-13.61-13.66-8.1-5-16.83-8.82-25.17-13.31-5.45-2.93-11.88-5-16.95-8.52-7.48-5.17-16.8-6.83-23.46-13.29-1.25-1.21-2.62-2.06-2.4-4,.8-6.81.65-13.77,3-20.36a9.09,9.09,0,0,1,4.3.82c13.77,7.58,28.15,14.24,41.26,22.82,12,7.86,25.78,12.54,37,21.65,2.59,2.11,3.69,4.94,4.54,8,.43,1.58,1.23,4.62,3.05.57.29-.64.7-1.79,1.65-.69.36.41.2,1.27.28,1.93A250.6,250.6,0,0,1,477,238.58Z" transform="translate(75.9 171.38)"/><path class="cls-12" d="M489.1,66.45c-1.79-.38-.67-3.75-3-3.21-1.72.4-2.34,2.3-2.86,3.85-1,3.11-2.57,6-2.42,9.54.21,4.65-2.75,6.63-7.1,6.82-3.47.14-6.93-.17-10.36.86-1.83.55-3.49-.71-4.88-2A9.36,9.36,0,0,0,449,80c-1.81.54-3.72.94-5.37.16-11.54-5.44-24.36-6.44-36.27-10.63-3.23-1.13-5.21-5-9.29-4q-.51-16.48-1-33c.5-.11,1.15-.15,1.36.28,4,8.16,12.4,9.12,19.65,11,13.31,3.5,26.44,7.48,39.4,12.06,3.65,1.29,7.47,1.56,11.2,2.31,3.36.68,5.34-1.22,5.94-4.53,1-5.61,4.45-10.38,5.52-16a2.39,2.39,0,0,1,2.34-2.2c1.21.06,1.36,1.27,1.48,2.27s.14,2,1.11,2.64A101.82,101.82,0,0,1,489.1,66.45Z" transform="translate(75.9 171.38)"/><path class="cls-13" d="M485,40.39c-3.65.5-.93-3.41-3.6-4.44.11,6.91-4.81,12-5.53,18.58-.44,4-3.9,6-7.9,5.1a205.09,205.09,0,0,1-25.39-7.74c-10.22-3.67-21.11-5.57-31.56-8.81-6-1.88-11.87-3.69-14-10.57-2.1-5.82-1.69-12.06-3-18,1.09-2,2-3.3,4.63-1.33A23.6,23.6,0,0,0,412,17.63c6.69.28,12,5,18.41,6.52,10.08,2.35,19.65,6.75,30.14,7.46a6.66,6.66,0,0,1,1.86.65c6.73,2.72,13.24-.11,15.3-7.09.61-2.06,2.77-3.44,2.28-5.85A94.23,94.23,0,0,1,485,40.39Z" transform="translate(75.9 171.38)"/><path class="cls-14" d="M387.07,170.49c2.31,3.94-.6,7.67-.55,11.54,0,1.59-.83,3.18-1.21,4.79-1.64,7.08-.35,9.09,6.47,11.49a280.74,280.74,0,0,1,42.32,19.33c4.8,2.65,10.19,4.56,15.31,6.8,4.23,1.86,7.61,4.61,11.16,7.25,2.91,2.17,3.92,5.21,4.55,8.94,1.18,6.89,2,13.64.91,20.6-.21,1.34-1.55,5,2.69,3.33.08.65.15,1.3.23,1.95-3,7.2-4.23,15-8.07,21.92-2.53-1.27-2.07-3.58-1.84-5.68,1.24-11.24,1.13-22.34-4.76-32.45-4.24-7.28-11-11.21-19.17-12.82-1.12-.23-2.33,0-3.31-.79-9.39-7.74-20.95-10.95-32-15-6.42-2.35-11.39-7.23-18-9.17-2.11-.61-2.12-3.19-1.6-5.23.36-1.42,1.37-2.82-.47-3.94-1.15-1.48-.8-3.11-.46-4.72,1.7-8,3.82-16,5.38-24.06C384.94,172.93,385.39,171.32,387.07,170.49Z" transform="translate(75.9 171.38)"/><path class="cls-15" d="M-51,455.12c-11.3-5.5-17.18-14.56-18.06-27.07-1.47-20.87-2.88-41.74-4.35-62.6-2.26-32.05-2.94-64.08-2.31-96.15.34-17.1.53-34.25,2.62-51.27.2-1.63,0-3.36,1-4.82,2.55,2,2.66,5,2.59,7.75-.37,16.33,1.54,32.6,1.15,48.93-.31,13.15,1.51,26.27.86,39.44-.08,1.73.77,3.22,1.37,4.76,1.29,6.2,0,12.53,1,18.73a16.26,16.26,0,0,1,.45,4c-.6,2.19,1.26,5.88-3.49,5.56-.91-.06-.14.5,0,.75,2.46,3.47,1.2,7.38,1.26,11.11,0,1.17,0,3.09-1.83,2.93-1.38-.13-1.21-1.75-1.27-2.89s0-2-.07-3c-.07,8,2.55,15.71.83,24.28,5.61-3.09,6.28-2.69,6.48,2.76.1,2.82-.21,5.67.72,8.42.38,3.14,1.16,6.22,1.34,9.39.25,4.27-.16,8.36-3.3,11.65a3.49,3.49,0,0,0-1,3.62c.78,8,3.24,15.63,6.2,23.08.9,2.66,1.2,5.47,1.9,8.18.8,3.12,2.1,5.88,4.87,7.77C-50.2,451.67-48.6,453-51,455.12Z" transform="translate(75.9 171.38)"/><path class="cls-16" d="M102-117.47A258.09,258.09,0,0,0,79.37-98.8c1.73-4.91,5.56-6.28,7.52-9.17.4-.58,3.51-1.37.23-2.44a243,243,0,0,1,41.53-30.73c22.42-13.44,46.42-23.13,72.22-27.65,32.12-5.64,63.18-2.42,92.41,13.07-.11,1.38,1.22,1.16,1.89,1.63,2.11,1.5,5.21,1.93,6.45,4.16s-2,4.05-1.66,6.49c-13.5-8.48-27.9-14.89-43.51-18.29-6.41-1.39-12.84-2.91-19.49-2.73-6.77-.59-13.53.16-20.25.65-23.5,1.71-45.83,8.09-67.06,18.19a289.71,289.71,0,0,0-38.74,22.72A51.07,51.07,0,0,1,102-117.47Z" transform="translate(75.9 171.38)"/><path class="cls-17" d="M-67,314.43c-1.65-1.44-2-3.34-2-5.41-.3-16-.85-32.09-.92-48.13-.06-13.79-1.71-27.52-1.13-41.33.09-2.09-.68-4.23-1-6.35a179.17,179.17,0,0,1,3.87-28c3-1.68,2-4.94,2.93-7.44.55-1.47,0-4,3-3.24,2.38,2.42,1.64,5.5,1.73,8.36.09,3.1.07,6.2.1,9.29.32,3.86-3.19,5.59-4.81,8.88,1.87-.48,3.7-.63,4.24,1.71-.11,6.45-2.14,12.74-1.52,19.24.86,9,2.08,18.06,2,27.17-.47,10.55-.52,21.09-.37,31.67.16,11.33,1.32,22.81-.56,34.16-.33,2-.27,4-1.47,5.68-2.29,1.9-2.71.11-2.94-1.61s0-3.56-.12-5.34c0-.05-.39-.14-.4-.12A1.69,1.69,0,0,1-67,314.43Z" transform="translate(75.9 171.38)"/><path class="cls-18" d="M-62.95,174.46c-1.59,2.95-1.63,6.26-2,9.45-.32,2.94-1.65,2.21-3.27,1.35,2.16-11.58,4.31-23.14,7.18-34.59,5-19.83,10.28-39.53,17.07-58.83A561.27,561.27,0,0,1-1.21-.83,422.62,422.62,0,0,1,42.05-63.47c.23,1.73,3-.69,2.82,1.75-1.28,4-5,6.39-6.86,10a8.57,8.57,0,0,1-.8,1.1c-4.06,5.13-8.47,10-11.45,15.92C5.07-5.77-11.71,25.36-26,57.85c-2.61,5.91-5.11,11.92-7.49,17.95a12.64,12.64,0,0,0-.89,7.74,2.21,2.21,0,0,1-.67,1.35,8.31,8.31,0,0,0-3.2,4.29,565.91,565.91,0,0,0-22.45,79.35C-61.18,170.61-61.23,172.85-62.95,174.46Z" transform="translate(75.9 171.38)"/><path class="cls-19" d="M49.25,508.31a8.77,8.77,0,0,1-1-2.18C46.92,497.2,46.9,497.38,38,495.5c-13.92-2.94-28-5.17-41.72-9a10.32,10.32,0,0,1-4.37-2c-.22-.48-.16-1.18.24-1.23,3.33-.42,5.54-2.75,8.08-4.55,32.89,9.72,66.87,14.62,100.11,22.81a3.88,3.88,0,0,1,2,1c.8,1.29,1.76,2.6-.36,3.61l-19.8,1.3c-3.42.91-6.32.93-9.66-1.4-4.5-3.15-9.85-1.53-14.06,1.09C55.27,509.17,52.54,509.52,49.25,508.31Z" transform="translate(75.9 171.38)"/><path class="cls-20" d="M102,506.17a2.67,2.67,0,0,0,0-2.84,2.32,2.32,0,0,1,1.66-1.51,4,4,0,0,1,1.57.17,137.87,137.87,0,0,0,44.25,4.49c14.9-.85,28.66-4.78,42.39-9.75,3.5-1.26,6.61-3.11,8.65-6.38a2.34,2.34,0,0,1,2.25-.34c1.8,2.24,2.49,5.07,4,7.48a6.11,6.11,0,0,1,0,2.41c-.53,3.46-2.91,4.81-6,5.82a186.87,186.87,0,0,1-78.55,7.95c-1.22-.13-2.5-.91-3.73,0-.06.05,0,.31,0,.46a1.42,1.42,0,0,0,.28.44c3.82,3.7,8.63,5.33,13.61,6.45a67.2,67.2,0,0,1,7.56,2.13c1.14.41,2.74.71,2,2.64-7.64-1.61-15.29-2.91-22.44-6.49-5.51-2.75-10.29-6.11-13.88-11.06C104.68,506.91,103.72,506,102,506.17Z" transform="translate(75.9 171.38)"/><path class="cls-21" d="M-51,455.12c-.1-.91,1.05-2.15-.11-2.68-6.67-3-7-9.29-8.11-15.23a9.79,9.79,0,0,0-.74-1.82c3.23-5.43,4.09-5.76,9.48-2.39,2.76,1.72,5.57-.43,8.2.71,1.79.85,2.55,2.55,3.35,4.18A90.25,90.25,0,0,0-20.2,464c1.19,1.13,2.47,2.25,2.59,4.09-2.43,2.24-5.93,3.23-7.53,6.45-4.34-2.35-7.42-6.24-10.11-10C-39.28,458.86-44.68,456.5-51,455.12Z" transform="translate(75.9 171.38)"/><path class="cls-22" d="M142,525.79c-2.78-2.24-6.24-2.58-9.52-3.4-5.29-1.33-10.56-2.7-14.42-7,1.43-1.13,2.83-.42,4.21.12,21.5,8.37,44,12.19,66.71,15.51,12,1.76,23.84.12,35.74-.34a6.39,6.39,0,0,0,4.22-1.25,174,174,0,0,0,22.13,5,8.41,8.41,0,0,1,5,1.94c-15.33,6.47-30.71,7.38-47.13,3.43C186.72,534.51,164.17,530.93,142,525.79Z" transform="translate(75.9 171.38)"/><path class="cls-23" d="M259.78,536.5c.64-.49,2.75-.07,2-.91-3.25-3.66-.14-2.89,1.91-3.25,11.5-2.05,23.1-.54,34.65-.92,6.71-.22,13.51.63,20.19-3.3-.41,3.5-3.86,4.37-3.71,7.16a28.57,28.57,0,0,1-24.65,7.78A204.55,204.55,0,0,1,259.78,536.5Z" transform="translate(75.9 171.38)"/><path class="cls-24" d="M300-143.44c.73-1.76-5.6-5.32,2.05-5-2.7-3.48-7.49-3.25-8.73-7.24,10,5.43,20.73,9.31,30.47,15.21-1.9,1.77-3.58.06-5.47-.36,1.86,2.55,5,3.69,6.5,6.43l3.17,4c1.4,3.19,3,6.43-2,8C317.57-129.8,309.47-137.49,300-143.44Z" transform="translate(75.9 171.38)"/><path class="cls-25" d="M324.78-134.44c-3.81-1.39-6.26-4.49-9.49-7.47,3.45-1.54,5.65,2.07,8.46,1.4,20.84,8.35,40.85,18.5,61.16,28,.38.18.6.72.89,1.09-4.23,1.28-7.58-1.59-10.89-3-12.55-5.39-25-11-37.69-16.08-3.28-1.31-7.25-1.49-9.88-4.49C326.59-135.84,325.5-135.33,324.78-134.44Z" transform="translate(75.9 171.38)"/><path class="cls-26" d="M-25.14,474.52c-1-6.13,4.07-5,7.25-6.13,1.3-.49,2.29.24,3.12,1,4.22,3.88,9.93,5.69,13.8,10,.92,3.94-2.5,3.74-4.59,4.52-.71.26-1.85-.51-2.53.6C-14.09,481.73-20.46,479.56-25.14,474.52Z" transform="translate(75.9 171.38)"/><path class="cls-27" d="M49.25,508.31c5,.6,8.65-3.29,13.2-4.23s9-2,12.75,2.23c1.92,2.21,4.71.53,7,1.16A44.11,44.11,0,0,1,57.8,512.3C54.5,512,51.19,511.59,49.25,508.31Z" transform="translate(75.9 171.38)"/><path class="cls-28" d="M387.07,170.49q-3.69,16.41-7.37,32.84l-8,28c-6,17.88-12.23,35.65-19.78,52.94a528.38,528.38,0,0,1-31,61.15c-3.28-.88-3.47-3.61-3.78-6.28,1.48-5,4.11-9.46,6.56-14A550.08,550.08,0,0,0,383,151c2-12,3.21-24.07,4.58-36.14.19-1.64.11-3.34,1.08-4.82,2-1.87,4-2.44,6.26-.47-1.39,10.79-2.33,21.64-3.49,32.44C390.35,151.61,387.87,160.91,387.07,170.49Z" transform="translate(75.9 171.38)"/><path class="cls-29" d="M317.94,339.4l3,6c-3.89,9.58-9.59,18.19-14.77,27Q289.4,401,271.91,429.22c-6.8,11-14.25,21.53-21.39,32.29a8,8,0,0,0-.61,1.86c-6.86,9.66-13.87,19.21-20.49,29-3.13,4.62-7.28,8.52-9.56,13.71-.67,1.33-1.26,3.13-3.18,2.06a4.81,4.81,0,0,1-2.45-4.61,10.06,10.06,0,0,1,2.75-5.77c4.15-5,7.49-10.57,11.23-15.86,13.27-18.51,25.82-37.51,38-56.75,9.25-14.61,18.14-29.42,26.93-44.31,7.22-12.36,14.08-24.92,21-37.45C315,341.79,315.32,339.45,317.94,339.4Z" transform="translate(75.9 171.38)"/><path class="cls-30" d="M346.86-66.07c-4.65-5.4-9.25-10.83-13.95-16.18-2.73-3.11-5.83-5.8-9.87-7.12-24-19.63-51.83-29.36-82.5-31.9a243.4,243.4,0,0,0-31.36-.93c-16.23.75-32.06,4.12-47.51,8.85-30,9.21-57.87,23-82.8,42.24a149.81,149.81,0,0,0-23,22c-2.79.92-4.42-.66-5.82-2.73l-.18-.75c4.14-2.66,6.6-6.94,9.94-10.38C76.53-80.11,96-93.39,116.86-105.06a242,242,0,0,1,66.7-25.58,172.52,172.52,0,0,1,54.12-3.12c18.66,1.83,36,7.38,52.74,15.17,16.1,7.5,30.72,17.6,41.95,31.44C337.68-80.61,343.8-74.3,346.86-66.07Z" transform="translate(75.9 171.38)"/><path class="cls-31" d="M102-117.47a231.86,231.86,0,0,1,67-37.48c20.29-7.26,41.18-11.11,62.79-10.51,1.76.05,3.71-.61,5.19,1a266.37,266.37,0,0,0-45,9.86c-25.26,7.84-49.37,18.47-73.27,29.67C113.19-122.35,108.28-118.36,102-117.47Z" transform="translate(75.9 171.38)"/><path class="cls-32" d="M363.93-80.46c4.91,13.93,12.33,26.88,16.5,41.1,2.41,8.23,4.32,16.61,6.45,24.92-1.48,3.22-3,4.3-4.86.21a7.09,7.09,0,0,0-1.61-1.85c-2.71-4.15-2.84-9.17-4.54-13.65-.88-2.31-.89-4.95-2.62-6.94-1.66-2.68-2.36-5.72-3.32-8.67a42.17,42.17,0,0,0-3-8.86c-.76-3.74-4.08-6.8-3-11A284.38,284.38,0,0,0,349.45-93C357.28-92.6,359.5-85.27,363.93-80.46Z" transform="translate(75.9 171.38)"/><path class="cls-33" d="M371-45l3.09,8.13a3,3,0,0,1-1,2.14c-7.37,5.87-7.41,5.88-10.74-2.61-2-5.06-3.79-10.2-6.26-15A6.44,6.44,0,0,1,356-59L361-64c1.41-1.86,2-.51,2.73.65,1.59,2.68,2.22,5.78,3.69,8.51C368.48-51.51,370-48.34,371-45Z" transform="translate(75.9 171.38)"/><path class="cls-34" d="M46.15-59.61c1.06,2.45,1.66,5.15,3.73,7.06l.2.35c.47,3.53-2.65,5.1-4.15,7.53-2.87,4.65-6.71,8.58-9.76,13.1C34.93-29.74,33.54-28,30.91-29,25.17-34.11,25-36,29.68-41.6c2.65-3.16,4.71-6.75,7.41-9.87l0,0c1.45-2.37,3.6-4.17,5.12-6.51C43-59.17,44.09-60.86,46.15-59.61Z" transform="translate(75.9 171.38)"/><path class="cls-35" d="M326-122.46c3.39-2,1.5-5.3,2-8,5.56,4.55,9.81,10.25,14,16-1.17,2.84,1.11,4.26,2.65,5.76,1.29,1.27,1.68,2.43.86,3.92-.67,1.19-1.52.56-1.78-.26-.64-2-5.22,1.17-4-3.18.52-1.94.34-2.14-1.86-2a1.46,1.46,0,0,1-1.57-.73C333.53-115.49,328.81-118.14,326-122.46Z" transform="translate(75.9 171.38)"/><path class="cls-36" d="M356-59c-.63,2.08.28,3.85,1,5.71,2.65,6.61,5.47,13.17,7.65,19.94,1,3.22,1.86,2.76,3.77,1,1.7-1.55,3.58-2.92,5.37-4.37-1,5.39-5,8.12-9.39,10.5-2-10-6.34-19.07-10.88-28.08A7.56,7.56,0,0,1,356-59Z" transform="translate(75.9 171.38)"/><path class="cls-37" d="M46.15-59.61c-3,.12-3.63,2.94-5.28,4.59-1.23,1.23-1.81,3.15-3.81,3.58,1.58-4.2,4.59-7.32,7.81-10.28A2.25,2.25,0,0,1,46.15-59.61Z" transform="translate(75.9 171.38)"/><path class="cls-38" d="M367-54.52c-1.11-2.52-2.19-5-3.33-7.54-.51-1.12-.82-2.66-2.69-1.93.48-1.6,1.54-1.84,2.95-1.25l4,10.84C367.55-54,367.24-54,367-54.52Z" transform="translate(75.9 171.38)"/><path class="cls-39" d="M381-16.46c.86.07,1.79.31,1.95,1.19.65,3.65,2.38,1.68,3.92.83,0,.64.05,1.28.07,1.91.43,3.37-1.31,6.65-.34,9.71.2-1,.55-2.13,2.28-1.62,2.29,12.18,4,24.46,5.56,36.76.75,5.77.84,11.57,1.26,17.34.94,12.91.87,25.9,1.22,38.86-.22,1.68.67,3.58-1,5-2.27-2.94-1.37-6.39-1.23-9.57.16-3.54-.47-5.87-4.46-6.08-1-2-.81-4.24-.79-6.39.33-27.59-3-54.78-8.74-81.73C380.27-12.34,379.29-14.49,381-16.46Z" transform="translate(75.9 171.38)"/><path class="cls-32" d="M388.89-4.44c-1.5.42-1.79,2-2.39,3.15-2.16-4-1.63-7.69.45-11.23C388.66-10.09,387.83-7,388.89-4.44Z" transform="translate(75.9 171.38)"/><path class="cls-40" d="M414.14,114.28q24,9.15,48,18.33c8.22,3.17,16.4,6.45,24.59,9.71,1.42.57,3.3.48,4.22,3.56l-78-30.48C412.77,114.42,413.05,113.92,414.14,114.28Z" transform="translate(75.9 171.38)"/><path class="cls-41" d="M448.8,117.49c.25-1.56-.88-3.78.82-4.52,1.39-.61,3.08.61,4.14,2,1.43,1.9,4.08,1.81,5.56,4.41,1.71,3,.73-2.89,3.3-1.33.42,1.77.63,4.43,3.68,5,.78.14,2,.82,2.2-.08.85-4.1,3.7-.88,5.41-1.63l1.14,1c.49,2.25,2.41,1.75,3.92,2.05,1.74,2.35,1.58,4.65-.15,6.92-2-1.78-4.81-2.23-7-3.79-3.1.74-6.16,1.49-7.35-2.84a2.27,2.27,0,0,0-1.51-1.17C457.94,122.24,453.62,119.29,448.8,117.49Z" transform="translate(75.9 171.38)"/><path class="cls-42" d="M426.79,108.48c.07-1.73-.7-3.56.53-5.17,1.64.28,1.16,1.38,1.07,2.3-.3,2.94,2.36,2.69,3.91,3.66,2.19,1.36,2.35,0,3.14-1.74,1.13-2.55,1.46,1.83,3.93.88s7.06.3,8.61,4.41l-5.1-1.77c-.61-.2-1.6-.7-1.81-.48C435.3,116.51,431.41,110,426.79,108.48Z" transform="translate(75.9 171.38)"/><path class="cls-43" d="M414.14,114.28l-1.2,1.12-14-4.94c-1.14-1.37-2.65-.93-4.09-.87-2,0-4-.16-5.77.92-3.09,2-6.39,3.32-10.17,2.94l-.12-1c.36-3.23,3.09-3.45,5.38-4.14a32.79,32.79,0,0,1,5.3-1.19c1.8-.14,3.62-1.17,5.4.09H397Z" transform="translate(75.9 171.38)"/><path class="cls-44" d="M415.09,107.36c-.14-.64-.53-1.35-.37-1.91.64-2.32-1.84-6.28,2.45-6.65a7.81,7.81,0,0,1,8.15,7.67c-2.08,2.27-4.11.43-5.82-.41C417.35,105,416.17,105.62,415.09,107.36Z" transform="translate(75.9 171.38)"/><path class="cls-45" d="M471.85,127.53c2.95.1,5.63.7,7,3.79C476.09,130.81,473.15,130.68,471.85,127.53Z" transform="translate(75.9 171.38)"/><path class="cls-46" d="M479,124.4c-2.58,2-4.55.14-6.19-1.36-.43-.4,1.46-.43,2.27-.69C476.35,123,477.66,123.72,479,124.4Z" transform="translate(75.9 171.38)"/><path class="cls-47" d="M378.93,113.45a23.59,23.59,0,0,1,10.17-2.94c-2.06,29.74-7.36,58.93-14.54,87.82-12.26,49.33-31.79,95.73-56.23,140.16-.16.29-.26.61-.39.91q-11,19.58-22,39.14c-.55,1-1.24,1.91-1.87,2.86-1.47-.13-2.25-1.25-3.19-2.15.73,1.44,2.94,3.17-.72,3.8-2.36,0-2.9,2.05-3.77,3.53-13.15,22.55-27.16,44.57-41.47,66.41-2.37,3.61-5,7-6.92,10.95a7.53,7.53,0,0,1-.84,1.11c-3.07,3.09-4.94,7.08-7.74,10.37a1.55,1.55,0,0,0,0,2.23c.7,1.69-.5,3.27-.26,4.93q-6.54,9.35-13.08,18.67c-1.32,1.89-1.11,3.44.32,5.35,1.78,2.36,2.37-.13,3.48-.49,0,.44.09.89.14,1.34a28.6,28.6,0,0,0-5.17,10.95c-2.22,1.11-1.45-3.71-4-1.81-3.84-2-6.75-7.08-6-11.37a31.09,31.09,0,0,1,1.06-5.81l.12-1.93c.66-1-.24-2.28.45-3.31,1.34-2.45,3.23-4.51,4.75-6.84,16.34-22.93,31.58-46.54,46.43-70.47,8.58-13.83,17.1-27.76,26.33-41.23,8.28-12.08,15.05-25.15,21.9-38.09,8.49-16,17.23-31.93,24.91-48.39,7.2-15.41,13.38-31.21,19.27-47.15,2.65-7.07,4-14.64,7.93-21.22a439.2,439.2,0,0,0,17.82-81.64C376.92,130.59,377.9,122,378.93,113.45Z" transform="translate(75.9 171.38)"/><path class="cls-48" d="M322.06,486.41c-4.48,6.35-9.09,12.62-13.39,19.09-1.77,2.66-3.67,3.38-6.66,2.5-4.44-1.3-8.94-2.46-13.48-3.41-2.83-.6-2.67-1.71-1.29-3.69,3-4.34,5.94-8.77,9.72-12.54a27.52,27.52,0,0,1,22.6-5C321.34,483.76,323,483.92,322.06,486.41Z" transform="translate(75.9 171.38)"/><path class="cls-49" d="M293.14,487.39c-1.81,5.29-5.43,9.48-8.47,14-1.1,1.65-2.27,1.91-4.2,1.38-4.79-1.34-9.66-2.38-14.51-3.5-2.74-.64-3.61-1.67-1.68-4.34,3.41-4.7,6.51-9.61,9.74-14.44.13-.1.25-.22.38-.31,2.71-2,2.56-7.94,8.2-5.81C290.28,477.29,294.12,481,293.14,487.39Z" transform="translate(75.9 171.38)"/><path class="cls-50" d="M205.92,499.41c-.38,6.31.15,12.36,5,17.18,1.85,6.8,9.32,12.12,18,12.86-.47,2.73-3,2.71-4.67,2.78-13.54.59-27,1.63-40.64-.47A475.15,475.15,0,0,1,130,520.16c-4.13-1.13-8-3.14-12-4.75l-3.73-2.88.35-1c4.84.36,9.71.52,14.52,1.13,8.94,1.13,17.81.57,26.77.09,10.64-.57,21-2.51,31.39-4.49,5.48-1.05,10.74-3.29,16.14-4.86C205.62,502.76,204.39,500.29,205.92,499.41Z" transform="translate(75.9 171.38)"/><path class="cls-51" d="M291.44,509l-3.95,3.21c.34-7.45-2.35-.83-3.6-1.2-1.1-.33-2.31-.38-3.37-.81-7.09-2.87-14.94-2.73-22-5.82.68-6.31,5.72-2.05,7.45-1.75,12.1,2.16,24,5.19,36,8,1,.22,2.1.74,1.58,2-.35.85-1.59,2.22-1.84,2.1-3.17-1.51-6.78-.39-9.92-1.76C290.23,512.23,291.59,510.88,291.44,509Z" transform="translate(75.9 171.38)"/><path class="cls-52" d="M394.89,107.23l-4.69,1c-2.21-1.89-1.88-4.51-1.77-6.93.28-6.26,1.2-12.49,1.06-18.79a4.66,4.66,0,0,1,1.56-4c1.13-1.17,2.16-3.19,3.89-2.5s.86,2.95.91,4.5c.13,4.31.06,8.63.07,12.94C395.93,98.09,396.13,102.71,394.89,107.23Z" transform="translate(75.9 171.38)"/><path class="cls-53" d="M-42,434.39c-1.91.32-3.81.73-5.73.93-.93.09-2.47.1-2.77-.42-3.54-6.06-6.4-1.82-9.41.49-2.7-7.82-6-15.48-6-24,7.42-6.46,6.56-14.84,5.49-23.31-1.44-11.5-2-23.08-3.53-34.58-1-7.37-.81-14.88-1.37-22.32.21-3.29-1-6.79,1.38-9.76.91-7.15,2.34-14.15,1.6-21.57-.41-4.14-1.14-8.59.15-13.1s-.58-9.5-.63-14.26c-.07-7.7.57-15.41.91-23.11,2.1.17,2.15,1.87,2.25,3.3.87,12.58,2.16,25.13,3.2,37.7,1.25,15.05,2.28,30.11,3.58,45.16,1.15,13.22,2.22,26.47,3.46,39.68,1.71,18.12.76,36.63,7.17,54.13C-41.73,431-40.71,432.65-42,434.39Z" transform="translate(75.9 171.38)"/><path class="cls-54" d="M-63,386.42c-2.28-3.81-.07-8.13-1.32-12.06-.33,0-.78,0-.91.13-1.25,1.49-2.35,3.95-4.46,3.06-.83-.35-.91-3.56-.61-5.35.64-3.82,1.41-8.21,0-11.3-2.38-5.28.94-9.9-.29-14.79,2.72,3.07.7,6.83,2.55,10.09,0-3.46,0-6.93,0-10.39,0-.33-.12-.67-.09-1,.23-2.11-3.9-.27-2.73-2.86,1-2.16,3-.12,4.2-.53,1.48-.51.32-2.64.67-4,3,.85,1.4,3.39,1.53,5,1,12.65,2.46,25.28,2.92,38C-61.41,382.47-61.2,384.71-63,386.42Z" transform="translate(75.9 171.38)"/><path class="cls-55" d="M-63,386.42c.34-15.65-1.81-31.2-2.05-46.83a6.41,6.41,0,0,0-.93-2.18c0-1.32,0-2.65,0-4-.79-2.11-.19-2.82,2-2,.17,14.51,2.37,28.85,3.85,43.25.82,8,1.46,16.08,2.13,24.12.52,6.16-3,9.83-7.93,12.57-1.72-1.33-1-2.66.22-3.66,4.94-4,4.07-9.37,3.4-14.52C-62.61,391-62.83,388.7-63,386.42Z" transform="translate(75.9 171.38)"/><path class="cls-54" d="M-64,331.47c-1.33,0-1.89.72-2,2-2.09-6.24-.49-12.68-1-19-.17-1.44-.34-2.87-.53-4.49,2.84.12,2.35,2.14,2.57,3.81.33,2.56-.94,5.33,1,7.69Q-64,326.45-64,331.47Z" transform="translate(75.9 171.38)"/><path class="cls-56" d="M-62.95,174.46c.83-9.63,3.94-18.76,6-28.12,4.46-20.27,11.15-39.86,18-59.41.63-1.79.93-4.3,3.91-2.46,2-.63,3.13.24,3.55,2.21-2.54,9.79-6.31,19.18-9.3,28.83A524.24,524.24,0,0,0-54,168a11.55,11.55,0,0,0,.07,5.87c-.32,5.3-.41,10.62-1.06,15.9-1.22,2.44-2.81,4.3-5.94,3.67-2-2.79-.64-6-1-8.94C-62.31,181.16-61.18,177.66-62.95,174.46Z" transform="translate(75.9 171.38)"/><path class="cls-57" d="M-43.07,430.5c-3.93-8.56-5.12-17.76-5.8-27-1.46-19.63-2.69-39.27-4.92-58.85C-54.95,334.48-55.17,324.19-56,314c-1.19-14.66-2.56-29.32-3.81-44-.45-5.28-.76-10.57-1.15-15.85-.12-1.61.45-3.37-1-4.72a199.06,199.06,0,0,0-1.9-25.58c-.92-7.63,1.25-15,1.86-22.55-.54-3.14,1.36-5.24,3.22-7.28,1-1,2-1,2.53.55.23,4.32-2.17,8-3.08,12-1.89,8.5-.76,16.95,0,25.36,2.76,29.32,4.85,58.69,7.53,88,2.4,26.16,4.4,52.37,6.36,78.58.73,9.8,2.55,19.43,4.32,29.07A3.81,3.81,0,0,1-43.07,430.5Z" transform="translate(75.9 171.38)"/><path class="cls-58" d="M-56.89,193.55A27.21,27.21,0,0,0-62,201.27c-2.44-.44-3.22,2.4-5.85,3.29,1.2-5,4.43-7.81,6.87-11.11l5-2.94a1.71,1.71,0,0,1,.51,1.77A2.08,2.08,0,0,1-56.89,193.55Z" transform="translate(75.9 171.38)"/><path class="cls-59" d="M-31.94,86.37l-3.1-1.9c0-.38,0-.77.07-1.15,1.37-1.16,2.82-.56,4.27-.22a19,19,0,0,1,2.11.63c3.12,1.55,4.32,0,5.42-2.83C-17,65.07-10.95,49.21-3.28,34.06A486.69,486.69,0,0,1,25.28-15.13a67.19,67.19,0,0,1,8.9-10.73c2.67-.8,4.72,1.18,7.13,1.56,14.07,5,27.86,10.7,41.82,16C93.43-4,104-.33,114.31,3.87c1.82.73,4.43.76,4.74,3.6A530,530,0,0,0,62.57,112.19c-.74,1.83-1.77,3.56-2.66,5.33-1,.78-1.67.28-2.35-.43-1.5-2-4-2.23-6.08-3-5.34-2-5.49-2.2-4.41-7.93a9,9,0,0,1,.48-1.31c2.68-4.64,4.41-9.69,6.27-14.68.8-3.55,3.26-6.57,3.2-10.38-1.55-2.28-4.19-2.62-6.45-3.42-13.28-4.66-26.5-9.46-39.8-14.05-1.79-.63-3.62-1.84-5.68-.74-2.67,3.59-3.8,7.87-5.36,12a33.91,33.91,0,0,0-3.64,7.7c-2.07,4.2-2.74,9.06-6,12.69-5.66,1.14-10-3-15.07-3.93-1.82-.62-3.54-1.5-5.32-2.23A3.16,3.16,0,0,1-31.94,86.37Z" transform="translate(75.9 171.38)"/><path class="cls-60" d="M-30.92,84.36l-4-1c-3.06-1.69-1.38-4.3-.65-6C-24.58,50.82-12.91,24.64,1.87,0,9.18-12.15,16.33-24.45,25.08-35.7c2.77,1.51,3.68,4.46,5.33,6.84a3,3,0,0,1-.66,1.27A138,138,0,0,0,18.44-11.83,507.82,507.82,0,0,0-23.22,67.31a120.55,120.55,0,0,0-5,13A8,8,0,0,1-30.92,84.36Z" transform="translate(75.9 171.38)"/><path class="cls-61" d="M30-28.49l-4.89-7.2c3.26-5.83,6.89-11.38,12-15.78-.89,3.85-4.07,6.21-6.17,9.25-4.37,6.32-4.54,6.2.1,12.37a.94.94,0,0,1,.41.79c0,.31-.06.47-.14.47A1.13,1.13,0,0,1,30-28.49Z" transform="translate(75.9 171.38)"/><path class="cls-62" d="M-43.07,430.5c.14-.82.23-1.68,1.12-2.1,1.83.61,2.21,2.29,2.7,3.81,1.36,4.23,3.69,8,6,11.73A84,84,0,0,0-4.5,473.82c3.15,2.42,6.88,3.58,10.55,4.9,12.5,3.35,25.25,5.54,37.82,8.51,18.55,4.39,37.45,7.15,55.81,12.36,1,.66,1.74,1.47,1.39,2.81-8,.22-15.39-3.06-23.08-4.61-22.8-4.59-45.54-9.53-68.26-14.52-3.67-.8-7.14-2.54-10.7-3.85-6.28-2.69-11.57-6.91-16.92-11-10-9.9-18.38-21-24.12-34C-42.36,433.1-42.72,431.8-43.07,430.5Z" transform="translate(75.9 171.38)"/><path class="cls-63" d="M101.07,502.4l-1.36-2c-2.62-1.61-3.74-4.25-4.79-6.95a14.72,14.72,0,0,1-1-4.35c.44-3.25,1.79-3.8,3.93-1.19a19.72,19.72,0,0,1,3,5.1c.88,3.09,3,5.87,2.21,9.36-.33.33-.67.65-1,1Z" transform="translate(75.9 171.38)"/><path class="cls-64" d="M358,220.78c-1.53,7.5-4.44,14.55-7,21.71-3.36-4-8.32-4.65-12.88-6-3.43-1-4.83,1.61-5.65,4.25-1.77,5.72-3.76,11.39-5.35,17.14-5.06,18.3-11.93,36-18.07,53.89-4.55,13.3-11.77,25.21-18.49,37.45-10.89,19.82-21.89,39.58-34.28,58.51-9.93,15.17-20,30.27-30.31,45.17a209.83,209.83,0,0,0-16.15,27.51,16.63,16.63,0,0,0-1.37,6.77c-1.22,2.28-1.2,4.8-1.4,7.28-.06,1.1.11,2.26-1,3a7.88,7.88,0,0,1-3.14-7.09c-2.27-1.3-2.17-3.52-2.26-5.68-.17-4.26,1.11-8.07,3-11.92,7.35-15.26,15.22-30.25,22.93-45.32,1.84-3.6,3.47-7.57,6.88-10.26,1.48-1.18,2-3,2.51-4.8.59-1.94,1.37-3.93,3-5.06,10.32-7.06,13-18.74,17.79-29.13.76-1.67,1.62-3.25,2.53-4.83,2.35-4.12,5.06-7.86,4.89-13.23-.12-3.94,2.73-7.7,3.1-11.92.14-1.56,1.59-2.5,3.24-2.64,2.36-.21,3.71,1,4,2.18-.67-1.33.18-3.33,1.5-5.25a13.63,13.63,0,0,0,2.6-5.88c.47-3.6,2.47-4.87,5.93-4,1.71.45,2.49-.44,2.78-2,4.58-23.5,11-46.73,11.12-70.89,0-9.32-2.64-18.43-3.38-27.71.43-2.92,2.68-3.41,5.05-4,6.36-1.47,12.83-.72,19.15-.92-1.94-8.57-9.55-11.5-15.34-16.23-2.71-2.22-6.23-4.13-4.94-8.7a36.19,36.19,0,0,1,10.58,2.68q20.83,7.62,41.64,15.34C353.47,221.09,355.66,221.63,358,220.78Z" transform="translate(75.9 171.38)"/><path class="cls-65" d="M201,490.39c.27,2.53-1,4.12-3.19,5.08-3.79,1.69-7.52,3.55-11.43,4.9-9,3.14-18.29,6.9-27.64,7.16-11.94.33-24,2.22-36.07-.16-5.06-1-10-3.23-15.24-3-1.66.09-2.21-1.25-3.22-2a13.62,13.62,0,0,1-2.08-9.61c.72-2,2.48-1.91,4.14-2,11.8-.47,23.59-.95,35.4-1.08,16.95-.19,33.89-1.18,50.8-2.54C195.55,486.92,199.62,485.36,201,490.39Z" transform="translate(75.9 171.38)"/><path class="cls-66" d="M103,493.41c-.37,3.09.71,6,1.18,9l-1.11,0q-1.55-4.47-3.11-8.94a28.22,28.22,0,0,0-4.81-11.09c.46,2.87-1.5,4.81-.16,7.08.32,1.33.65,2.66,1,4-2,.41-3.24-1-3.88-2.42-5.56-12.67-12.13-25-13.43-39.15-.13-8.63-.35-17.26,2.92-25.5.46-1,1-2,2.33-2.12a2.53,2.53,0,0,1,1.18,2.06c-.2,8.72,4.38,16.1,6.68,24.11A18.4,18.4,0,0,0,96.21,458c.86,3.31-1.22,5.86-1.79,8.56,1.92-3.78,2.15-8.5,4.38-12.45,1-1.82,1.43-4.16,3.82-4.92,2.2,3.37,7.12,5,6.6,10.17,0,.06,1.22-.05,1.35.82-1.54,6.21-4.63,12-5.29,18.43-.2,1.95-.86,3.87-.93,5.86C104.89,487.57,102.19,490.22,103,493.41Z" transform="translate(75.9 171.38)"/><path class="cls-67" d="M103,493.41c-2.65-3,.83-6,0-9a85.27,85.27,0,0,1,15.72-.29c17.06,1.71,34.14.95,51.16.51,9.22-.24,18.63.28,27.79-1.79,1.71-.39,3.35-.29,4.27,1.58,0,2-.13,4.09.94,6h-2c-2-3.45-5.58-2.34-8.1-1.77-6.72,1.52-13.57,1.16-20.25,1.46-13.23.6-26.48,2.19-39.75,1.26-9.63-.68-19.13,2.06-28.75.71C103.27,491.93,103.12,492.76,103,493.41Z" transform="translate(75.9 171.38)"/><path class="cls-68" d="M64.63,510.28c-2.31-.16-4.83.23-5.19-1.83-.44-2.46,2.19-2.95,4-3.42,2.87-.73,5.87-1.51,8.48.75.37.32.61,1.45.36,1.72C70.12,509.93,67,509.8,64.63,510.28Z" transform="translate(75.9 171.38)"/><path class="cls-69" d="M289.93,382.41c.85-.1,1.86-.24,1-1.4-1-1.4-2.25-2.65-3.67-4.31,3.4.36,5.12,2.48,6.77,4.7-17.88,31.4-37.44,61.74-57.92,91.5-2.26,3.28-4.66,6.46-7,9.68-2.43-1.65,0-3.46-.15-5.18,1-5.36,5.27-8.73,8-13l-.05.05c10.28-16.3,21.34-32.1,31.37-48.57q9.32-15.33,18.7-30.63C287.71,384.14,287.76,382.09,289.93,382.41Z" transform="translate(75.9 171.38)"/><path class="cls-70" d="M54.75-49.29c17.38-21.48,39.92-36,64.29-48.26,17.13-8.58,34.78-15.79,53.46-20.17,13.5-3.17,27.21-6.61,41-6.34a325.73,325.73,0,0,1,35.63,2.2c12,1.55,23.34,4.92,34.65,8.58,13.83,4.48,26.16,12,37.6,20.88.84.65,2.62,1.22,1.62,3-28.77-5.2-57.06-2.23-84.42,7.12A229.63,229.63,0,0,0,176.16-49.5c-8.68,6.41-17.47,12.68-25.36,20.09-4,3.15-7.27,7.12-11,10.57-1.3,1.19-2.2,2.95-4.24,3.17-7.53-1.82-14.41-5.42-21.68-8C96.24-30.54,78.74-37.79,61-44.34a16.11,16.11,0,0,1-4-2.06C56-47.18,54.88-47.85,54.75-49.29Z" transform="translate(75.9 171.38)"/><path class="cls-71" d="M-25.08,88.56c5.2,1.26,9.77,4.54,15.27,4.84a2.74,2.74,0,0,1,2.21-.54C8.56,98.62,25,103.69,41.1,109.55c5.56,2.52,11.52,4.11,16.9,7l1.91.92c-4.81,15-9.45,30.07-14.51,45-1.62,4.79-1.88,9.77-3.2,14.57-.66,2.41,1.43,2.28,2.66,2.68,12.16,4,24.31,8,36.54,11.73,12.81,3.93,25.39,8.29,34.93,18.3,14.77,15.49,24.38,33.55,26.51,55.14,1.33,13.51,3.76,26.87,4.91,40.42.3,3.49-.43,8.5,3.33,11.5-2,6.82-5,13-11.52,16.73-4.08-2.64-4.67-7.06-4.4-11.07.7-10.36-2.45-20-4.55-29.88-.83-3.91-1.61-7.66-1.32-11.77.54-7.66-2.52-14.81-5.3-21.64-6.68-16.37-17.92-29.44-32.22-39.73-5.5-3.94-12.41-4.59-18.83-6.06-6.76-1.54-13.34-4-20.49-4-11.09.05-21.05,2.39-28.52,11.38-1.34,1.61-1.86,3.49-2.6,5.32-.75,2-1.51,4.06-2.11,6.15a11.81,11.81,0,0,1-.47,1.38c-.5,1.11-.77,2.38-2,3a1.64,1.64,0,0,1-1.37-.5c-2.28-3.12-2.24-6.76-1.19-10.05,3-9.32,6.06-18.61,14.15-25.25a22.47,22.47,0,0,0,6.58-9.26c1.15-3,2.71-5.36,6.45-5.08,1,.07,2.16-.11,2.34-1.34a1.84,1.84,0,0,0-1.76-2c-9.09-1.36-16.38-7.1-24.79-10.12-9.69-3.49-19.47-5.5-29.77-3.69-12,4.14-23.81,8.86-34.7,15.57a3.87,3.87,0,0,1-3.24.82c-2.3-1.79-1.9-4.21-1.13-6.39,7.49-21.1,9.71-43.52,16.38-64.84,2.24-7.15,4.73-14.23,6.59-21.49A6.42,6.42,0,0,1-25.08,88.56Z" transform="translate(75.9 171.38)"/><path class="cls-56" d="M140.06,333.51c4.22-5.19,7.6-10.93,11-16.65,6.63-9.92,13.07-20,19.93-29.74,12.41-17.68,22.67-36.8,35.88-53.91,14.93-19.34,34.44-31.41,58.69-35.52,3.9-.66,7.61.1,11.34.93,2.76,4.69,7.4,7.54,11.12,11.27,1.49,1.49,3.88,2.48,3.31,5.09-.53,2.42-2.94,2.26-4.77,2.93-4.66,1.71-9.16,3.91-14.22,4.27-1.95-.12-3.47-.83-4-3,.49,2.38-.9,3.7-2.87,3.67-2.84,0-3.26,1.5-3.34,3.66a3.24,3.24,0,0,1-1.16.74,10.28,10.28,0,0,0-9.24,4.42,11.1,11.1,0,0,1-8.89,4.56c.51,1,1.5,1.14,1.61,2-1.05,4.78-5.6,6.69-8.39,10s-5.69,6.39-8.16,9.91c-9.73,13.49-18.38,27.7-27.66,41.48-16.25,24.13-31.77,48.74-48,72.9-15.46,23.05-30.31,46.5-45.79,69.53-3.6,5.36-6.35,11.24-10.5,16.22-2.59,0-3.22-2.16-3.9-3.92-2.45-6.28-4.7-12.63-7.08-18.94-1.39-3.67-.81-7.51-1.1-11.28-1.28-3.11,1.26-5.16,2.21-7.63s2.64-4.87,3.77-7.41c1.67-3.66,4.09-6.85,6.34-10.14a22.74,22.74,0,0,0,4.21-6.86c2.51-3.77,4.9-7.63,7.54-11.32a14.44,14.44,0,0,0,3.17-4.93,32.38,32.38,0,0,1,4.23-6.16c2.89-3.83,5.18-8.06,7.92-12,5-7.17,9.08-15,14.37-22C138.35,334.92,138.75,333.76,140.06,333.51Z" transform="translate(75.9 171.38)"/><path class="cls-72" d="M391.05,78.54c.61,9.93-1.79,19.79-.85,29.73-3.82,1.33-8.39.66-11.39,4.2.13-6.42.16-12.85.41-19.28,1.51-39.25-2.35-77.84-14-115.5-.38-1.26-.53-2.59-.79-3.89,2.38-4.16,7.05-6.27,9.38-10.49l.23-.18c.6.21,1.32-.52,1.68.95,1.58,6.53,3.48,13,5.27,19.46,2.15,11.67,4.5,23.31,6.39,35,1.2,7.49,1.66,15.1,2.56,22.65C391.43,53.62,390.64,66.1,391.05,78.54Z" transform="translate(75.9 171.38)"/><path class="cls-73" d="M227,257.45c4.63-7.25,11.49-12.49,17-19,5.14-4.76,10.45-9.27,17-12h1a23.59,23.59,0,0,1,10-5c5.42-1.68,10.84-3.4,16.28-5,1-.3,2-.52,2.29-1.59a2.15,2.15,0,0,0-1.27-2.46c-4.3-2.35-6.7-6.87-10.92-9.31-1.7-1-2.88-2.35-1.42-4.44,7.56-.05,14.74,2.22,22.07,3.61,2.06,7.55,9.26,9.83,14.6,13.92,2.11,1.62,4.68,2.3,4.5,5.74-.11,2,2,2.93,3.11,4.31.59.73,1.78,1.35,1.19,2.46s-1.68.39-2.62.25c-7.27-1.11-14.49-.46-21.69.7a3,3,0,0,0-2.16,1.9c-3.89,2.13-8.49,1.9-12.48,3.69-4.71.7-8.16,5-13.25,4.62a1.65,1.65,0,0,1-.72-1.25c.36-2.35,2.58-2.78,4.08-4a141.38,141.38,0,0,1,18.87-6.15,7.47,7.47,0,0,1-3.42-3c-2.26-4.07-5.26-4.06-9.25-2.61a95,95,0,0,0-11,4.6,67.52,67.52,0,0,0-9.12,4.95,71.52,71.52,0,0,0-17.84,13.46c-1.49,1.4-2.93,2.83-4.33,4.31-3.12,2.71-5.5,6.18-8.93,8.56C227.65,258.7,227.31,258.09,227,257.45Z" transform="translate(75.9 171.38)"/><path class="cls-74" d="M114-24.69l21.91,8.28c-1.57,4.52-5.84,6.06-9.31,8.5-1.37.37-2.31,2-4.09,1.23-2.21-.93-3.36.59-4.7,2.59,1.5.54,3-.22,4.24.25,2.3,1.5,1.6,3.33.46,5.1a13.68,13.68,0,0,0-2.44,5.31l-1,.9C108.6,2.4,97.47-1,86.78-5.46c-1.36-.57-2.65-1.29-4-1.94,0-5.19,4.85-9.35,9.74-7.25,5.11,2.21,10.86,1.19,15.64,4.12a1.57,1.57,0,0,0,2.45-.74c2.55-4.81,3.36-1.4,4.42.89a29.26,29.26,0,0,0,6-2.85C115.82-15.28,113.56-19.16,114-24.69Z" transform="translate(75.9 171.38)"/><path class="cls-75" d="M120.07,6.57c-1.46-1.86-.26-3.21.72-4.79s3-2.92,1.26-5.15c.48-2.41,2.83-3.32,4.09-5.1l9.77-7.94c4.05-2.8,7-6.76,10.64-10,1.28-1.15,2.16-2.95,4.25-3-4.34,4.72-8.57,9.53-13,14.13C131.22-8.51,126.43-.34,120.07,6.57Z" transform="translate(75.9 171.38)"/><path class="cls-76" d="M54.75-49.29,57-47.43A194.76,194.76,0,0,0,42.36-29.15a6.75,6.75,0,0,0-1.2,5.86c-2.67.2-4.54-2.41-7.26-2.06-2,0-3-.93-3-3L31-29.85c1.53.85,2.36,0,3.25-1.17C39.5-38.11,44.8-45.14,50.08-52.2,51.92-51.68,52.65-49.38,54.75-49.29Z" transform="translate(75.9 171.38)"/><path class="cls-77" d="M367-54.52c.31,0,.62.07.92.12,1.49,3,3.13,5.91,3.06,9.4A32.65,32.65,0,0,1,367-54.52Z" transform="translate(75.9 171.38)"/><path class="cls-78" d="M418.24,100.74c1.68,1.19,4.46,1,5.42,3.52.28.73-.66,1.3-1.22,1.09-2.09-.79-4.69-.87-5.81-3.22C416.26,101.35,417,100.65,418.24,100.74Z" transform="translate(75.9 171.38)"/><path class="cls-79" d="M208,487.35c-1.71-2.47-.61-4.65.48-7,7.36-15.93,17.89-29.88,27.48-44.42,12.69-19.25,25.75-38.23,37.18-58.33,6.56-11.53,12.07-23.69,19.35-34.71,7.14-10.81,12.09-22.45,16.35-34.44,5.72-16.05,11.94-31.95,16.24-48.5,1.75-6.72,3.94-13.34,6.2-19.92,1.87-5.42,3.64-6.14,9-4.36,2.53.84,5,1.93,7.55,2.56,2.41.58,3.33,1.93,3.19,4.26a375.07,375.07,0,0,1-17.12,43A850.44,850.44,0,0,1,286,374.58c-8.74,14.06-17.79,28-26.73,42-9.13,14.25-17.92,28.74-27.34,42.83-6.54,9.79-12.48,20-20,29.07A3.36,3.36,0,0,1,208,487.35Z" transform="translate(75.9 171.38)"/><path class="cls-80" d="M289.93,382.41c-13.63,21.91-26.73,44.16-41.2,65.54-3.79,5.59-7.07,11.54-11.76,16.49,1.43-6.21,6-10.61,9.31-15.7,10.09-15.58,20.09-31.21,29.63-47.14q5.59-9.36,11.27-18.67C287.89,381.76,288.44,379.52,289.93,382.41Z" transform="translate(75.9 171.38)"/><path class="cls-81" d="M208,487.35a6.64,6.64,0,0,1,3.92,1.09l-4.88,6C206,491.91,204.24,489.26,208,487.35Z" transform="translate(75.9 171.38)"/><path class="cls-82" d="M237,464.39c-1.55,5-6.1,8.21-8,13-.63,0-2.27.7-1.65-.28C230.21,472.63,232.22,467.42,237,464.39Z" transform="translate(75.9 171.38)"/><path class="cls-83" d="M320,485.87c-4.5,6.56-8.9,13-13.31,19.38a2.71,2.71,0,0,1-3.07,1.12c-4.37-1-8.73-2.06-13.1-3.08-1.5-.34-1.74-1-1.16-2.49C294,488.84,306.77,482.44,320,485.87Z" transform="translate(75.9 171.38)"/><path class="cls-84" d="M264.91,497.18c4.83-7,9.3-13.54,13.8-20.05a2.7,2.7,0,0,1,2.42-1.44,10.3,10.3,0,0,1,9.09,13.94c-1.51,3.74-4.3,6.67-6.39,10.05-.79,1.29-1.78,1.6-3.35,1.19C275.54,499.57,270.54,498.5,264.91,497.18Z" transform="translate(75.9 171.38)"/><path class="cls-85" d="M-25.08,88.56c-3.7,6.91-5.44,14.55-7.57,22-3.19,11.09-6.85,22.12-8.6,33.57-1.9,12.44-5.6,24.36-9.46,36.27-.53,1.62-.87,3.62.77,5.11-.72,3.5-2.26,6.28-6.15,7,0-.65.07-1.3.1-2,0-5.72,0-11.43,1-17.08.44-7.45,2.74-14.52,4.38-21.73A485.8,485.8,0,0,1-32.38,90.88,10.7,10.7,0,0,1-30,86.56Z" transform="translate(75.9 171.38)"/><path class="cls-86" d="M-30,86.56c-2.92,8.91-5.9,17.81-8.76,26.75-6,18.85-10.72,38.06-15.2,57.33a26.35,26.35,0,0,1-1,2.79c-2.32-4.49.29-8.67,1.13-12.81A502.84,502.84,0,0,1-32.6,87.1c.11-.29.44-.49.66-.73Z" transform="translate(75.9 171.38)"/><path class="cls-56" d="M-56.09,192.46l6.15-7c11.26-8,23.94-12.88,37-17,8.27-1.13,12.1,3.21,9.75,11a9.62,9.62,0,0,1-1.16,2.76c-9,13.24-8.2,28.1-6.75,42.9C-9,247-7.43,268.88-5.43,290.73Q-3.21,315-1.08,339.37c1.4,16.18,3.44,32.38,1.57,48.69a19.53,19.53,0,0,1-1.31,5.83C-5.34,404-7.39,414.78-9.46,425.55c-.74,3.84-2.73,6.25-6.48,7.4-4.4,1.35-8.09,4.64-13,4.62-1.62,0-2.36,1.56-2.72,3.16s.16,3.54-2.3,3.74c-4.14-4.62-5.74-10.49-7.94-16.07-5.32-19.14-5.21-38.93-7.1-58.48-1.62-16.64-2.55-33.32-4-50-1.74-19.43-3.79-38.83-5-58.31-.85-13.69-2.71-27.31-3.73-41a48.81,48.81,0,0,1,3.65-22.85,37.91,37.91,0,0,0,1.28-4.25Z" transform="translate(75.9 171.38)"/><path class="cls-75" d="M41.16-23.29c-2.52-1.63-2.88-2.95-.55-5.56,3.94-4.39,7.11-9.46,10.75-14.13,1.47-1.9,2.77-4.21,5.62-4.45l57,22.74c.43.69,1.28,1.41,1.23,2.07-.4,5.65,4.08,7.12,7.76,9.29a23.57,23.57,0,0,0-9.11,4.79c-1.83-1,1.29-3.28-1.47-4.34-.49,4.75-1.78,4.14-6.42,3.07C99.6-11.28,93-15.93,85.76-12.54c-1.6.75-2.8.95-1.46,3,1.1,1.67-.36,1.88-1.49,2.17Z" transform="translate(75.9 171.38)"/><path class="cls-85" d="M30.93-28.34l3,3c.7,3.51-2.92,4.22-4.35,6.3A492.38,492.38,0,0,0,1.6,27.78C-8.19,46.07-15.71,65.23-23,84.53c-1.53,4-3.94.48-6,.08,0-4.29,2-8,3.6-11.77,10.89-26,22.91-51.37,38-75.25,5.58-8.82,11.08-17.65,17.28-26l.08,0A3.85,3.85,0,0,1,30.93-28.34Z" transform="translate(75.9 171.38)"/><path class="cls-87" d="M29.89-28.46c-1,5.11-5.06,8.41-7.71,12.52C1.93,15.44-15.17,48.39-28.09,83.46A4.48,4.48,0,0,1-29,84.61l-1.91-.25C-25,65.93-16.23,48.77-7.73,31.44,2.05,11.5,13.71-7.23,26.34-25.41,27.26-26.74,27.78-28.53,29.89-28.46Z" transform="translate(75.9 171.38)"/><path class="cls-88" d="M4.05,60.5c1.18-2.24,2.83-1,4.27-.49q23.63,8.35,47.2,16.79c1.58.56,3.78.81,3.43,3.44-.77.23-2.06.12-2.18.86-.62,4-4.1,7.16-3.39,11.53a33,33,0,0,1-2.69,5.47c-1.9,1.35-3.29,2.91-2.23,5.47a2,2,0,0,1-.49,1.86h0a2.62,2.62,0,0,1-2.41,1.75c-4-1.26-2.54-4.19-1.7-6.52,2.07-5.78,4.88-11.27,7-17,.37-1.5,1-3.25-1.69-2.68-1.92.41-3.94.48-5-1.12-2.72-3.92-7-4.8-11-6.16-3.45-1.16-6.91-2.3-10.27-3.72-1.06-.46-2.43-1.41-3.24-1-5.49,2.42-9-1.55-13.15-3.7a3.07,3.07,0,0,1-1-.9A10.57,10.57,0,0,1,4.05,60.5Z" transform="translate(75.9 171.38)"/><path class="cls-89" d="M6.07,63.6a.52.52,0,0,1-.08.52c1.32,1.5.7,3.12.09,4.58A62.35,62.35,0,0,1,.74,79.58a7.55,7.55,0,0,1-4.26,1.51,1.88,1.88,0,0,1-1.32-.63c.9-2.57,1.44-5.3,3.52-7.3C1,71.72,1,69,2.19,67,3.05,65.42,3.28,63,6.07,63.6Z" transform="translate(75.9 171.38)"/><path class="cls-90" d="M53,92.43c-1.85-.07-2.4-.65-1.22-2.41a16,16,0,0,0,3.14-8.23c.13-4.12,1.75-3.48,4-1.55q-2,5-4,10C54.55,91.15,54.11,92.09,53,92.43Z" transform="translate(75.9 171.38)"/><path class="cls-91" d="M45.82,106.79,48,105.43c-1.85,5.66,1.48,7.24,6.11,8.39,1.24.3,4.45-.59,3.92,2.78a136,136,0,0,1-17.06-6,2.33,2.33,0,0,1,.92-.87C43.53,109.21,44.58,107.88,45.82,106.79Z" transform="translate(75.9 171.38)"/><path class="cls-92" d="M6.07,63.6c-2.75,1.51-2.73,4.66-4.13,7-.75,1.25-.74,3.53-3.26,2.58A49.43,49.43,0,0,1,4.05,60.5C5.64,60.93,5.86,62.26,6.07,63.6Z" transform="translate(75.9 171.38)"/><path class="cls-93" d="M-4.84,80.46l1.1.06c1.08,1.83.47,4,1.37,5.91A4.68,4.68,0,0,1-3.5,89.55c-.75.74-1.8,1-2.59,1.72s-1,1.72-1.85,2.29l-1.87-.16C-8.74,88.86-6.65,84.72-4.84,80.46Z" transform="translate(75.9 171.38)"/><path class="cls-91" d="M53,92.43l2-2.22c-2.26,5.11-3,10.94-7,15.22,0-.61-.07-1.23-.1-1.84-.57-2.5,1-4.22,2.17-6.12Q51.53,95,53,92.43Z" transform="translate(75.9 171.38)"/><path class="cls-94" d="M-34,444.47c1.84-5.22,2.72-5.72,9.7-9,3.42-1.63,6.55-3.79,10.35-4.65,2-.45,2.82-2.31,2.94-4.24.29-4.62,2.39-8.85,2.48-13.59.11-5.72,3.45-10.64,5.21-16A61.94,61.94,0,0,0-.52,375.65c-.22-9.39-.65-18.74-1.49-28.07-1.22-13.43-1.74-26.91-3.7-40.29-.78-5.37-.83-10.89-1.15-16.34-.87-15-3.31-29.92-3.83-44.94-.33-9.79-2.32-19.38-2.4-29.19-.06-7.09-.32-14.1,1-21.1.87-4.49,3.76-8,5.39-12.12a24.54,24.54,0,0,1,1.21-2.18c4-7.75,1.32-12.32-7.51-13,7.36-2.4,14.8-1.24,21.89.63a97.71,97.71,0,0,1,26.8,11.53c1.89,1.18,3.86.69,5.8.84,2.45.18,4.43,1.2,4.23,3.83s-1.91,3.86-4.58,2.71c-3.11-1.33-4.15,1.31-4.68,3-1.67,5.37-5.27,9.13-9.24,12.76-4.76,4.34-7.14,10.06-9.39,16-2.11,5.54-4.13,10.84-1.8,16.74,2.49,4.27,1.11,9,1.48,13.45-.76,9.7,1.14,19.24,2,28.82,1.92,21.05,4.36,42.05,6.24,63.1,1.74,19.48,7.06,37.56,17.69,54,.85,2.48.87,5.41,3.58,6.94a4.53,4.53,0,0,1,.77,1.23c.73,6.77-.07,7.63-6.76,7.24-3.48-.21-7,.85-9.49-3.51-1.13-2-3.81-.38-4.61,2.2-2.12,6.81-2.14,6.8-9.25,7.42a7,7,0,0,0-6.12,4.52C9.32,427.7,7.23,433.66,8.9,440c.89,3.38,1.32,6.85,2.35,10.19,1.14,3.67,0,6.71-3.28,8.53C1.53,462.28-4.67,465.9-5,474.45-17.76,467.47-27.16,457.2-34,444.47Z" transform="translate(75.9 171.38)"/><path class="cls-19" d="M80,452.4a18.67,18.67,0,0,0,1.33,8.27c3.27,9.54,6.74,19,10.93,28.18.84,1.82,1.76,3.59,3.68,4.54l3.77,7c-6.63-1.35-13.28-2.65-19.9-4.06Q44.89,488.91,10,481.39c-1.76-.38-3.6-.64-5-2a4.07,4.07,0,0,1,2.77-2c6.68-.78,11.7-5.4,17.81-7.46,5.61-1.9,6.16-4.15,2.43-8.66a39.91,39.91,0,0,0-4.45-4c-4.55-4.1-4.15-8.37,1-11.51a8.39,8.39,0,0,0,2-1.48c1.42-1.58.91-5.26,3.31-5.13,4.09.23,8.33-.54,12.33.92,10.2,3.72,20.94,5,31.53,6.81C77.43,447.54,79.56,448.68,80,452.4Z" transform="translate(75.9 171.38)"/><path class="cls-95" d="M80,452.4c-1.26-3.08-3.52-3.78-6.83-4.22-4.93-.64-10-2.29-14.77-2.64-8-.59-15.08-5.93-23.37-4.36a2.85,2.85,0,0,1-1.91-.3c-3.34-2.12-4.17-.65-4.35,2.65A4,4,0,0,1,25.6,447c-2,.5-4.38.74-4.16,3.31.21,2.37.62,5.13,3.26,6.32,2.41,1.1,3.77,3.06,5.28,5.07,3.08,4.12,1.89,8.47-3.3,9.42a14.79,14.79,0,0,0-7.11,3.14c-4.28,3.66-9.85,3.05-14.56,5.12-3.6-1.1-7.44-1.71-10-4.95-2.22-9.25,4.49-12.59,10.83-15.87,4.32-2.24,5-4.67,3.89-9.55A133.72,133.72,0,0,1,7,434.58c-.57-5.26,2.19-8.71,3.38-12.84s4.68-6.57,10.1-5.37c3.83.85,5.54-3,5.24-6.06-.42-4.28,2.55-4.15,4.88-4.76,2.51-.66,3.31.39,3.21,3.24-.08,2.14,2.63,2,4,1.13,2.86-1.95,8.41,4.55,9.26-3a31.41,31.41,0,0,0,0-3.5c4.07.71,5.39,4.51,7.76,7.07,4.8,5.18,9.82,9.94,16.92,11.78,3.69,1.44,7.88,1.47,11.19,4C79.72,434.72,80,443.57,80,452.4Z" transform="translate(75.9 171.38)"/><path class="cls-96" d="M95,489.41c-1.91-2.89-.68-6-1-9.94,4.15,4.38,6.75,8.43,5.94,13.95-1-1.74-2.06-3.48-3.11-5.22-.37-.61-.74-1.65-1.62-.65C94.87,487.94,95,488.78,95,489.41Z" transform="translate(75.9 171.38)"/><path class="cls-97" d="M202,484.43c-3.05-1.6-5.73.92-8.57.83-15.83-.55-31.63,3.18-47.46.32-3.44-.63-6.44,1.38-10.09,1.27-8.57-.25-17.13-2.76-25.7-.89-2.81.62-4.67-1.43-7.12-1.54a78,78,0,0,1,7-25.08c-.42-2.64,1.48-4.3,2.72-6.17,19.63-29.68,39.07-59.5,58.9-89.05,1.57-2.35,3-4.81,4.36-7.28,18.77-28.14,37.64-56.21,56-84.61,4.64-6.41,10-12.19,15.22-18.16a20.58,20.58,0,0,1,2.23-1.71c2.19-1,3.36-4.29,6.6-3.07.3,3.5-2.84,4.6-4.63,6.64-2.91,2.18-4.91,5.17-7,8.06-4.73,5.33-4.48,5.55-1.77,12.21,4,9.76,11.26,16.95,18,24.62,7.13,9.18,14.88,17.88,21.62,27.37,1.07,1.5,3.12,2.81,1.82,5.2-2.35-.1-4.4.08-4.14,3.34a5.28,5.28,0,0,1-.62,2.86c-1.94,3.5-4.94,6.58-3.68,11.19.17.61-.89,1.55-1.36,2.29-1.7-.81-1.1-1.8-.77-2.67.72-1.92.3-3.38-1.79-3.81s-3.77.6-3.64,2.88a13.27,13.27,0,0,1-2.48,8.86,2.54,2.54,0,0,0-.52,1.87c2.16,6.67-3.72,10.29-5.6,15.41-1.81,4.95-4.89,9.32-6.28,14.34a20.32,20.32,0,0,1-2.69,5.61c-3.12,5-5.69,10.25-11.24,13.23-1.54.83-2.09,2.91-2.3,4.8A6.69,6.69,0,0,1,234.8,418c-4.18,3.61-6.1,8.52-8.43,13.3-1.8,3.68-4.05,7.13-5.86,10.86-5.48,11.28-11.38,22.37-17.06,33.55A16.7,16.7,0,0,0,202,484.43Z" transform="translate(75.9 171.38)"/><path class="cls-98" d="M244,263.44c1.53-3.36,3.39-6.43,6.94-8.05,3.64.16,5,3,6.32,5.64,4.63,9,9.31,18,14.8,26.53a30.77,30.77,0,0,0,2.15,3.35c3.35,4,5.57,3.5,8-1.05,2.5-4.77,2.94-9.91,3.22-15,.61-11.1.86-22.25-2-33.19a15.54,15.54,0,0,1-.52-7.39,25,25,0,0,1,13-2.8c2.88,16.25,5.18,32.28,2.37,49.09-3.1,18.53-7.17,36.81-10.51,55.25-2.25.19-2.23-2.19-3.72-2.46-4.29-7.89-10.56-14.3-16-21.35l-8.16-10.61c1.73-1.21,2.85,0,3.8,1.12,1.82,2.17,4.35,3.61,5.7,5.51-2.27-4.45-4.08-9.68-6.89-14.46-5.37-9.16-8.9-19.25-14.14-28.51C247,262.57,245.39,264,244,263.44Z" transform="translate(75.9 171.38)"/><path class="cls-99" d="M82.89,426.25c-4.18,0-7.9-1.93-11.85-2.88-1.45-1.77-.45-3.16.83-4.3,2.11-1.88,2.15-3.88,1-6.26a14.82,14.82,0,0,1-.94-12c1.11-3.21-.9-6.45-1.82-9.62-2.21-7.57-3.65-15.26-3-23.21,0-.49.29-1.1.06-1.47-4.15-6.7-2.27-15.43-7.37-21.81-.92-1.16-2-2.67-1.6-4.07,1.45-4.42-.75-8.35-1.07-12.47-.49-6.31-3.49-11.76-4.57-17.73-2-11.09-8.92-20.05-12.29-30.44-2.12-6.57-6.44-10.32-12.15-12.89-3.55-1.59-6.27-4.33-9.7-6-1.53-.75-1.79-2.19-1.87-3.79-.11-2.27.56-4.62-.48-6.83q0-7,0-13.93l.92-.14c1.37,1.08,1.64,3.35,4,3.43,8.27.28,13.6,5.73,18.69,11.2a47.71,47.71,0,0,1,8.88,13.2A21.21,21.21,0,0,0,52,269.07c3.13,3.71,5.92,7.62,7.23,12.4a19.86,19.86,0,0,0,4.12,7.35c3,3.61,6.18,7,5.61,12.28-.11,1,.74,1.81,1.42,2.55,5.13,5.54,7.63,12.28,9.17,19.53a53.29,53.29,0,0,0,5,14.57c2.41,4.37,1.46,9.11,1.68,13.67.37,7.65.84,15.27,2.47,22.74.82,3.78.59,7.61,1.23,11.4.69,4.08.8,8.23,2.19,12.22s-.13,7.79-1.07,11.6c-1.91,5.16-5.57,9.5-7,14.86Z" transform="translate(75.9 171.38)"/><path class="cls-100" d="M176.92,357.37c-8.67,14.74-18.53,28.7-27.91,43-12.94,19.71-26,39.33-39,59-2.14-3.45-6.4-5.41-7-9.94.51-5.44,4.53-9.06,7.24-13.21,28.23-43.22,56.71-86.27,85-129.46,6.09-9.3,12.14-18.64,18.36-27.85.73-1.09,1.33-2.33,2.61-3a12.51,12.51,0,0,0,1.63-1.13c1.83-1.62,3-5.05,6.3-3.18,2.27,1.27,3.39,8.2,1.89,10.43-7.87,11.72-15.61,23.53-23.38,35.32C193.9,330.59,184.56,343.44,176.92,357.37Z" transform="translate(75.9 171.38)"/><path class="cls-101" d="M216.89,276.32c-9.07,11.69-16.5,24.49-24.65,36.79Q152,373.73,112.3,434.64c-3.19,4.86-6.2,9.83-9.3,14.76-4.32,5.32-5.51,12.15-8.43,19-1.32-4.24,1.2-6.91,1.42-10,4.87-11.15,12.25-20.79,18.71-31,7.28-11.47,14.87-22.74,22.34-34.08Q151,372.16,165,351c9.46-14.38,18.84-28.81,28.33-43.17q13.16-19.9,26.47-39.7c2.38-3.58,4.82-7.12,7.23-10.68l1,1c.8,2.85-1.41,4.53-2.65,6.52A73.3,73.3,0,0,1,216.89,276.32Z" transform="translate(75.9 171.38)"/><path class="cls-102" d="M116,370.45q-2,3-4,6c-2.47-.19-2.17-2.22-2.29-3.72-1.49-18.24-3.95-36.36-6.26-54.5-1.85-14.51-3.14-29.11-6.29-43.44a125.37,125.37,0,0,1,3.29,25.52c.18,7.8,2.55,15.34,2.67,23.19.17,12,3.29,23.61,3.78,35.58.3,7.42,1.75,14.81,2.06,22.28-2.58,3.75-4.5,7.94-7.68,11.28-2.15-.66-2.52-2.5-2.61-4.32-.53-10.7-2.28-21.27-3.1-31.94,1.22-9.75-.55-19.32-1.4-29-.68-7.57-.84-15.22-1-22.85-.21-10.81-.36-21.6-4.71-31.81A46.1,46.1,0,0,0,72,252.46c-4.09-2.83-8-6.05-12.47-8.26a94.3,94.3,0,0,0-38.35-9.66c-1.18,0-2.33-.1-3.18-1.1l.05-1c1.3-2.52,3.48-3.27,6.19-3.4,5.23-.26,10.24,1,16,2.18-4.57-2.15-8.71-2.29-12.87-2.49-1.85-.08-4-.37-4.34-2.56s1.76-3,3.42-3.73c10.22-4.56,20.75-3.82,31.39-1.91,11.78,2.1,22.22,6.92,30.9,15.19,7.8,7.43,13.82,15.71,16.21,26.8,3,14.13,3.08,28.43,4.23,42.65,1.6,19.72,3.4,39.41,5.17,59.11C114.61,366.48,116.45,368.15,116,370.45Z" transform="translate(75.9 171.38)"/><path class="cls-103" d="M18,233.44c15.37-.77,29.77,3.1,43.14,10.2C76,251.54,88,262.45,92.46,279.56A71.6,71.6,0,0,1,94,290.82c1,10.29.82,20.64,1.43,31,.46,8,1.44,15.88,2.33,23.81.36,3.21-.46,6.55-.75,9.82-2.83-.54-2.1-2.92-2.33-4.7-2.24-17.82-4.16-35.69-5.9-53.56-2.38-24.35-15.29-40.87-36.57-51.62-2.67-1.35-5.16-3-8.2-4.28,7,3.62,13.47,7.12,17.57,14.36,3.06,5.39,7.4,10.21,11.32,15.13,7.66,9.64,10.62,21.07,13.18,32.52,4.87,21.78,6.9,44,9.53,66.13.89,7.44,1.54,14.88,2.14,22.33a24,24,0,0,1-.51,7.88L91,409.38c-.12-18-5.06-35.53-5.92-53.46a124,124,0,0,1-.32-13.65c.24-4-2.93-7.15-4.24-10.84-2.41-6.78-2.75-14.14-6.58-20.59-3-5-8.14-9-7.51-16,.16-1.75-2.77-3.93-4.53-5.66-3.74-3.67-3.69-9.12-6.51-13.21-5.22-7.6-10.06-15.47-15.6-22.84-4.49-6-10.09-11.58-18-11.85-4.42-.15-5.1-1.41-4.78-4.93C17,235.28,16.94,234.16,18,233.44Z" transform="translate(75.9 171.38)"/><path class="cls-104" d="M140.06,333.51c-5,8.52-10.26,16.89-16,24.92-3.72-4.76-3.72-10.61-4.22-16.12-1.46-16.22-2.89-32.42-5.45-48.52a205.39,205.39,0,0,1-2.27-27.27,34.1,34.1,0,0,0-5.56-18.39c-9.82-14.77-23.08-24.6-40.42-28.72-8.38-2-16.59-4.64-25.53-2.9C33.81,217.83,27.84,220.17,23,225c-.82.82-1.5,1.85-2.91,1.42,2.42-7.82,7.63-12.57,15.36-15.38,10.91-4,21.34-3.32,32.41-.19a162.83,162.83,0,0,0,19.69,4.75c4.14.63,7.52,3.71,10.42,6.45,11,10.34,21.64,21.26,26.93,35.65,3.05,8.28,7.55,16.62,5.4,26.29-.55,2.48,1.06,5.42,1.64,8.16,1.83,8.71,4.88,17.41,5,26.16C137,323.94,136.79,328.87,140.06,333.51Z" transform="translate(75.9 171.38)"/><path class="cls-105" d="M20,226.46c4.25-3,6.9-7.91,12.51-9.42,7.61-2.06,15.07-3.48,23-1.63,10.31,2.43,20.8,4.42,29.88,10.25,14.48,9.31,25.87,21,28.24,39.11.46,3.54,0,7.1.18,10.69A206.57,206.57,0,0,0,117.08,302c1.62,8.47,1.58,17.08,2.81,25.58,1.48,10.27,1.31,20.77,4.12,30.87-2.52,4.09-4.66,8.45-8,12-4.75-3.15-3.45-8.56-3.69-12.7-.8-13.38-2.46-26.69-3.55-40-1.62-19.73-1.08-39.77-6.06-59.08-2.54-9.85-9.38-17.27-17.06-23.83-13.26-11.34-29.09-14.31-45.84-14.32-4.73,0-9.06,1.93-13.45,3.4-1.09.37-3,.62-2.53,2.43.34,1.32,1.88,1.19,3,1.13a32.59,32.59,0,0,1,12.73,1.75c1.88.66,3.88,1,4,4.09-6.48-.83-12.56-3.25-19.06-2.9-2.44.12-4.57.51-6.44,2.07C18.73,230.45,19.39,228.45,20,226.46Z" transform="translate(75.9 171.38)"/><path class="cls-106" d="M-7.94,93.56c.05-1.09-.27-2.28.81-3.1,14.18,6.19,29.09,10.39,43.5,16,2.18.84,5.11.78,5.77,3.93l-1.2.23C24.6,105,8,100.12-7.94,93.56Z" transform="translate(75.9 171.38)"/><path class="cls-107" d="M11.56,121c.72-2.49,1.21-4.57,1.95-6.55.42-1.12.43-3,2.3-2.72A6,6,0,0,1,20.1,114a2.23,2.23,0,0,1-.55,3.47c-2.2,1.33-.79,3.72-1.82,5.33-2.39-.53-.88-3.07-2.47-4.14C13.44,118.15,14.05,121.23,11.56,121Z" transform="translate(75.9 171.38)"/><path class="cls-108" d="M97.23,399.6c-1.59-6.83-.83-13.85-1.79-20.75-1.45-10.44-3-20.89-3.8-31.39a301.49,301.49,0,0,0-4.77-32.85c-2.85-15.38-5.77-30.68-15.6-43.92-4.6-6.19-10-11.85-13.86-18.74-2.81-5-8.59-7.65-14.23-9.44-1.42-.45-2.78-.71-4-2.19a5,5,0,0,1,5.32-.1c10.6,5.17,21,10.5,29.32,19.3A56.4,56.4,0,0,1,89,290.61c2.27,14.56,3.24,29.26,5.09,43.85.89,7,.78,14.13,2.87,21,.84,11.51,3,22.9,3.2,34.46a8.54,8.54,0,0,0,1.08,2.73C100.89,395.49,98.92,397.46,97.23,399.6Z" transform="translate(75.9 171.38)"/><path class="cls-105" d="M109,381.32c-3.07-3.87-1.89-8.66-2.52-13-1.68-11.59-2.31-23.31-3.86-34.95-.69-5.2-2.19-10.63-1.28-16.36.54-3.37-1.78-7.61-2-11.26-.66-11.86-.84-23.72-4.63-35.49,2.22.05,2.91,1.13,3.19,2.37a371.34,371.34,0,0,1,6.15,39.1c1.32,11.64,2.56,23.3,4.28,34.89,1.26,8.51,1.85,17.06,2.7,25.6.14,1.44-.42,3,1,4.18A8.22,8.22,0,0,1,109,381.32Z" transform="translate(75.9 171.38)"/><path class="cls-109" d="M261,226.45a126.16,126.16,0,0,1-17,12c-.77-1.91-2.44.42-3.59-.89,1.82-1.22,2.39-4.66,5.74-2.61.71-2.57,4.11-2,5-4.1C253.08,226.26,256.69,225.71,261,226.45Z" transform="translate(75.9 171.38)"/><path class="cls-109" d="M272,221.45a20.87,20.87,0,0,1-10,5c-1.41-1.21-1.83-2.21-.3-3.93,1-1.1.92-2.11,2.75-.84,1.51,1,3.26.22,3.15-2.08-.08-1.75,1.42-2.33,2.17-3.66C270.38,217.94,268.05,221,272,221.45Z" transform="translate(75.9 171.38)"/><path class="cls-110" d="M282.88,234.31a78.12,78.12,0,0,1,4,21.67c.34,9.25.62,18.58-1,27.74a28.55,28.55,0,0,1-4.06,10.42c-1.69,2.54-4.68,1.7-6.9-.31-3.75-3.4-5.6-8.15-8.21-12.31a216.91,216.91,0,0,1-10.26-19.3,17,17,0,0,0-5.52-6.83c1.73-2,3.45-3.95,5.17-5.92,3.61-4.79,7.92-8.63,13.9-10.17C274.57,238.41,278.16,234.9,282.88,234.31Z" transform="translate(75.9 171.38)"/><path class="cls-111" d="M216.89,276.32,228,258.44c2.84-3.15,5.44-6.52,8.95-9,.31,4.12,5.51,4.3,6.41,8-.94,3.89-4.58,5.83-6.55,9-1.26,2-3.57,3.35-4,6-3.69,7.8-9.08,14.53-13.77,21.7Q200,323.18,180.74,352.18c-1.19,1.79-2.54,3.46-3.82,5.19-.82-3.32,1.79-5.31,3.25-7.55,14.58-22.32,29.06-44.71,44.2-66.64,3.26-4.73-.29-7.32-.87-10.78-.26-1.54-1.73.36-2.68.64C219,273.58,219.85,277.26,216.89,276.32Z" transform="translate(75.9 171.38)"/><path class="cls-112" d="M270,239.3l-13.9,10.17c-2.9,0-3.78,3-6,4-5.05-.39-6.41-4.94-9.06-8,4.76-6.29,11.4-10.14,18.1-13.92,1.06.37,2.39.51,2.84,1.68,1.43,3.72,4.61,4.55,8,5.11Z" transform="translate(75.9 171.38)"/><path class="cls-113" d="M268,226.48c.59-.31,1.18-.61,1.76-.94a42,42,0,0,1,14-4.95c6.07-.93,5.66,7.08,11.43,8L274,235.46C272.48,232.14,269,230.11,268,226.48Z" transform="translate(75.9 171.38)"/><path class="cls-114" d="M268,226.48c2.62,2.58,6.36,4.41,6,9l-4.06,2.8c-4.24,2-6.71.13-8.44-3.72a16.52,16.52,0,0,0-2.41-3.07A39.4,39.4,0,0,1,268,226.48Z" transform="translate(75.9 171.38)"/><path class="cls-115" d="M241,245.39c2.68,0,3.16,2.55,4.42,4.07a19.94,19.94,0,0,0,4.64,4c-.63.36-1.26.72-1.88,1.09-2.17.22-2.63,3.3-5.09,3-1.27-1-2.39-2.38-3.83-2.89-2.85-1-3.23-2.72-2.25-5.21A11.22,11.22,0,0,1,241,245.39Z" transform="translate(75.9 171.38)"/><path class="cls-116" d="M126.14-8.47c-.33,2.53-2.3,3.74-4.09,5.09-2,.69-4,1.65-6.06.15-.5-.37-.16-.72.15-1.14,1.53-2,4.17-5.26,5.5-4.25C123.69-7.06,124.83-9.64,126.14-8.47Z" transform="translate(75.9 171.38)"/><path class="cls-116" d="M113.88-8.54c2.23-3.12,4.91-5.4,9.11-4.79l.6,1.77c-3.78-.67-6.3,1.77-9,3.65C114.48-7.88,114.1-8.32,113.88-8.54Z" transform="translate(75.9 171.38)"/><path class="cls-117" d="M54.93-38.66c3,.12,4.89,1.5,5.12,4.4.2,2.58-4.35,6.37-7.37,6.17-3.29-.23-4.74-2.78-4.5-5.48C48.51-37.36,51.83-38.18,54.93-38.66Z" transform="translate(75.9 171.38)"/><path class="cls-118" d="M42.14,110.34C29,104.45,15.2,100.47,1.76,95.46c-2.32-.87-4.64-1.74-7-2.54-1.22-.42-2-1-1.91-2.46.76-1,1.89-1.1,3-1.12C-.66,86-.55,80.92,2,77.11a19.74,19.74,0,0,0,1.19-2.73C4.29,72.14,4.9,69.54,6.93,68c2.81-2.17,4.37,1.46,6.66,1.74,7.69.92,14.6,4.41,21.92,6.56,5.84,1.71,11,4.94,16.6,7.27-2.46,6.15-5,12.28-7.35,18.47-.65,1.69-2.15,3.83,1.06,4.78C45.71,109.13,44.87,110.71,42.14,110.34Z" transform="translate(75.9 171.38)"/><path class="cls-119" d="M52.11,83.54c-8.71-3-17.53-5.8-26.09-9.21-5.52-2.2-11.63-2.54-16.8-5.83-2.1-1.33-2.76,1-3.38,2.42-2.38,5.47-4.59,11-7,16.42-.45,1-.11,4-2.89,2L-3,86.48c.57-2.52,1.1-5.06,3-7,1.72-5.22,5.23-9.74,6-15.34,2.38.46,5.46-.49,5.95,3.54.11.87,2.5,2.2,3.28,1,2-3,4-1.15,6-.48q9.23,3.12,18.39,6.41c2,.74,4.54.76,4.87,4.08A2.43,2.43,0,0,0,48.4,80c1.19-1.06,1.83-2.44,3.49-1S53,82,52.11,83.54Z" transform="translate(75.9 171.38)"/><path class="cls-120" d="M50,97.47c.39,2.43-1.11,4.2-2.16,6.12C46.15,101.22,46.91,99.08,50,97.47Z" transform="translate(75.9 171.38)"/><path class="cls-121" d="M0,79.46a9.55,9.55,0,0,1-3,7c-3.07-1.62-.68-4-.78-6C-2.73,79.32-1.22,79.86,0,79.46Z" transform="translate(75.9 171.38)"/><path class="cls-122" d="M16,250.44c.29.4.87.85.81,1.19-1.43,8.28,4.94,10.55,10.4,13.4,6.32,3.32,11.41,7,14.34,14.46s5,15.82,10.88,22.05c.54.57,1.22,1.56,1.08,2.18-2.12,9.09,5.61,16.16,5,25.26-.23,3.38,1.87,7,.93,11.31-.6,2.75,2.73,6.36,4.28,9.59,1.19,2.5,3.06,4.88,1.37,7.9-.14.26-.19.81,0,1,5.83,5.57.7,13.55,4.34,19.63,1.73,2.88-1.57,6.05.42,9.14s2.76,7,3.63,10.71c.27,1.14.92,2.44.14,3.34-3.39,3.94-1.15,7.7.64,11.05s1.54,5.56-1.62,7.43a3.12,3.12,0,0,0-1.6,3.33c-10-2.75-15.88-10.44-22-17.91-.61-.74-1.35-1.37-2-2h0c-2.21-1.4-3.11-3.69-4-6A106.58,106.58,0,0,1,24.88,345.1c-1.36-17.76-4.18-35.4-5.61-53.15C18.16,278.12,15.72,264.38,16,250.44Z" transform="translate(75.9 171.38)"/><path class="cls-95" d="M43,397.44a19.47,19.47,0,0,1,4,6C43.47,402.91,42.86,400.43,43,397.44Z" transform="translate(75.9 171.38)"/><path class="cls-123" d="M244,263.44c2.45-1.86,4.22-4.69,5.68,1.43,1.05,4.34,4.35,8.41,6.44,12.72,5.07,10.46,10.31,20.83,15.47,31.24a2.86,2.86,0,0,1-.5,3.42c-3.3-4.26-6.6-8.19-11.12-10.82-8.49-8.14-15.67-17.13-20-28.28C238,268.14,240.5,265.79,244,263.44Z" transform="translate(75.9 171.38)"/><path class="cls-124" d="M243.05,257.54c2-.47,2.32-3.81,5.08-3l-15.26,17.83c-1.16-3,1.5-4.31,2.81-6.08C238,263.22,240.57,260.44,243.05,257.54Z" transform="translate(75.9 171.38)"/><path class="cls-125" d="M15.23,115.38c.09-.91.63-1.55,1.51-1.47s2,.6,1.83,1.8A1.49,1.49,0,0,1,16.79,117,1.7,1.7,0,0,1,15.23,115.38Z" transform="translate(75.9 171.38)"/><path class="cls-126" d="M49.58-32.66c1.78-2.82,2.85-4.87,5.73-4.45.68.1,1.33.64,1,1.37C55-33.25,52.54-33.66,49.58-32.66Z" transform="translate(75.9 171.38)"/></svg>