<?xml version="1.0" encoding="utf-8"?>
<!-- Generator: Adobe Illustrator 26.0.0, SVG Export Plug-In . SVG Version: 6.00 Build 0)  -->
<svg version="1.1" id="Layer_1" xmlns="http://www.w3.org/2000/svg" xmlns:xlink="http://www.w3.org/1999/xlink" x="0px" y="0px"
	 viewBox="0 0 421.36 527.41" style="enable-background:new 0 0 421.36 527.41;" xml:space="preserve">
<style type="text/css">
	.st0{fill:#E3C976;}
	.st1{fill:#DDBC58;}
	.st2{fill:#DDBF5F;}
	.st3{fill:#E2C770;}
	.st4{fill:#E1C469;}
	.st5{fill:#E5CF79;}
	.st6{fill:#DCBB56;}
	.st7{fill:#F6ECCA;}
	.st8{fill:#F0E1AA;}
	.st9{fill:#DDC25A;}
	.st10{fill:#E2C46B;}
	.st11{fill:#E9D78E;}
	.st12{fill:#D8BA47;}
	.st13{fill:#BE9303;}
	.st14{fill:#D1AF2C;}
	.st15{fill:#E8D189;}
	.st16{fill:#A47900;}
	.st17{fill:#6A4914;}
	.st18{fill:#E5CE82;}
	.st19{fill:#DEBB57;}
	.st20{fill:#CDA82A;}
	.st21{fill:#914300;}
	.st22{fill:#DCBD5A;}
	.st23{fill:#AC6925;}
	.st24{fill:#8C3D00;}
	.st25{fill:#A45C16;}
	.st26{fill:#944500;}
	.st27{fill:#AA6621;}
	.st28{fill:#732900;}
	.st29{fill:#792D00;}
	.st30{fill:#8C6200;}
	.st31{fill:#914403;}
	.st32{fill:#712D05;}
	.st33{fill:#906705;}
	.st34{fill:#B78E09;}
	.st35{fill:#FCF7E8;}
	.st36{fill:#EAD995;}
	.st37{fill:#D5B443;}
	.st38{fill:#EBDA97;}
	.st39{fill:#D0AD28;}
	.st40{fill:#D7B141;}
	.st41{fill:#D1A62E;}
	.st42{fill:#B47431;}
	.st43{fill:#BA7F3E;}
	.st44{fill:#C9985C;}
	.st45{fill:#A76A1E;}
	.st46{fill:#D7BB4A;}
	.st47{fill:#DAC056;}
	.st48{fill:#E4CF7A;}
	.st49{fill:#D2B234;}
	.st50{fill:#DBC25A;}
	.st51{fill:#D0B02F;}
	.st52{fill:#C0990B;}
	.st53{fill:#CAA51E;}
	.st54{fill:#A57A01;}
	.st55{fill:#DABD4F;}
	.st56{fill:#A55F18;}
	.st57{fill:#D0AD2D;}
	.st58{fill:#B97C3A;}
	.st59{fill:#C79558;}
	.st60{fill:#EAD78F;}
	.st61{fill:#A9641D;}
	.st62{fill:#DEC45F;}
	.st63{fill:#B2732F;}
	.st64{fill:#E0C868;}
	.st65{fill:#E6D280;}
	.st66{fill:#C9A629;}
	.st67{fill:#FAF4DF;}
	.st68{fill:#D1B248;}
	.st69{fill:#D6B953;}
</style>
<g>
	<path class="st0" d="M86.4,17.91c1.01-0.66,2.03-1.33,3.04-1.99c2.68,1.57-0.13,3.41,0.25,5.09c-2.24,2.87-6.2,4.38-6.74,8.58
		c-0.42,1.48-1.47,2.52-2.5,3.58c0.56,0.1,0.96-0.25,1.4-0.43c1.88-0.8,4.06-1.59,5.45,0.3c1.24,1.68-0.23,3.5-1.21,4.96
		c-1.9,2.82-4.47,5.3-3.81,9.17C71.73,50.87,67.8,59.64,65.14,69.45c-6.82,25.09-5.07,50.1,0.48,75.11
		c2.78,12.53,6.95,24.66,10.71,36.9c0.46,2.72-0.85,6.09,2.79,7.67c1.42,2.07,2.38,4.27,1.94,6.86c-1.06,2.24-2.35,2.74-3.97,0.5
		c-1.08-1.5-1.78-3.19-2.49-4.88c-5.62-13.35-9.84-27.2-14.57-40.87c-0.43-1.25-0.69-2.59-2.29-3.57c-2.87,3.21-3.68,7.24-3.8,11.25
		c-0.14,4.35-0.85,8.24-4.1,11.37c-0.6,0.57-1.26,1.33-1.29,2.1c-0.36,9.28-7.87,13.38-13.63,18.65c-2.25,2.07-3.55,3.62-1.54,6.66
		c1.4,2.13,0.47,4.59-0.82,6.6c-6.67,10.44-2.46,20.11,2.18,29.64c0.99,2.03,2.6,4,4.31,5.44c3.43,2.88,6.66,4.77,12.23,4.21
		c8.38-0.84,13.71-5.96,20.13-9.7c1.72-1.01,3.39-2.02,5.43-2.43c7.36-1.46,8.59-2.86,9.49-10.33c0.12-1,0.28-1.98,1-2.77
		c1.85-0.47,2.18,1.12,2.84,2.16c2.76,4.36,4.61,9.2,7.13,13.7c1.64,2.92,0.88,5.41-1.61,7.52c-3.38,2.86-7.36,4.62-11.55,5.64
		c-4.2,1.02-7.3,3.19-9.27,6.9c-1.78,3.37-4.52,5.11-8.15,5.92c-4.99,1.1-9.59,3.43-14.87,3.92c-5.93,0.55-10.03-1.38-12.98-6.26
		c-5.48-9.08-11.94-17.61-15.52-27.78c-0.58-1.66-1.48-3.33-2.86-4.6c-7.34-17.96-12.45-36.52-15.03-55.77
		c-1.46-10.87-2.29-21.75-1.8-32.72c0.2-4.6,0.49-9.2,1.85-13.66c1.82,0.81,2.47-0.65,2.98-1.78c2.85-6.39,8.47-10.3,13.61-14.33
		c11.41-8.94,21.94-18.75,31.74-29.39c3.79-4.11,4.88-9.41,6.39-14.47c3.69-12.36,8.58-24.09,16.3-34.57
		C79.37,24.37,83.58,21.83,86.4,17.91z"/>
	<path class="st1" d="M287.41,107.94c14.5,18.95,25.97,39.66,36.23,61.15c11.58,24.27,20.09,49.6,26.97,75.52
		c3.03,11.4,5.85,22.85,8.76,34.27c0.35,2-1.09,1.59-2.03,1.32c-1.39-0.39-2.72-0.97-4.21-0.73c-1.5-0.13-2.9-0.53-4.07-1.53
		c-2.13-9.26-9.33-12.66-17.39-15.24c-5.23-1.67-8.35-5.56-9.16-10.89c-1.2-7.89-1.48-15.85-0.44-23.8c0.25-1.9,1.6-4.06-1.41-4.89
		c-2.52-0.69-5.42,1.43-5.79,4.15c-0.3,2.23,0.35,4.29,1.3,6.27c0.97,2.02,1.42,4.1,0.83,6.3c-0.46,1.7-0.26,4.03-2.58,4.37
		c-2.02,0.29-3.33-1.35-4.36-2.89c-2.71-4.08-3.55-8.95-5.42-13.39c-7.79-18.58-16.05-36.95-24.29-55.33
		c-1.3-2.89-2.15-5.95-3.27-8.91c-0.78-2.05-1.52-4.54,0.7-5.92c2.57-1.59,4.25,0.68,5.86,2.35c0.23,0.24,0.42,0.52,0.63,0.77
		c3.23,3.81,3.23,3.81,5.5-0.39c1.61-2.97,4.81-3.13,7.2,0.37c4.69,6.87,10.34,13.05,14.54,20.28c2.27,3.91,3.59,8.24,5.83,12.13
		c0.77,1.34,1.63,3.5,3.59,2.67c1.74-0.74,1.15-2.91,1.07-4.53c-0.08-1.54-0.75-2.88-1.61-4.14c-0.75-1.1-1.85-2.22-1.66-3.56
		c1.07-7.74-3.51-13.7-6.44-20.07c-4.73-10.26-9.29-20.61-15.01-30.42c-11.02-18.87-23.07-36.79-38.75-52.33
		C244.25,66.78,229.07,54,212.35,43c-18.53-12.19-38.26-21.41-60.48-24.8c-8.26-1.26-16.46-2.28-24.82-1.99
		c-2.52,0.09-4.96,0.45-7.4,1.03c-3.27,0.77-5.34,1.64-2.63,5.57c2.04,2.96-0.8,4.63-3.01,5.67c-5.14,2.41-9.93,5.44-14.9,8.13
		c-1.47,0.79-2.9,1.65-4.21,2.69c-1.89,1.5-2.75,2.97,0,4.55c0.98,0.57,3.47,0.29,1.54,1.96c-3.41-0.63-6.29,0.39-9.57,0.79
		c-1.94-3.94-1.36-6.26,2.61-9.72c4.37-3.81,9.15-7.09,13.89-10.08c-0.19-1.24-0.86-1.41-1.49-1.58c-1.64-0.43-3.43-0.85-3.69-2.83
		c-0.31-2.31,1.74-3.01,3.29-3.86c12.12-6.67,25.24-7.91,38.67-6.58c7.08,0.7,14.2,1.32,21.21,2.71c15.7,3.1,29.78,10,43.44,18.05
		c6.14,3.62,12.11,7.52,18.35,10.95c13.69,9.02,25.39,20.41,36.74,32.06C269.75,85.82,278.42,97.04,287.41,107.94z"/>
	<path class="st2" d="M107.91,361.62c-8.04-8.6-17.7-19.68-24.87-28.98c-10.12-13.12-20.18-26.3-28.65-40.59
		c-0.31-2.47,1.15-2.82,3.07-2.5c0.65,0.11,1.35,0.44,1.71,0.97c5.23,7.75,11.61,5.58,18.06,2.06c3.26-1.78,6.86-1.25,10.26-1.55
		c8.39-0.74,12.76-6.35,16.56-12.71c1.01-1.7,1.68-3.54,3.23-4.91c3.46-3.05,3.64-6.66,1.13-10.27c-3.54-5.07-2.98-11.58-6.17-16.74
		c-0.41-0.66-0.46-1.76,0.38-2.25c1.29-0.76,2.29,0.19,2.95,1.08c2.47,3.34,4.37,7.06,6.6,10.56
		c10.65,16.69,22.16,32.75,34.58,48.17c1.65,2.05,3.61,3.94,4.28,6.64c-0.18,2.15-1.98,2.93-3.42,3.97
		c-14.84,10.58,24.15-16.12-35.71,42.8C110.53,358.7,110.79,361.8,107.91,361.62z"/>
	<path class="st3" d="M150.48,310.93c-16.84-21.35-33.12-43.11-47.48-66.35c4.5,5.79,2.62,13.86,7.47,19.54
		c1.94,2.28,1.76,5.69-0.19,7.94c-5.35,6.14-8.28,14.29-15.52,18.81c-3.21,2-7.23,1.8-10.55,1.68c-5.05-0.18-9.54,1.65-12.95,3.98
		c-3.98,2.72-5.91,0.83-8.42-0.94c-1.61-1.13-2.91-2.72-4.27-4.17c-1.74-1.85-3.09-1.63-4.18,0.62c-7.98-11.64-14.6-24.06-21-36.61
		c-4.44-8.69-8.16-17.68-11.97-26.65c-0.53-1.25-0.99-2.45-0.96-3.8c3.2,0.25,3.87,3.13,4.56,5.22
		c3.49,10.55,10.68,18.97,16.11,28.39c1.77,3.06,5.28,4.19,9.48,3.94c6.44-0.39,11.96-3.6,18.1-4.69c2.51-0.45,3.72-2.33,4.86-4.5
		c2.07-3.91,4.94-6.73,9.73-7.61c3.32-0.61,6.55-2.24,9.57-3.87c4.13-2.23,5.31-5.24,2.38-9.69c-2.96-4.51-5.21-9.5-7.77-14.27
		c-3.79-3.2-5.43-7.65-6.6-12.2c-0.73-2.86,1.01-3.88,3.78-2.96c3.41,6.32,6.92,12.59,9.39,19.37c0.46,2.22-0.05,4.96,3.12,5.71
		c1.6,1.06,2.41,2.71,3.27,4.33c11.54,21.62,25.71,41.49,40.42,61.01c3.2,4.25,6.33,8.54,9.71,12.65c0.96,1.17,1.87,2.37,1.54,4.04
		C151.83,310.59,151.39,311.12,150.48,310.93z"/>
	<path class="st4" d="M86.4,17.91c1.26,2.09-0.99,2.56-1.81,3.34c-12.04,11.29-18.93,25.64-22.81,41.2
		C59,73.59,52.54,81.5,44.37,88.66c-3.7,3.24-7.06,6.83-10.79,10.07c-6.61,5.76-13.63,11.03-20.17,16.86
		c-2.59,2.31-3,5.91-5.36,8.34c-2,2.07-2.61,1.41-2.57-1.09c0.51-9.01,2.82-17.59,6.16-25.93c7.79-9.76,17.61-17.42,26.58-25.98
		C52.04,57.73,63.5,42.5,74.48,26.91C77.85,23.11,82.24,20.66,86.4,17.91z"/>
	<path class="st5" d="M418.45,395.92c-1.16,8-3.55,15.62-7.05,22.9c-1.5-6.32-5.44-9.88-11.71-11.75c-4.06-1.21-6.18-5.19-8.1-8.9
		c0.21-5.98,2.27-11.64,3.03-17.54c0.45-3.49,0.68-6.9-0.32-10.31c-0.55-5.46-0.31-10.94-0.24-16.4c0.06-5.16-0.33-10.25-1.53-15.26
		c-1.25-4.43-1.94-9.02-3.51-13.37c-0.5-1.4-0.77-2.88,0.09-4.29c0.47-0.4,0.98-0.47,1.54-0.23c4.15,5.11,4.46,11.53,5.88,17.54
		c0.91,3.83,1.17,7.8,1.87,11.68c0.65,3.79,0.43,7.62,0.35,11.43c-0.05,2.25,0.64,3.36,3.01,3.52c2.32,0.16,4.54,0.96,6.65,1.96
		c9.7,4.57,13.36,12.1,10.78,22.69C418.68,391.7,419.48,393.91,418.45,395.92z"/>
	<path class="st6" d="M74.48,26.91c-1.01,5.66-5.35,9.35-8.47,13.65c-7.77,10.7-16.22,20.9-25.78,30.08
		c-6.54,6.28-13.3,12.35-20.22,18.2c-2.99,2.53-3.88,7.18-8.37,8.07c5.22-15.95,14.12-29.61,26.62-40.69
		c11.17-9.9,22.87-19.22,34.37-28.75C73.09,27.09,73.86,27.09,74.48,26.91z"/>
	<path class="st7" d="M353.35,278.89c2-2.9,4.02,2.33,6.02-0.01c3.37,3.11,7.81,4.2,11.84,5.94c17.96,7.76,31.6,19.76,39.49,38.04
		c1.84,4.26,4.05,8.31,4.76,12.95c-2.19,1.44-3.45-0.28-4.62-1.55c-7.13-7.74-16.17-13.31-23.58-20.73
		c-3.23-2.9-3.85-7.76-7.64-10.24c-3.4-2.98-5.39-7.09-8.36-10.32c0,0.72-0.17,1.48-0.8,2.07c-5.01-2.21-7.23-7.46-11.49-10.58
		C356.91,282.97,353.33,282.58,353.35,278.89z"/>
	<path class="st8" d="M387.46,312.8c5.31,2.05,7.89,7.36,12.52,10.35c4.53,2.93,8.8,6.4,12.1,10.84c0.8,1.07,1.87,1.92,3.37,1.82
		c2.77,7.09,4.48,14.42,4.83,22.04c-8.16-1.15-16.54-1.65-22.89-7.99c-1.3-6.21-2.85-12.39-3.81-18.66
		c-0.56-3.66-2.68-6.73-3.18-10.34C387.57,318.85,386.03,316.36,387.46,312.8z"/>
	<path class="st9" d="M392.46,398.84c3.87,4.63,8.28,8.13,14.34,9.96c4.27,1.29,4.97,5.78,4.59,10.02
		c-2.94,6.74-5.81,13.52-11.03,18.93c-0.86-0.27-1.6-0.84-1.67-1.68c-0.45-5.59-4.64-7.64-8.94-9.63c-6.56-3.03-7.31-4.75-4.8-11.41
		c0.56-1.5,0.78-2.85,0.05-4.29c1.55-4.54,2.93-9.16,5.79-13.12C391.74,397.48,391.96,398.35,392.46,398.84z"/>
	<path class="st10" d="M153.63,6.86c13.96,2.3,26.58,8.2,38.85,14.86c7.26,3.94,14.7,7.69,20.94,13.28
		c-0.23,0.14-0.46,0.29-0.69,0.44c-4.4,0.4-7.4-2.6-10.77-4.57c-23.35-13.65-48.24-20.57-75.51-18.57
		c-9.97,0.73-19.23,3.07-27.98,7.74c-1.43,0.76-2.8,1.91-4.63,1.28c-1.16-0.94-0.53-1.94-0.1-2.93c5.41-4.38,11.88-6.43,18.38-8.5
		c3.71-1.18,7.99-1.18,10.58-4.92c0.61-0.88,1.86-0.46,2.83-0.48C134.97,4.32,144.39,4.44,153.63,6.86z"/>
	<path class="st11" d="M397.39,349.86c7.04,4.35,15.45,4.78,22.89,7.99c2.26,11.85,0.49,23.59-0.91,35.34
		c-0.12,0.98-0.08,1.99-0.93,2.72c-0.6-4.72,0.55-9.37,0.17-14.19c-0.65-8.34-6.05-11.48-12.32-14.4c-0.15-0.07-0.3-0.15-0.46-0.18
		c-2.7-0.48-7.15-0.19-7.75-1.57c-1.28-2.95-0.59-6.77-0.67-10.24C397.37,353.51,397.4,351.69,397.39,349.86z"/>
	<path class="st12" d="M385.42,410.83c3.68,0.92,1.37,3,0.72,4.48c-2.59,5.85-2.07,7.38,3.85,9.83c5.71,2.37,10.24,5.66,10.38,12.6
		c-2.77,4.18-5.26,8.6-9.96,11.04c0.27-3.61-1.5-5.52-4.71-7.16c-4.23-2.16-8.24-4.9-11.11-8.91c-0.53-2.56,1.06-4.35,2.27-6.27
		c2.01-3.17,4.46-6.11,5.31-9.91C382.87,414.42,383.39,412.2,385.42,410.83z"/>
	<path class="st13" d="M343.28,456.68c0.37-1.62-0.41-3.5,1.08-4.88c3.19-1.51,5.35-4.79,9.13-5.29c1.71,1.28,3.35,1.76,5.22,0.13
		c1.59-1.38,3.5-2.35,5.16-3.65c1.93-1.03,2.8-4.05,5.79-3.08c-2.87,5.86,1.75,6.97,5.44,9.03c2.91,1.63,7.23,2.79,5.31,7.88
		c-2.52,2.51-5.85,3.52-9.02,4.82c-2.98-2.01-6.25-2.76-9.83-2.54c-3.15,0.2-6.23-0.53-9.26-1.27c-1.45-0.35-2.93-1.06-1.11-2.83
		C348.67,455.97,346.57,459.14,343.28,456.68z"/>
	<path class="st14" d="M380.41,456.82c0.05-4.69-3.78-5.8-6.96-7.45c-2.34-1.22-5.65-1.65-6.95-3.52c-1.55-2.24,3.34-3.27,2.91-6.09
		c-0.31-2.94,1.94-4.6,3.34-6.69c0.78-0.69,1.61-1.04,2.6-0.44c4.1,3.21,7.8,7.02,12.73,9.01c3.82,1.54,4.72,3.74,2.31,7.15
		C387.71,452.26,384.65,455.27,380.41,456.82z"/>
	<path class="st15" d="M153.63,6.86c-8.96-0.48-17.82-2.48-26.86-1.87c-1.47,0.1-3.34-0.99-3.36,2.14
		c-0.01,1.18-2.66,1.57-4.24,2.07c-8.46,2.65-17.17,4.69-24.67,9.77c-1.57,0.66-2.25,2.98-4.49,2.41c-0.17-0.14-0.35-0.28-0.52-0.42
		c-1.16-1.67,0.63-3.36-0.04-5.03C109.38,2.61,130.96,0.87,153.63,6.86z"/>
	<path class="st10" d="M287.41,107.94c-6.6-4.93-10.66-12.09-16.05-18.09c-7.93-8.82-15.89-17.59-24.74-25.59
		c-7.48-6.76-14.98-13.42-23.16-19.31c-1.19-0.86-2.31-1.76-2.28-3.43c0.11-0.21,0.23-0.43,0.34-0.64
		c9.63,6.01,17.68,13.93,26.05,21.46c14.64,13.16,27.06,28.33,39.15,43.77C287.1,106.6,287.18,107.32,287.41,107.94z"/>
	<path class="st16" d="M343.28,456.68c2.52,0.5,4.54-0.89,6.42-2.09c3.07-1.95,1.01,2.83,3.92,2.56c3.73-0.34,7.75,0.68,11.7,0.71
		c2.68,0.02,5.36,0.41,6.06,3.78c-0.91,1.1-2.12,1.41-3.48,1.28c-7.17,1.08-14.34,2.19-21.63,1.38c-1.8-0.2-3.68-0.02-5-1.63
		C341.55,460.54,341.99,458.47,343.28,456.68z"/>
	<path class="st17" d="M341.28,462.68c8.87,1.13,17.76-0.3,26.63,0.25c-8.93,4.01-18.28,3.06-27.61,2.39
		C340.55,464.41,340.28,463.3,341.28,462.68z"/>
	<path class="st10" d="M213.41,35c3.23,1.22,5.6,3.64,8.1,5.88c0,0-0.11,0.14-0.11,0.14c-4.41,0.58-7.1-1.44-8-5.99L213.41,35z"/>
	<path class="st18" d="M80.7,195.82c1.84,2.07,2.66,4.64,3.57,7.17c-1.71,0.47-3.61,0.59-2.16,3.35c1.97,3.76,3.6,7.7,5.37,11.56
		c0.01,8.94-1.68,12.78-7.48,13.98c-3.09,0.64-5.91,1.13-8.6,2.94c-2.18,1.47-4.49,2.62-6.34,4.64c-2.8,3.06-6.37,4.15-10.66,3.75
		c-1.97-0.18-4.1,1.08-6.13,1.8c-1.09,0.39-2.28,1.32-3.27,0.45c-5.84-5.19-12.77-9.54-14.55-18c-1.24-5.9-4.22-11.53-2.07-17.93
		c0.69-2.08,1.33-3.98,2.67-5.75c1.89-2.5,3.02-5.16,0.04-7.81c-2.66-2.36-0.45-3.46,1.18-5c4.26-4.03,11.13-6.61,12.43-12.13
		c1.83-7.75,9.45-13.14,8.01-22.06c-0.4-2.5,0.86-5.52,2.32-8.01c0.86-1.47,0.48-4.43,2.66-4.12c1.69,0.24,2.75,2.73,3.39,4.62
		c3.39,9.98,6.58,20.03,10.09,29.96c1.93,5.46,4.4,10.73,6.49,16.14C78.53,197.58,79.49,197.02,80.7,195.82z"/>
	<path class="st10" d="M82.48,47.14c-2.53-0.51-2.26-2.97-1-4.66c1.18-1.59,2.53-3.09,3.52-4.8c0.78-1.33,2.56-2.98,1.35-4.31
		c-1.08-1.18-3.05-0.4-4.52,0.67c-1.02,0.74-2.26,1.18-4.12,2.12c0.52-3.78,3.81-4.76,4.77-7.23c0.2-3.05,3.31-3.71,4.73-5.75
		c1.73-0.64,3.22-2.2,5.32-1.44c0.53,1.06,0.03,1.95-0.6,2.72c-1.19,1.47-2.3,2.4,0.12,4.22c2.78,2.09,0.55,4.73-1.03,6.4
		c-3.22,3.38-5.87,7.13-8.49,10.94L82.48,47.14z"/>
	<path class="st15" d="M87.49,23.96c-1.67,1.66-3.34,3.32-5.01,4.98c-0.1-3.04,2.5-6.01,7-7.99c0,0,0.02,0.02,0.02,0.02
		C90.12,22.83,88.29,23.05,87.49,23.96z"/>
	<path class="st18" d="M75.66,182.65c0.9,2.1,1.8,4.2,2.7,6.3C74.05,188.32,75.29,185.3,75.66,182.65z"/>
	<path class="st19" d="M294.32,272.76c-1.24-5.31-2.48-10.63-3.72-15.94c2.43-0.96,2.43-0.96,6.61,1.53
		c-0.44-7.41,1.16-14.46-2.08-21.19c-1.02-2.11-1.99-4.26-1.92-6.66c0.18-5.69-0.95-11.2-1.84-16.8
		c-2.8-17.7-10.5-33.59-17.71-49.66c-2.19-4.87-4.27-9.78-5.84-14.86c-1.58-5.07-0.31-6.86,4.91-7.68c1.17-0.19,1.57-0.52,2.02-1.61
		c2.29-5.47,4.77-6.2,9.91-3.16c0.99,0.58,1.85,1.44,3.19,1.4c1.32-0.94,0.48-2.12,0.1-3.08c-5.5-13.94-13.85-26.03-24.11-36.85
		c-0.81-0.85-1.67-1.68-2.19-2.71c-6.5-13.05-17.79-21.79-28.34-31.11c-20.06-17.73-42.8-30.92-68.25-39.4
		c-7.33-2.44-14.86-3.78-22.48-4.55c-4.81-0.49-9.79-0.71-11.8,5.54c-0.69,2.16-3.26,2.65-5.27,3.47
		c-6.93,2.83-14.01,5.33-20.71,8.72c-5.1,2.58-5.13,2.49-1.66,7.19c0.3,0.41,0.39,0.9,0.32,1.41c-2.34-0.32-4.68-0.64-7.02-0.95
		c-0.41-0.26-0.82-0.72-1.24-0.74c-2-0.1-3.84-0.8-4.28-2.77c-0.42-1.87,1.43-3,2.76-3.79c5.69-3.38,11.49-6.58,17.27-9.81
		c1.16-0.65,2.4-1.16,3.59-1.76c2.5-1.27,3.17-2.74,0.66-4.78c-3.83-3.12-1.7-4.44,1.68-5.44c9.97-2.96,20.05-2.2,30.08-0.61
		c12.1,1.91,24.11,4.27,35.43,9.3c10.62,4.72,20.81,10.12,30.59,16.43c14.54,9.38,28.11,20.03,40.46,32.01
		c9.22,8.94,18.3,18.17,25.85,28.73c15.22,21.27,27.4,44.2,37.61,68.22c1.71,4.03,4.96,7.67,2.76,12.62
		c-0.24,0.54,0.79,1.69,1.3,2.51c0.52,0.84,1.32,1.57,1.64,2.47c1.21,3.38,2.28,7.98-0.84,9.62c-3.42,1.79-5.47-2.82-6.3-5.45
		c-3.72-11.75-12.45-20.25-18.8-30.28c-1.16-1.83-2.6-3.42-4.73-2.84c-1.95,0.54-1.41,2.74-1.5,4.36c-0.06,1.13,0.23,2.49-1.28,2.9
		c-1.09,0.29-1.93-0.44-2.59-1.2c-1.4-1.63-2.65-3.4-4.11-4.97c-1.07-1.15-2.12-3.17-4-2.2c-1.83,0.95-1.08,2.94-0.51,4.46
		c1.81,4.81,3.5,9.69,5.65,14.36c9.24,20.05,18.55,40.07,26.03,60.88c0.88,2.44,2.19,5.78,5.05,4.91c1.17-0.36,2.47-4.76,0.95-7.65
		c-1.24-2.35-2.24-4.7-2.28-7.53c-0.05-3.26,1.22-5.23,4.27-5.66c1.79-0.25,3.68-1.95,5.58,0.07c1.89,2.02,1.29,4.01,0.12,5.93
		c-1.79,2.95-0.35,6.2-0.42,9.11c-0.15,6.43-0.56,13.19,2.55,19.37c1.17,2.32,3.36,3.11,5.25,4.34c1.22,0.8,2.74,1.17,4.16,1.62
		c7.68,2.46,14,6.18,14.61,15.36c-0.21,0.14-0.42,0.27-0.63,0.41c-2.2,0.32-3.65-1.2-5.27-2.22c-4.05-2.56-8.33-4.51-13.08-5.31
		c-6.52-2.05-13.14-1.88-19.8-0.98c-4.07,0.77-8.17,1.33-12.08,2.82C297.23,273.15,295.77,273.74,294.32,272.76z"/>
	<path class="st4" d="M82.28,47.16c-1.07-3.58,2.83-7.01,4.97-9.49c1.61-1.87,3.16-3.8,4.61-5.8c0.76-1.04,0.87-2.56-0.72-2.7
		c-6.08-0.56-2.38-2.7-0.83-4.54c0.74-0.88,1.45-1.78,2.18-2.68c-0.29-0.96,0.06-1.27,1-0.99c6.86-3.21,13.57-6.75,21.2-7.94
		c10.98-1.71,21.96-2.9,33.09-1.46c7.36,0.95,14.85,0.95,21.95,3.59c12.88,4.79,25.61,9.9,37.31,17.21
		c2.02,1.26,4.13,2.04,6.36,2.68c1.64,3.37,4.12,5.62,8,5.99c0.68,1.31,1.37,2.62,2.05,3.93c-6.99-2.69-12.89-7.34-19.28-11.06
		c-16-9.3-32.32-17.21-51.11-19.04c-8.22-0.8-16.38-1.99-24.68-1.95c-9.68,0.05-18.58,2.71-27.05,7.15
		c-0.95,0.5-2.55,0.68-2.34,2.17c0.23,1.7,1.81,1.55,3.13,1.76c1.47,0.23,3.74-0.95,4.09,1.52c0.3,2.1-1.97,2.34-3.27,3.25
		c-4.32,3.05-8.68,6.05-12.9,9.23c-2.51,1.9-3.54,5.31-3.18,8.61C85.55,46.67,83.61,47.08,82.28,47.16z"/>
	<path class="st20" d="M353.35,278.89c6.54,4.4,12.26,9.68,17.09,15.92c5.8,4.92,9.62,10.93,10.31,18.67
		c-1.38,1.14-2.21-0.19-3.21-0.72c-2.73-2-4.51-4.59-5.96-7.71c-2.58-5.57-7.17-9.78-11-14.47c-3-3.68-6.05-7.42-10.12-10.11
		c-0.79-0.52-1.45-1.39-0.98-2.54c0,0-0.02-0.03-0.02-0.03C350.87,277.74,352.12,278.26,353.35,278.89z"/>
	<path class="st18" d="M93.62,222.72c1.42,1.47,2.09,3.35,2.81,5.2C93.01,227.52,92.57,225.52,93.62,222.72z"/>
	<path class="st21" d="M346.61,441.87c3.45-21.13,2.27-41.99-4.47-62.32c-8.54-25.75-23.63-46.93-45.48-63.18
		c-0.52-0.39-0.92-0.93-1.38-1.4c3.86-4.76,8.94-7.62,14.74-9.31c3-0.88,6.14-1.43,8.34-3.98c2.68-1.11,4.59,0.48,6.15,2.14
		c6.3,6.68,12.3,13.69,14.65,22.81c2.38,9.23,7.68,16.92,12.34,24.93c3.44,5.9,5.82,11.91,5.2,18.87c-0.3,3.38,0.42,6.53,2.03,9.6
		c4.48,8.54,6.78,17.62,5.76,27.31c-0.3,2.87,0.21,5.42,1.89,8.62c0.02-4.31,0.48-7.61,4.63-9.31c2.13-0.87,2.4-3.82,3.11-6.03
		c2.78-4.14,2.13-9.4,4.44-13.7c1.58-3.31,2.63-6.76,2.52-10.44c-0.13-4.24,2.36-7.8,2.88-11.86c0.24-2.71,0.21-5.5,2.17-7.72
		c0.96-0.45,1.51,0.07,1.97,0.82c0.95,3.47,0.13,7.04-0.37,10.34c-2.27,14.96-5.52,29.72-11.51,43.72
		c-1.31,3.05-2.96,5.97-5.64,8.11c-0.47,0.2-0.91,0.11-1.3-0.23c-1.63,7.33-8.05,11.26-12.2,16.75
		C354.76,439.46,351.22,442.2,346.61,441.87z"/>
	<path class="st22" d="M118.35,375.95c-2.4-2.9-4.58-5.96-7.09-8.76c-1.23-1.37,0,0-3.35-5.57c7.89-15.15,17.01-26.01,29.7-37.44
		c5.2-4.68,8.54-12.5,14.27-16.42c3.23,2.29,6.55,10.73,9.6,13.19c1.36,1.41,3.15,2.54,4.36,4.07c1.64,2.37,3.81,3.73,6.75,3.18
		c5.58-1.05,11.21-0.56,16.82-0.71c1.6,0.14,3.28,0.13,4.27,1.75c-5.26,12.8-13.73,22.13-27.75,25.32
		c-5.66,1.29-11.23,2.92-16.97,3.86c-9.02,1.47-16.34,5.97-22.72,12.4C124.07,373.02,122.42,376.5,118.35,375.95z"/>
	<path class="st23" d="M379.49,387.9c-1.8,4.17-1.53,9-4.08,12.93c-3.64-0.15-6.99-2.89-7-7.13c-0.02-8.89-1.57-17.52-3.26-26.17
		c-1.64-8.38-2.33-16.97-8.93-23.67c-3.59-3.64-5.78-8.43-6.68-13.72c-1.73-10.1-9.22-16.27-16.16-22.72
		c-2.2-2.04-4.52-3.9-6.08-6.54c-1.24-2.09-3.3-3.23-5.4-4.27c-13.98-6.94-28.04-5.15-39.9,5.07c-1.34,1.16-2.49,2.79-4.67,2.24
		c-4.33-1.75-8.66-3.51-12.99-5.26c6.07-8.95,13.36-16.6,22.96-21.84c9.28-1.78,18.6-4.19,28.09-2.97
		c9.07,1.17,16.1,6.87,22.86,12.58c6.43,5.43,11.48,11.95,14.86,19.77c2.11,4.88,4.68,9.56,7.41,14.14
		c3.27,5.49,4.94,11.5,6.45,17.71c2.07,8.55,4.7,16.97,5.98,25.71c0.41,2.8,0.78,5.59,0.86,8.43c0.1,3.53,0.43,7.01,3.49,9.5
		C379.26,383.28,377.7,386.19,379.49,387.9z"/>
	<path class="st24" d="M328.27,355.9c11.08,17.85,16.78,37.28,17.34,58.28c0.37,13.81-0.19,27.47-5.2,40.57
		c-4.8,5.02-13.25,5.84-16.96,1.64c-0.8-2.84,0.7-5.49,0.67-8.27c0.05-0.81,0.2-1.61,0.4-2.39c1.41-4.76,3.22-9.42,3.49-14.45
		c0.67-11.04-1.15-21.73-4.57-32.18c-2.72-8.42-6.67-16.24-11.45-23.67c-1.05-1.62-2.6-3.13-1.95-5.4c3.79-0.81,5.9-3.4,7.83-6.62
		C320.18,359.57,323.59,356.73,328.27,355.9z"/>
	<path class="st25" d="M277.32,303.91c6.48-6.5,14.18-10.65,23.18-12.61c9.86-2.14,23.07,3.14,29.39,11.07
		c3.78,4.74,8.77,8.52,13.25,12.7c3.77,3.52,6.2,7.97,7.17,12.84c1.59,7.93,5.09,14.5,11.19,19.78c0.82,0.71,1.47,1.93,1.65,3
		c2.25,13.79,6.84,27.22,6.29,41.44c-0.16,4.23,2.16,7.04,5.96,8.69c-1.72,2.99-0.63,8.17-6.31,8.04c2,2.07-2.15,2.84-0.99,4.99
		c0.74,1.37-0.44,2.56-1.94,2.82c-0.9,0.16-1.87-0.11-2.81-0.19c3.23-2.44-1.26-3.93-0.72-6.53c2.26-10.9-0.45-21.15-5.64-30.81
		c-0.62-1.16-1.78-2.13-1.54-3.57c2.13-12.95-4.37-23.12-10.85-33.21c-2.74-4.26-4.85-8.76-5.99-13.6
		c-2.05-8.74-7.57-15.34-12.92-22.06c-1.84-2.31-3.96-4.57-7.26-4.86c-0.25-0.04-0.49-0.07-0.74-0.11
		c-9.31-5.45-18.53-4.74-27.72,0.33c-2.6,1.44-4.81,3.48-7.53,4.74C280.73,305.86,279.03,304.88,277.32,303.91z"/>
	<path class="st26" d="M328.27,355.9c-4.98,3.52-10.08,6.77-12.28,13.1c-0.91,2.63-3.92,0.4-5.9,0.93
		c-1.55,0.14-2.44-0.88-3.26-1.93c-7.17-9.19-14.83-17.89-24.13-25.02c-1.07-0.82-1.87-1.89-2.16-3.26
		c1.1-9.06,5.93-16.18,11.85-22.73c6.89,3.22,12.06,8.7,17.22,13.94C316.93,338.35,323.85,346.24,328.27,355.9z"/>
	<path class="st27" d="M252.43,320.85c2.3-7.17,6.2-13.53,10.02-19.94c5.17,1.89,10.44,3.55,15.03,6.75
		c0.89,1.28,0.43,2.52-0.16,3.71c-3.17,6.45-6.54,12.79-10.64,18.71C261.32,327.94,255.46,326.58,252.43,320.85z"/>
	<path class="st28" d="M292.39,316.98c-2.77,4.87-5.59,9.71-8.29,14.61c-1.44,2.62-2.61,5.37-2.7,8.45
		c-5.54-0.64-8.85-4.66-12.49-8.21c1.12-9.07,5.77-16.14,12.52-22.02C285.56,311.49,289.32,313.72,292.39,316.98z"/>
	<path class="st29" d="M318.42,301.87c0.29,2.1-0.87,3.07-2.73,3.37c-7.75,1.26-13.95,5.78-20.41,9.73
		c-3.26-2.09-6.53-4.19-9.79-6.29c-1.24-2.03,0.29-3.15,1.58-4.06C295.27,298.83,307.69,295.88,318.42,301.87L318.42,301.87z"/>
	<path class="st30" d="M353.51,446.9c-3.27,1.23-4.93,5.45-9.15,4.9c0.63-2.69,1.26-5.38,1.89-8.07c4.88-1.6,8.66-4.68,11.71-8.75
		c3.37-4.48,8.02-7.94,10.51-13.15c0.18-0.38,0.89-0.21,1.29,0.15c1.07,4.25-0.92,7.63-3.23,10.84c-1.14,1.58-2.72,2.86-3.07,4.92
		C360.94,441.65,358.42,445.58,353.51,446.9z"/>
	<path class="st21" d="M318.43,301.87c-6.64-0.97-13.27-3.3-20-0.95c-4.81,1.67-10.2,2.58-12.94,7.77
		c-1.02-0.62-2.03-1.24-3.05-1.86C289.82,296.23,312.12,292.93,318.43,301.87z"/>
	<path class="st31" d="M281.44,309.81c-4.25,6.58-9.5,12.58-11.65,20.36c-0.13,0.47-0.2,0.96-0.3,1.44c-2,0.93-2.56-0.36-2.96-1.91
		c2.68-7.83,8.43-14.13,10.94-22.04C278.8,308.38,280.12,309.1,281.44,309.81z"/>
	<path class="st32" d="M369.38,421.8c-4.06,7.3-10.02,13.06-15.63,19.07c-1.86,1.99-4.09,4.34-7.5,2.86
		c0.12-0.62,0.24-1.24,0.36-1.86c9.63-4.17,15.33-12.36,21.08-20.52c0.41-0.59,0.13-2.33,1.8-1.48
		C370.02,420.54,369.93,421.18,369.38,421.8z"/>
	<path class="st33" d="M337.32,464.97c-5.02-0.1-9.91-1.82-14.98-1.23c-0.56-0.83-0.38-1.61,0.18-2.36
		c5.38-2.28,10.74-4.76,16.8-2.53C338.65,460.89,337.99,462.93,337.32,464.97z"/>
	<path class="st34" d="M339.32,458.85c-5.87-0.61-11.16,2.09-16.77,2.98c-0.19-0.18-0.37-0.35-0.56-0.53
		c-0.39-2.34-0.71-4.67,2.39-5.49c0.37,2.35,2.18,2.03,3.79,1.99c4.3-0.12,8.33-1.38,12.25-3.04
		C340.54,456.26,340.19,457.63,339.32,458.85z"/>
	<path class="st35" d="M380.48,313.83c-1.47-7.33-6.48-12.8-10.05-19.02c0.25-1.05-0.52-2.29,0.94-3.48c3,3.87,5.98,7.72,8.96,11.57
		c4.67,5.15,6.8,11.58,9.02,17.97c0.9,5.77,3.57,11.12,3.98,17c2.71,11.57,1.11,23.29,1.13,34.95c0,0.83-0.31,1.63-0.64,2.39
		c-0.68,1.54-1.49,3.16-3.49,2.96c-1.91-0.19-1.97-1.96-2.26-3.39c-0.16-0.81-0.31-1.62-0.52-2.43c-0.22-1.18-0.13-2.34,0.23-3.49
		c2.32-5.81,1.22-11.77,0.73-17.7c-1.73-12.38-3.44-24.78-8.1-36.52C380.43,314.37,380.45,314.1,380.48,313.83z"/>
	<path class="st36" d="M388.62,371.74c1.8,1.5,0.19,3.9,1.6,5.81c3.21-1.67,2.8-4.75,3.2-7.55c1.55-10.73,0.9-21.43-0.09-32.15
		c1.55,3.68,2.04,7.54,2.04,11.49c0,7.16,0.01,14.31,0.02,21.47c0.99,9.32-1.22,18.14-4.2,26.84c-1.81,4.44-2.93,9.19-5.77,13.17
		c-0.73,1.97-1.46,3.93-2.19,5.9c-3.55,0.91-2.87-1.91-2.68-3.49c0.33-2.76,0.47-5.51,0.46-8.27c2.38-10.34,5.25-20.59,6.3-31.21
		C387.39,372.92,387.86,372.2,388.62,371.74z"/>
	<path class="st37" d="M391.19,397.66c1.57-8.92,4.54-17.62,4.2-26.84c2.73,5.19,0.16,10.32-0.37,15.42
		c-0.44,4.24-1.67,8.4-2.56,12.59C392.04,398.44,391.61,398.05,391.19,397.66z"/>
	<path class="st38" d="M389.35,320.86c-3.01-5.99-6.01-11.98-9.02-17.97c3.5-0.05,2.69,3.7,4.54,5.24c1.28,1.06,1.76,3.07,2.59,4.66
		c0.4,2.9,1.63,5.5,2.93,8.07C390.05,320.87,389.7,320.86,389.35,320.86z"/>
	<path class="st0" d="M93.49,20.96c-0.33,0.33-0.67,0.66-1,0.99c-1.67,0.67-3.33,1.34-5,2c0.67-1,1.34-1.99,2.01-2.99
		c1.66-0.67,3.33-1.34,4.99-2.01C94.16,19.63,93.82,20.29,93.49,20.96z"/>
	<path class="st5" d="M382.28,404.63c0.05,2.93,0.52,5.87-0.55,8.77c-0.51,1.39-0.76,3.03,1.5,3.34c-0.36,3.96-3.18,6.66-5.01,9.87
		c-1.1,1.93-3.09,3.46-2.86,6.03c-0.67,0.35-1.35,0.7-2.02,1.05c-2.27,0.01-1.92-1.78-1.83-3.03c0.13-1.91-0.34-3.8-0.09-5.7
		c2.45-6.42,6.35-12.18,8.62-18.7C380.37,405.35,381.12,404.61,382.28,404.63z"/>
	<path class="st12" d="M372.44,424.86c1.36,2.83-0.95,6.05,0.91,8.83c-1.31,2.02-2.62,4.05-3.93,6.07
		c-1.67,1.36-3.34,2.72-5.01,4.08c-2.09-1.45-2.19-3.43-1.52-5.62C365.5,433.36,367.91,428.35,372.44,424.86z"/>
	<path class="st39" d="M363.34,437.7c0.36,2.05,0.72,4.1,1.07,6.14c-1.98,1.46-4.11,2.75-5.89,4.42c-2.6,2.43-3.98,1.43-5.01-1.36
		c3.18-2.83,6.37-5.64,8.86-9.15C362.67,437.34,362.99,437.33,363.34,437.7z"/>
	<path class="st40" d="M103.46,46.76c-7.31-5.37-7.18-5.82,1.06-9.87c7.02-3.45,14.32-6.18,21.6-8.95c1.4-0.53,3.49-0.88,3.72-2.23
		c1.59-9.45,9.02-6.96,14.38-6.42c21.03,2.11,40.21,10.44,58.06,20.99c12.13,7.18,23.9,15.33,34.42,25.13
		c6.79,6.32,12.98,13.24,19.98,19.31c0.75,0.65,1.67,1.32,2.02,2.19c4.23,10.34,12.96,17.35,19.18,26.18
		c3.16,4.49,6.6,9.04,7.7,14.73c0.63,3.27,4.18,5.15,4.3,8.8c0.04,1.26,1.13,2.8-0.11,3.68c-1.2,0.84-2.45-0.52-3.62-1.05
		c-0.75-0.34-1.54-0.73-2.1-1.3c-1.66-1.67-3.32-2.46-5.78-1.48c-2.79,1.12-2.4,2.86-1.98,5.19c0.38,2.07-0.93,2.37-2.85,1.68
		c-4.15-1.49-6.05,0.04-4.77,4.32c1.56,5.23,3.42,10.46,5.91,15.29c6.78,13.16,12.24,26.95,16.29,41.03
		c2.35,8.15,4.68,16.96,3.6,25.91c-0.18,1.48-0.21,3.07,0.71,4.36c5.29,7.45,2.08,16.25,3.91,24.24c0.22,0.94-0.35,1.65-1.15,1.97
		c-0.88,0.35-1.49-0.36-2.21-0.78c-1.68-0.98-2.17-4.15-5.11-2.86c-13.88-51-36.95-97.21-71.99-137.07
		c-6.68-7.6-14.07-14.57-21.14-21.82c3.31-1.93,4.67,0.91,6.56,2.61c7.15,6.41,13.51,13.73,21.66,18.99
		c1.32,0.85,2.8,2.71,4.37,1.34c1.69-1.47,0.27-3.4-0.5-5c-2.77-5.77-2.81-5.78,2.2-9.25c0.73-0.51,1.48-1.03,1.21-1.94
		c-1.32-4.41,0.05-9.34-2.95-13.48c-2.04-2.81-3.66-5.95-4.99-9.2c-0.63-1.54-1.37-3.31-2.72-4.13
		c-8.8-5.35-13.19-15.08-21.82-20.95c-6.09-4.14-11.43-8.87-18.91-10.15c-0.48-0.08-1.06-0.3-1.29-0.71
		c-3.4-6.11-9.27-5.16-14.59-4.71c-7.09,0.61-13.92-0.62-20.8-1.7c-3.49-0.55-6.97-0.47-10.46-0.29c-2.39,0.12-4.56,0.93-6.38,2.53
		c-3.68,3.23-3.34,6.03,1.27,7.71c4.28,1.56,8.27,3.52,11.73,6.47c1.2,1.02,2.97,1.78,2.42,3.92
		c-11.56-5.01-23.11-10.08-35.59-12.47C106.41,47.24,104.94,47.01,103.46,46.76z"/>
	<path class="st41" d="M143.46,59.99c-3.84-3.97-8.2-7.14-13.55-8.79c-2.69-0.83-6.22-1.45-6.13-4.84c0.09-3.47,2.86-5.94,6.04-7.33
		c4.44-1.95,9.39-1.78,13.77-0.84c9.84,2.1,19.68,1.8,29.57,1.72c2.92-0.02,5.3,0.49,6.49,3.45c0.78,1.95,2.28,2.27,4.24,2.71
		c6.01,1.35,12.03,3.12,15.52,8.86c1.5,2.47,4.36,2.14,6.24,3.8c6.19,5.43,11.27,12.02,16.87,17.92c5.75,6.05,11.53,14.09,11,24
		c-0.06,1.1,0.45,2.27,0.83,3.35c0.83,2.34,1.25,4-2.38,4.03c-3.91,0.04-4.56,2.53-2.39,5.34c1.5,1.94,2.31,4.01,2.78,6.27
		c0.22,1.07,0.41,2.47-1,3.03c-1.17,0.47-2.34,1.15-3.68-0.01c-4.98-4.29-10.37-8.02-15.27-12.52c-4.63-4.25-8.22-10.36-14.94-12.22
		c-13.86-11.62-27.85-23.07-43.65-32.06C150.37,63.91,146.91,61.95,143.46,59.99z"/>
	<path class="st42" d="M379.49,387.9c-0.89-0.45-1.83-0.83-2.67-1.36c-0.77-0.49-2.26-0.72-1.79-1.93c0.25-0.64,1.61-0.86,2.71-1.38
		c-4.85-1.18-5.02-5.32-5.19-8.75c-0.57-11.68-4.13-22.7-6.39-34.01c-3.2-16.04-11.85-29.19-19.6-42.73
		c-5.92-10.35-16.05-17.16-27.22-21.72c-6.8-2.78-13.83-0.85-20.65,0.15c-3.84,0.56-7.59,0.58-11.39,0.64
		c1.8-2.3,4.57-2.9,7.03-4.05c5.21-1.89,10.36-4.07,16.07-3.9c1.58-0.83,3.29-0.71,4.84-0.22c11.55,3.61,22.3,8.51,30.44,18.02
		c8.52,9.95,14.69,21.2,19.98,33.11c3.87,8.72,5.76,18,8.85,26.92c0.82,2.35,1.39,4.78,3.13,6.72c0.65,0.73,0.99,1.52,0.56,2.7
		c-2.26,6.09-0.39,8.65,6.15,8.61c0.33,0,0.65,0.03,0.97,0.14C381.8,372.14,383.52,380.74,379.49,387.9z"/>
	<path class="st43" d="M385.31,364.85c-3.49,1.85-8.07,0.59-9.6-2.66c-1.74-3.69-1.25-5.44,1.92-6.8c-4.63-4.47-5.76-10.77-6.9-16.4
		c-2.18-10.75-6.77-20.45-11.5-30c-4.89-9.87-11.21-18.99-19.59-26.59c-6.11-5.54-13.37-8.45-20.81-11.24
		c-2.72-1.02-5.2-3.08-8.43-2.31c7.11-1.64,14.14-1.91,21.01,1.07c13.72,5.87,23.17,16.44,30.94,28.66
		c6.06,9.54,10.57,19.91,14.67,30.4c1.9,4.87,2.4,10.26,4.69,15.06c2.04,1.66,2.01-5.09,4.62-1.12c-0.23,4.68,2.83,9.32,0.15,14.01
		C386.08,359.58,385.7,362.21,385.31,364.85z"/>
	<path class="st44" d="M385.39,341.84c-1.63,0.97-0.65,3.97-2.84,4.13c-1.05,0.08-3.25-1.52-3.15-1.95c0.88-3.8-2.65-6.44-2.39-9.96
		c0.37-5.07-3.37-8.59-4.95-12.93c-7.85-21.5-20.71-39.21-40.65-51.2c5.06,0.39,9.21,2.93,13.37,5.53c1.48,0.92,2.7,2.46,4.68,2.48
		c8.6,6.2,14.31,15.11,21.27,22.84c2.98,3.31,2.82,8.9,7.6,11.07c2.1,5.37,4.47,10.65,4.56,16.61c0.04,2.37,1.66,4.29,2.5,6.44
		C386.27,337.18,387.48,339.52,385.39,341.84z"/>
	<path class="st45" d="M385.39,341.84c0.11-2.17,0.01-4.25-1.05-6.27c-3.9-7.42-4.18-15.77-6.02-23.73
		c0.72,0.66,1.44,1.32,2.16,1.99c0,0-0.03-0.04-0.03-0.04c3.33,8.11,5.31,16.69,6.88,25.19c1.1,5.96,2.68,12.21,1.57,18.51
		c-0.38,0.54-0.87,0.67-1.47,0.39c-0.32-0.31-0.64-0.63-0.95-0.94C386.55,351.87,384.74,346.94,385.39,341.84z"/>
	<path class="st46" d="M313.47,476.07c-0.27,3.09-2.2,5.36-3.81,7.79c-2.23,3.06-4.68,6-5.51,9.84c-1,2.14-2.02,4.27-3.77,5.93
		c-2.36-1.61-2.1-3.91-1.69-6.28c1.94-11.03,0.59-21.49-5.89-31.72c-0.13,2.76-0.04,4.92,0.32,7.08c1.87,11.16-0.66,21.53-6,31.24
		c-5.36,9.74-11.47,12.14-22.4,10.48c-7.03-1.07-14.11-2.21-21.27-2.3c-5.69-0.07-11.07-2.47-16.78-2.22
		c-11.37,0.49-21.43-4.7-32.09-7.26c-2.63-0.63-5.13-1.14-7.82-0.21c-4.58,1.58-8.59-0.96-12.38-2.63
		c-4.96-2.18-9.92-3.6-15.27-3.87c-16.35-12.67-29.16-28.31-38.88-46.52c-0.76-1.43-1.17-3.06-1.74-4.6c0.9-4.93,2.97-8.13,8-10.84
		c4.78-2.57,11.26-3.31,13.96-9.07c5.77,5.21,12.31,7.06,19.69,5.38c2.78-0.63,4.9-2.11,3.75-5.71c-0.72-2.24,0.7-3.69,2.41-5
		c3.24-2.47,7.25-2.18,10.88-3.26c0.31-0.09,0.81-0.08,0.96,0.12c4.45,6.33,12.72,2.3,17.93,6.63c1.99,1.65,3.8,1.63,5.1-1.17
		c1.76-3.81,4.28-4.05,8.12-2.23c5.31,2.52,11.13,2.11,17.02,1.76c9.48-0.55,19.21-2.64,28.59,1.97c-0.52-2.8-1.48-5.69,1.22-7.62
		c2.48-1.77,4.93-0.3,6.96,1.02c6.68,4.36,13.6,8.65,18.13,15.39c9.46,14.07,19.23,28.05,22.03,45.39c0.37,2.3,0.28,4.66,0.97,6.9
		c0.32,0.93,0.16,1.97,1.04,3.44c1.65-3.45,3.49-6.39,5.27-9.39c0.92-1.55,1.74-3.76,4.38-2.39
		C315.76,473.95,314.4,474.93,313.47,476.07z"/>
	<path class="st47" d="M303.41,480.82c-1.98-7.45-2.8-15.18-5.9-22.37c-5.04-11.67-11.79-22.38-19.58-32.25
		c-4.21-5.33-10.08-9.58-16.36-12.77c-1.65-0.84-3.69-2.82-5.3-0.52c-1.48,2.11-1.58,4.72,0.77,6.7c0.52,0.44,1.05,0.8,0.59,2.02
		c-2.79-0.94-5.63-1.96-8.51-2.84c-4.38-1.33-8.84-0.35-13.24-0.49c-8.21-0.26-16.48,2.58-24.61-0.35
		c-0.31-0.11-0.75,0.02-0.97-0.16c-4.96-3.95-7.76-2.43-9.2,3.4c-0.34,1.38-2.17,2.33-3.11,0.95c-1.9-2.82-5.44-2.19-7.64-4.28
		c-1.26-1.19-3.01-1.46-4.47,0.09c-2.32,2.45-3.8,1.06-4.91-1.18c-1.43-2.88-2.65-4.25-6.44-2.41c-2.16,1.05-5.25,0.82-7.71,2.27
		c-2.13,1.25-3.01,2.55-1.31,4.75c1.74,2.26,0.69,3.78-1.52,4.64c-4.6,1.78-9.17,5.58-14.05,0.43c-0.45-0.47-1.57-0.56-2.32-0.45
		c-5.1,0.78-5.1,0.82-6.7-4.97c-0.41,3.95-1.91,5.96-5.44,5.69c-1.98-0.15-3.6,0.77-4.7,2.36c-1.32,1.92-2.86,2.97-5.36,2.83
		c-2.05-0.11-3.26,1.37-3.91,3.27c-0.7,2.04-1.38,4.1-3.03,5.63c-2.72-5.06-5.2-10.22-5.86-16.04c0.55-4.43,0.92-8.9,1.31-13.33
		c0.72-8.08,4.11-14.92,9.54-20.4c4.98-5.03,11.36-8.63,18.11-10.96c14.55-5.03,29.79-4.36,44.83-4.31
		c8.5,0.03,16.54,3.69,24.48,6.59c8.11,2.96,16.19,5.66,24.62,7.79c10.89,2.74,20.1,9.44,28.46,16.98
		c4.82,4.34,8.99,9.37,14.01,13.5c1.53,1.04,2.67,2.42,3.77,3.89c10.13,13.59,18.6,28.02,22.61,44.7c0.32,1.35,0.46,2.71,0.44,4.09
		C304.54,475.86,305.5,478.63,303.41,480.82z"/>
	<path class="st48" d="M118.35,375.95c5.57-3.3,9.42-8.58,14.5-12.51c5.15-3.99,11.09-5,16.94-6.49c7.33-1.88,14.86-2.96,21.99-5.68
		c7.99-3.05,13.51-8.71,17.5-16.04c1.11-2.03,1.86-4.3,4.18-5.37c1.46-1.45,3.35-1.47,5.13-1.21c12.16,1.78,24.06,4.51,35.24,9.82
		c2.79,1.79,6.67,1.87,8.44,5.3c1.09,7.22-0.99,13.72-4.31,20.02c-4.67,8.87-4.27,10.69,2.58,17.88c1.72,1.8,4.51,3.11,3.86,6.4
		c-2.64,1.13-4.55-0.58-6.31-1.94c-11.2-8.66-24.49-12.53-37.69-16.6c-1.27-0.39-2.76-1.07-3.9-0.46
		c-6.48,3.45-13.01,0.7-19.52,0.41c-13.52-0.61-27.06-0.89-39.55,5.47c-8.18,4.16-15.65,9.34-21.02,17.1
		c-1.18,1.71-2.05,4.45-5.16,3.73C111.78,388.49,116.22,382.64,118.35,375.95z"/>
	<path class="st49" d="M159.1,491.93c3.82-1.19,7.25-1.19,11.26,0.56c5.88,2.58,11.44,6.96,19.07,3.84
		c2.85-1.17,7.2,2.15,10.77,2.43c7.91,0.63,14.3,7.09,22.8,5.26c2.59-0.56,5.68,0.3,8.29,0.94c7.47,1.83,15.11,1.65,22.63,2.75
		c5.31,0.78,10.68,1.41,16.02,2.01c6.24,0.7,10.98-2.45,14.16-7.48c6.46-10.21,9.96-21.15,7.58-33.5c-0.63-3.28-0.1-6.78,0.33-10.35
		c5.23,7.68,9.2,15.83,8.86,25.58c-0.18,5.22-1.85,10.39-0.51,15.66c-0.82,1.51-1.33,3.24-2.92,4.22c-3.78-2.3-0.07-6.27-2.18-9.33
		c-2.92,4.2-4.83,8.8-7.83,12.76c-3.48,4.58-7.79,7.69-13.12,9.44c-7.32,2.42-14.79,3.77-22.56,2.62c-2.96-0.44-6.06-0.59-8.96-0.08
		c-7.59,1.34-14.88-0.47-22.24-1.57c-5.1-0.76-10.16-1.82-15.35-1.56c-4.61,0.24-8.43-2.79-12.91-3.01
		C180.08,507.85,168.94,500.92,159.1,491.93z"/>
	<path class="st50" d="M111.26,395.75c1.29-0.26,1.77-1.31,2.44-2.28c8.84-12.77,20.82-21.14,36.04-24.08
		c9.88-1.91,19.98-2.56,30.08-0.73c3.55,0.65,7.3-0.14,10.82,1.13c0.29,0.11,0.75,0.14,0.98-0.02c8.11-5.69,14.81,0.93,21.94,2.72
		c9.89,2.48,18.74,7.36,26.83,13.62c1.13,0.87,2.69,1.18,4.05,1.76c2.67-0.06,4,2.07,5.74,3.51c8.7,7.68,17.09,15.67,24.93,24.24
		c0.75,2.07,3.9,3.26,2.33,6.2c-7.22-5.63-12.51-13.34-20.09-18.58c-6.41-4.43-12.83-9.04-20.26-11.4
		c-5.44-1.73-11.23-2.24-16.67-4.42c-7.97-3.19-16.16-5.81-24.33-8.48c-7.18-2.35-14.28-2.28-21.49-1.56
		c-2.15,0.21-4.33,0.72-6.41,0.34c-10.45-1.89-20.32,1.5-29.52,5.01c-8.01,3.05-15.74,8.21-20.04,16.73
		c-2.92,5.79-3.23,12.08-4.07,18.27c-0.34,2.48-0.46,4.92-1.93,7.05C109.63,415.23,109.77,405.52,111.26,395.75z"/>
	<path class="st51" d="M192.29,513.12c0.54-1.04,1.47-1.53,2.49-1.06c9.49,4.33,20.09,1.83,29.72,4.82
		c10.58,3.28,21.33,0.25,32.03,1.45c8.65,0.97,18.07-1.16,25.35-6.99c4.19-3.35,7.58-7.92,9.51-13.13c1.08-2.9,3.02-4.9,5.15-7.37
		c2.31,4.61-0.58,8.96,0.92,13.02c-3.25,3.42-4.68,8.64-9.96,10.05c-1.68,0.22-3.22,0.98-4.6,1.79c-11.14,6.55-23.4,9.33-36.05,10.1
		c-7.18,0.44-14.51,0.01-21.56-1.98c-2.57-0.73-5.12-1.3-7.8-1.1C208.47,521.13,200.25,517.48,192.29,513.12z"/>
	<path class="st52" d="M217.49,522.71c1.89-1.68,4.22-1.22,6.14-0.64c12.13,3.66,24.29,2.66,36.48,0.6
		c7.72-1.3,14.82-4.12,21.52-8.21c1.52-0.93,3.75-2.26,5.87-0.56c-5.23,6.37-12.68,8.74-20.17,10.68
		C250.58,528.92,233.91,528.26,217.49,522.71z"/>
	<path class="st53" d="M313.47,476.07c0.33-1.42,0.65-2.84,0.98-4.25c0.29-2.84,1.25-5.46,2.73-7.87c1.13-1.83,2.75-2.82,5.01-2.16
		c0,0,0.37,0.04,0.37,0.04c-0.07,0.64-0.14,1.28-0.21,1.91c-1.76,3.13-3.42,6.32-5.33,9.36
		C316.2,474.39,315.56,476.19,313.47,476.07z"/>
	<path class="st49" d="M304.15,493.7c-0.2-4.42,2.5-7.21,5.51-9.84C307.82,487.14,305.99,490.42,304.15,493.7z"/>
	<path class="st54" d="M387.43,357.88c0.32-0.03,0.65-0.06,0.97-0.09c1.87,1.99,0.46,4.6,1.27,6.79c0.52,1.67-0.24,3.03-1.1,4.35
		c0.02,0.93,0.03,1.87,0.05,2.8c-0.35,11.3-3.34,22.1-6.34,32.89c-3.17,6.79-5.96,13.78-9.83,20.23c-3.04,4.28-6.07,8.56-9.11,12.84
		c-0.32,0.04-0.64,0.06-0.97,0.05c-0.14-1.76,0.56-3.15,1.89-4.27c3.6-3.06,4.45-7.34,5.13-11.68c0.03-0.64,0.07-1.28,0.1-1.93
		c8.89-12.69,12.48-27.23,15.02-42.21C385.62,371.08,386.8,364.53,387.43,357.88z"/>
	<path class="st55" d="M233.41,339.88c-8.95-4.88-18.88-6.7-28.65-8.97c-3.69-0.86-7.47-1.36-11.3-1.06
		c-1.07-1.46-2.66-0.84-4.06-1.02c-2.05-1-4.24-0.26-6.35-0.49c-1.08-0.12-2.53,0.37-2.89-1.17c-0.42-1.8,0.91-2.74,2.27-3.41
		c5.11-2.5,10.47-2.28,16.02-1.92c8.97,0.58,17.44,3.65,26.29,4.66c4.24,0.49,8.17,1.88,11.72,4.28c0.26,3.4,3.23,3.96,5.52,5.24
		c0.43,0.25,0.8,0.56,1.13,0.93c1.19,1.76,1.81,3.6,0.77,5.66c-2.36,1.22-3.68-1.2-5.58-1.61
		C236.66,340.65,235.24,339.38,233.41,339.88z"/>
	<path class="st56" d="M161.48,320.95c5.4-3.89,11.3-6.71,17.8-8.21c2.78,0.11,5.5,0.29,8.28-0.58c5.61-1.74,10.86,0.27,15.65,2.81
		c1.53,0.81,4.44,2.42,3.69,5.28c-0.78,2.97-3.48,2.56-5.81,2.58c-9.62-1.28-19.05,0.03-28.42,2.03c-2.73,0.58-5.42,1.66-8.19,0.25
		C163.48,323.73,162.48,322.34,161.48,320.95z"/>
	<path class="st57" d="M164.47,325.12c12.42-3.85,25.19-3.56,37.97-3.2c6.47-0.74,12.54,1.21,18.65,2.79
		c1.78,0.46,4.04,0.5,4.38,3.1c-6.3,0.54-11.84-2.98-17.95-3.4c-7.99-0.55-16.01-3.4-23.97,0.26c-1.05,0.48-2.7,0.61-2.56,1.92
		c0.2,1.91,2.06,1.05,3.26,1.24c1.73,0.27,3.69-0.65,5.16,0.99c-5.75,0.25-11.53-0.51-17.25,0.96
		C168.23,330.8,165.98,328.42,164.47,325.12z"/>
	<path class="st58" d="M199.45,309.78c7.09-0.17,14.17-0.18,21.06,1.94c18.19,5.03,35.75,11.92,50.83,23.22
		c13.47,10.1,26.74,20.72,36.19,35.3c5.85,9.03,11.83,17.94,16.74,27.52c4.34,10.93,5.61,22.32,5.08,33.97
		c-2.76-0.36-2.55-2.66-2.64-4.45c-0.37-7.2-3.22-13.76-5.21-20.53c-0.81-2.76-2.27-5.29-5.98-4.5c-2.67-0.5-3.04-3.39-4.92-4.71
		c-10.5-20.3-26.73-35.32-44.78-48.68c-1.45-1.07-3.21-1.83-3.83-3.76c-0.61-4.39-2.61-7.27-6.49-10.18
		c-8.19-6.15-17.41-9.35-26.84-12.44c-3.66-1.2-6.52-3.76-9.81-5.57c-4.67-2.56-9.98-3.28-15.27-3.57
		C201.16,313.23,199.37,312.64,199.45,309.78z"/>
	<path class="st59" d="M324.27,397.77c-2.65-0.37-2.23-2.94-3.26-4.49c-8.68-13.01-15.76-27.17-27.56-37.94
		c-12.32-11.25-24.49-22.68-39.92-29.76c-9.85-4.52-19.82-8.75-30.09-12.25c-1.04-0.36-2.39-0.3-2.94-1.61
		c9.19,0.76,17.52,4.41,26,7.62c1.87,0.71,3.52,2.77,5.93,1.51c4.04,4.01,9.67,5.47,14.1,8.85c0.99,0.64,1.97,1.27,2.96,1.91
		c3.97,2.81,7.94,5.61,11.91,8.42c10.81,8.77,20.18,18.92,28.69,29.89C315.58,378.82,321.13,387.68,324.27,397.77z"/>
	<path class="st60" d="M311.26,396.95c2.73,0.54,2.2,3.74,4.07,4.98c3.8,2.62,4.11,7.11,5.47,10.9c3.83,10.63,7.38,21.4,4.82,33
		c-0.14,0.67-0.27,1.35-0.41,2.02c-0.72,1.07,0.36,3.41-1.92,3.27c-1.8-0.11-1.96-1.9-2.13-3.34c-0.19-1.6-0.1-3.23-0.21-4.83
		c-1.65-15.97-7.98-30.26-15.83-44c-0.09-0.53,0.04-0.99,0.38-1.41C307.31,396.16,309.33,397.05,311.26,396.95z"/>
	<path class="st61" d="M325.63,445.82c0.32-15.51-4.64-29.79-10.3-43.9c2.08-2.61,3.84-1.98,5.29,0.6
		c4.22,7.53,6.03,15.82,7.22,24.24c0.26,1.82,0.3,3.52,1.5,4.97C329,436.67,327.4,441.27,325.63,445.82z"/>
	<path class="st62" d="M322.41,441.85c0,2.83,0,5.65,0,8.55c2.3-0.29,1.76-2.07,2.81-2.56c-0.28,2.66-0.57,5.31-0.85,7.97
		c-1.43,1.74-1.73,3.89-2.19,5.98c-3.27,0.94-5.03,3.28-5.67,6.46c-0.3,1.49-0.57,2.84-2.06,3.57c-3.64,2.39-4.39,6.77-6.81,10.02
		c-1.09,1.46-0.97,4.73-3.16,4.24c-2.13-0.48-0.66-3.44-1.06-5.26c0.01-2.67,0.02-5.35,0.02-8.02c2.53,1.96,4.02,1.95,5.84-1.38
		c2.53-4.65,5.16-9.33,8.36-13.6c1.15-1.54,1.53-3.29,1.71-5.14c0.49-2.4,0.55-4.83,0.81-7.24
		C320.3,443.97,320,441.98,322.41,441.85z"/>
	<path class="st63" d="M199.45,309.78c1.51,4.33,5.75,2.1,8.41,2.81c4.94,1.34,9.8,1.78,14.19,5.18c1.37,1.06,3.53,2.51,5.72,3.19
		c10.16,3.16,19.95,6.84,28.92,13.12c3.53,2.47,4.66,5.29,6.41,8.32c0.56,0.98,0.17,1.92-0.84,2.52c-4.14,0.22-6.84-2.97-10.3-4.36
		c-3.71-2.36-7.97-3.61-11.79-5.77c-1.24-0.97-3.19-1.08-3.67-2.98c-3.49-1.86-7.13-3.28-11.03-4c-6.2-2.63-12.76-3.87-19.36-4.92
		c-1.27-0.2-2.67,0.2-3.67-0.98c1.49-0.11,3.31,0.01,3.71-1.8c0.71-3.2-1.71-0.37-2.31-1.07c-6.57-7.58-10.64-6.99-19.04-4.77
		c-2.35,0.62-3.72-0.91-5.51-1.54C185.83,310.53,192.52,309.34,199.45,309.78z"/>
	<path class="st20" d="M389.22,364.97c-1.53-2.25-0.44-4.8-0.82-7.18c-1.02-8.63-0.63-17.3-3.74-25.83
		c-2.08-5.7-3.86-11.87-4.21-18.17c5.28,8.49,6.4,18.19,8.02,27.73c0.52,3.06,0.75,6.17,1.12,9.26
		C389.87,355.52,390.51,360.27,389.22,364.97z"/>
	<path class="st36" d="M389.22,364.97c0.12-4.73,0.24-9.46,0.37-14.19c1.72,5.48,0.46,11.1,0.69,16.64
		c0.04,0.92-0.86,1.31-1.71,1.51C387.79,367.45,389.64,366.4,389.22,364.97z"/>
	<path class="st48" d="M320.42,453.82c-1.33,6.31-6.29,10.62-9.02,16.2c-0.88,1.8-1.72,3.88-3.18,5.44
		c-0.76,0.81-1.44,2.09-2.71,1.88c-1.63-0.28-0.79-1.89-1.15-2.87c-0.22-0.59-0.61-1.11-0.92-1.66c-0.01-1.33-0.01-2.65-0.02-3.98
		c-2.33-11.08-6.69-21.38-12.04-31.31c-2.07-3.84-5.35-6.75-7.69-10.38c-0.88-1.37-2.44-2.4-1.42-4.34c0.64-0.28,1.38-0.35,1.88,0.1
		c4.64,4.12,10.71,4.94,16.25,6.92c2.45,0.88,3.05,2.18,2.74,4.42c-1.22,8.96,2.91,17.15,3.75,25.85c0.38,3.93,1.66,3.88,4.62,0.83
		C314.15,458.16,315.82,454.12,320.42,453.82z"/>
	<path class="st64" d="M282.42,422.83c0.77,3.41,3.66,5.39,5.61,7.96c8.58,11.32,13.38,24.09,15.38,38.03
		c-2.56-3.9-3.04-8.59-4.8-12.82c-5.22-12.59-12.1-24.03-21.17-34.17c0.15-2.58-3.15-3.42-3.01-5.99c1.62-0.66,2.46,0.62,3.5,1.4
		C279.45,419.09,281.74,420.31,282.42,422.83z"/>
	<path class="st65" d="M282.42,422.83c-2.04-1.29-3.71-2.95-4.99-5c-9.02-9-17.85-18.21-28.01-25.98c-1.66-1.32-3.32-2.65-4.98-3.97
		c-2.46-2.65-4.94-5.29-7.39-7.95c-3.52-3.83-5.44-8.2-1.59-14.23c4.26-6.68,6.33-14.04,6.02-22.01c1.97-0.18,3.77,0.29,5.41,1.4
		c1.2,0.82,2.47,1.57,3.18,2.92c2.01,8.15-2.41,14.87-5.27,21.78c-2.56,6.18-2.62,11.35,3.17,14.86
		c13.51,8.19,23.02,20.45,33.9,31.35c5.23,5.24,6.13,5.22,12.01,0.42c3.79-3.09,6.62-7.52,12.15-8.19c1.88-0.23,1.32-1.94,0.68-3.19
		c-0.76-1.48-1.79-2.83-2.35-4.39c-0.4-1.11-1.26-2.64,1.06-2.83c8.19,12.82,14.53,26.34,16.1,41.72c0.08,0.79,0.57,1.55,0.87,2.32
		c-2.17,3.74-0.01,8.19-1.99,11.96c-3.18,2.42-6.08,5.11-8.27,8.49c-1.04,1.61-2.52,3.06-4.34,3.01c-2.32-0.06-1.82-2.73-1.93-3.95
		c-0.83-9.44-5.78-18.33-3.75-28.13c0.17-0.84,0-2.27-0.68-2c-3.41,1.34-4.93-2.64-7.95-2.47
		C288.72,429.03,285.85,425.33,282.42,422.83z"/>
	<path class="st66" d="M246.51,346.08c-1.68-0.8-3.35-1.6-5.03-2.39c-2.36-1.97-5.34-2.63-8.07-3.81c4.02-1.34,6.73,1.98,10.14,2.85
		C247.31,343.23,247.8,343.78,246.51,346.08z"/>
	<path class="st48" d="M249.42,391.85c5.25,1.62,8.43,6.09,12.41,9.37c5.03,4.14,9.43,9.05,14.11,13.62c0.85,0.83,1.51,1.74,1.49,3
		c-1-0.66-2-1.33-3.01-1.99C266.09,407.84,257.76,399.85,249.42,391.85z"/>
	<path class="st60" d="M305.44,397.82c-1.16,3.38,1.98,5.07,3.09,7.54c0.81,1.81,1.11,4.05-0.77,3.98
		c-7.17-0.26-9.92,5.93-14.49,9.31c-5.18,3.83-6.3,4.15-10.89-0.39c-4.59-4.55-9.09-9.17-13.27-14.13
		c-5.91-7-13.13-12.51-20.85-17.49c-7.15-4.61-7.82-10.51-4.29-17.95c3.07-6.48,6.3-13.17,5.51-20.79c0.52-3.19-0.43-5.68-3.41-7.24
		c-1.62-0.85-2.54-2.43-3.71-3.75c-0.31-0.01-0.61-0.02-0.92-0.05c-1.16-0.81-2.13-1.67-0.98-3.18c3.75,2.58,8.64,2.89,12.13,5.99
		c0.99,3.08,4.13,3.93,6.2,5.88c2.12,2,3.36,4,2.22,6.9c-0.15,0.39-0.97,0.85-0.57,1.08c6.15,3.57,11.21,8.67,17.3,12.31
		c3.03,1.36,5.76,3.06,7.12,6.3c0.91,2.77,3.12,4.27,5.5,5.6c6.64,5.42,12.11,11.74,15.26,19.85L305.44,397.82z"/>
	<path class="st48" d="M242.37,336.91c2.07,1.35,4.21,2.61,6.21,4.06c2.68,1.94,3.7,4.22,0.91,6.93c-0.99-0.61-1.98-1.22-2.97-1.82
		c0.86-2.75-2.12-2.11-2.97-3.35C243.15,340.78,242.76,338.84,242.37,336.91z"/>
	<path class="st48" d="M240.47,333.67c0.33,1.06,0.65,2.12,0.98,3.18c-2.38-0.19-3.99-1.96-5.83-3.11c-1.9-1.19-0.2-1.61,0.88-1.92
		C237.82,332.43,239.15,333.05,240.47,333.67z"/>
	<path class="st67" d="M284.49,372.78c-1.75-2.44-3.84-4.51-6.51-5.95c-5.91-4.57-12.26-8.6-17.52-13.99
		c1.23-5.43-3.71-6.79-6.39-9.62c-0.98-1.03-3.64-1.27-1.46-3.57c3.22,1.75,6.44,3.51,9.65,5.26c15.05,10.63,29.1,22.35,40.16,37.26
		c3.43,4.62,6.76,9.32,8.84,14.76c-1.72,1.63-3.72,0.74-5.63,0.64c-4.92-6.55-9.03-13.78-15.81-18.76
		C288.06,376.79,285.81,375.2,284.49,372.78z"/>
	<path class="st68" d="M260.45,352.85c6.14,4.28,12.17,8.71,17.52,13.99c-3.03,0.34-4.15-2.45-6.11-3.81
		c-4.75-3.3-9.37-6.78-14.08-10.21C258.9,351.31,259.61,352.9,260.45,352.85z"/>
	<path class="st69" d="M284.49,372.78c1.97,1.85,4.28,3.39,5.33,6.05C287.43,377.35,284.6,376.25,284.49,372.78z"/>
</g>
</svg>
