<?xml version="1.0" encoding="utf-8"?>
<!-- Generator: Adobe Illustrator 26.0.0, SVG Export Plug-In . SVG Version: 6.00 Build 0)  -->
<svg version="1.1" id="Layer_1" xmlns="http://www.w3.org/2000/svg" xmlns:xlink="http://www.w3.org/1999/xlink" x="0px" y="0px"
	 viewBox="0 0 1875.1 312" style="enable-background:new 0 0 1875.1 312;" xml:space="preserve">
<style type="text/css">
	.st0{fill:#40BDA7;}
	.st1{fill:#01453A;}
	.st2{fill:#03B499;}
	.st3{fill:#026A5A;}
	.st4{fill:#025C4D;}
	.st5{fill:#037663;}
	.st6{fill:#05A98E;}
	.st7{fill:#049D85;}
	.st8{fill:#02826E;}
	.st9{fill:#038F79;}
	.st10{fill:#088873;}
	.st11{fill:#00967F;}
	.st12{fill:#025144;}
	.st13{fill:#025346;}
</style>
<g>
	<path class="st0" d="M1874.52,311.64c-154.33,0-308.67,0-463,0c-1.79-2.58-0.29-4.8,0.92-6.89c10.47-17.96,26.03-29.42,45.22-35.77
		c20.3-6.72,40.51-5.25,60.1,2.93c10.37,4.33,20.48,9.5,27.72,18.81c1.94,2.49,4.78,3.8,7.65,6.55
		c-0.16-14.23,0.65-27.63-0.42-40.98c-0.62-7.64-0.41-15.24-0.52-22.85c-0.05-3.36-0.99-5.98-3.26-8.48
		c-3.75-4.13-7.51-8.27-11.19-12.46c-10.77-12.26-16.31-27.21-18.62-43.09c-3.92-26.91,3.32-50.82,21.16-71.23
		c2.91-3.33,4.99-7.37,8.5-10.2c1.23-0.99,1.34-2.64,1.2-4.15c-1.63-17.38-0.38-34.8-0.75-52.19c-0.18-8.28-1.6-16.51-0.96-24.81
		c0.19-2.52-0.44-5.53,3.07-6.46c105.93-0.01,211.85,0,317.77,0c6.71,0,5.89-0.46,5.89,6.26c0.01,99.88,0.01,199.75-0.01,299.63
		C1874.99,308.06,1875.44,309.92,1874.52,311.64z"/>
	<path class="st1" d="M205.17,311.64c-67.33,0-134.67-0.04-202,0.11c-3.65,0.01-4.19-0.93-4.19-4.39
		C-0.92,205.2-0.94,103.04-0.94,0.87C0.58-0.03,2.24,0.4,3.84,0.4C55,0.38,106.16,0.36,157.32,0.39c2.04,0.29,2.4,1.96,2.77,3.6
		c0.18,0.81,0.2,1.65,0.17,2.48c-0.65,17.75,1.36,35.44,1,53.18c-0.51,25.04,1.67,50.04,1,75.07c-0.02,0.65-0.05,1.33,0.32,1.95
		c0.49,0.4,0.87,0,1.14-0.34c10.58-13.48,24.19-22.55,40.17-27.74c16.83-5.47,33.87-5.75,50.87-0.45c5.68,1.77,7.95,4.77,8.04,10.95
		c0.17,11.94,0.29,23.89-0.01,35.83c-0.26,10.14,1.3,20.17,1.14,30.29c-0.05,3.4,1.47,6.43,2.89,9.41
		c8.7,18.22,9.82,37.2,5.46,56.72c-0.54,2.44-1.3,4.9-2.88,6.81c-7.99,9.61-13.57,21.08-22.24,30.14
		c-11.02,11.53-23.85,19.82-39.74,22.44C206.59,310.86,205.85,311.16,205.17,311.64z"/>
	<path class="st2" d="M1550.2,1.04c0.73,25.36,1.32,50.72,1.03,76.09c-0.02,1.47,0.14,2.99,0.5,4.42c1.02,4.09-0.48,6.54-3.28,9.87
		c-8.05,9.58-17.12,18.5-21.31,31.07c-4,11.99-7.73,23.85-7.24,36.76c0.45,11.98,3.99,23.03,8.35,34
		c3.18,8.01,7.74,14.84,13.71,20.88c3.68,3.73,7.01,7.82,10.56,11.69c1.2,1.31,1.63,2.78,1.63,4.52c0,23.21,1.65,46.4,0.96,69.62
		c-0.01,0.49-0.14,0.97-0.45,2.92c-3.11-6.12-8.48-8.22-12.28-12.45c-10.84-12.08-25.24-17.94-40.48-21.4
		c-26.6-6.05-50.66,0.3-71.79,17.52c-8.14,6.63-14.84,14.85-18.59,25.1c-32.89,0-65.77,0-98.66,0c-1.96-1.7-2.05-4.02-2.05-6.38
		c0.02-22.03-0.86-44.06-1.23-66.08c-0.38-23.19,0.06-46.41-1-69.56c-0.84-18.4,0.21-36.81-0.87-55.14
		c-1.2-20.22,0.09-40.45-1.06-60.61c-0.88-15.42-0.43-30.8-0.71-46.2c-0.04-2.43-0.37-5.06,1.84-6.92c1.73-0.69,3.54-0.35,5.32-0.36
		c77.3-0.02,154.61-0.02,231.91,0.02C1546.74,0.41,1548.6-0.23,1550.2,1.04z"/>
	<path class="st3" d="M636.91,311.64c-47.54,0-95.08,0-142.61,0c-1.96-1.7-1.86-4.04-2.08-6.37c-1.74-17.7-0.25-35.46-1.08-53.16
		c-1-21.54-0.03-43.11-1.1-64.6c-0.93-18.57,0.23-37.14-0.89-55.65c-1.2-19.89,0.15-39.8-1.03-59.62
		c-1.13-19.07-0.34-38.11-0.78-57.15c-0.06-2.49-0.18-4.95-0.63-7.41c-0.45-2.46-0.55-4.99,1.55-6.94c1.08-0.53,2.23-0.36,3.36-0.36
		c45.52-0.01,91.04-0.01,136.57,0c0.97,0,1.95-0.07,2.9,0.26c2.01,1.47,1.83,3.69,2.02,5.84c1.54,17.04,0.41,34.14,1.11,51.19
		c0.94,22.87,0.03,45.78,1.11,68.6c0.86,18.08-0.16,36.16,0.85,54.18c1.15,20.72-0.04,41.47,1.08,62.14
		c0.99,18.25,0.33,36.46,0.75,54.69c0.06,2.65-0.06,5.3,0.5,7.93C639.02,307.58,638.73,309.83,636.91,311.64z"/>
	<path class="st4" d="M488.43,1.04c1.9,20.52-0.05,41.14,1.19,61.63c1.14,18.75-0.28,37.5,0.93,56.17
		c1.28,19.74-0.24,39.49,1.01,59.15c1.2,18.91-0.28,37.83,0.95,56.67c1.28,19.74,0.13,39.46,0.97,59.16
		c0.25,5.93,0.85,11.87,0.83,17.83c-47.54,0-95.08,0-142.61,0c-1.96-1.7-2-4.02-2.06-6.37c-0.56-21.86-0.69-43.73-1.2-65.58
		c-0.51-21.7,0.06-43.43-1.01-65.08c-0.91-18.4,0.21-36.8-0.88-55.14c-1.2-20.22,0.11-40.45-1.06-60.61
		c-0.98-16.91-0.39-33.79-0.71-50.68c-0.05-2.58-0.51-5.4,1.83-7.42c1.57-0.68,3.22-0.37,4.82-0.37c44.1-0.02,88.2-0.02,132.31,0.01
		C485.3,0.41,487-0.18,488.43,1.04z"/>
	<path class="st5" d="M636.91,311.64c-1.93-19.86,0.08-39.81-1.17-59.64c-1.2-19.08,0.31-38.16-0.95-57.16
		c-1.31-19.74,0.28-39.49-0.99-59.15c-1.23-19.08,0.28-38.16-0.96-57.16c-1.28-19.57-0.11-39.13-0.95-58.66
		c-0.27-6.27-0.9-12.53-0.85-18.83c0.92-0.99,2.13-0.65,3.23-0.65c42.42-0.02,84.85-0.02,127.27-0.01c0.81,0,1.63,0,2.41,0.27
		c1.46,1.08,1.85,2.65,1.92,4.37c0.03,0.83,0.09,1.66,0.07,2.49c-0.54,31.01,0.92,62,1.27,93c0.23,20.87-0.18,41.8,0.94,62.63
		c0.94,17.42-0.09,34.83,0.85,52.19c1.16,21.38,0.33,42.77,1.07,64.13c0.29,8.6,0.77,17.2,0.76,25.81c0,2.36-0.09,4.68-2.05,6.38
		C724.83,311.64,680.87,311.64,636.91,311.64z"/>
	<path class="st6" d="M1307.97,1.04c-0.72,26.86,1.05,53.68,1.05,80.54c0,26.18,0.56,52.38,1.22,78.54
		c0.48,18.89-0.39,37.81,0.83,56.64c1.28,19.73-0.18,39.47,1.03,59.13c0.74,11.94,0.4,23.84,0.77,35.75c-41.68,0-83.35,0-125.03,0
		c-2.71-2.51-2.05-6.14-2.89-9.26c-0.25-0.94-0.14-1.98-0.12-2.98c0.64-30.51-0.76-61-1.21-91.49c-0.36-24.03,0.01-48.09-1.03-72.08
		c-0.81-18.74,0.25-37.49-0.89-56.16c-1.22-20.06-0.43-40.1-0.84-60.15c-0.09-4.3-1.29-8.52-0.93-12.87
		c0.18-2.14-0.05-4.37,1.86-5.92c1.24-0.58,2.56-0.36,3.85-0.36c39.38-0.01,78.75-0.02,118.13,0.02
		C1305.17,0.4,1306.71-0.12,1307.97,1.04z"/>
	<path class="st7" d="M1181.96,1.04c1.4,22.52,0.14,45.11,1.23,67.61c0.9,18.75-0.32,37.5,0.89,56.17
		c1.28,19.74-0.24,39.49,1.01,59.15c1.2,18.91-0.28,37.83,0.95,56.67c1.28,19.74,0.33,39.45,0.85,59.16
		c0.1,3.96,1.39,7.83,0.94,11.85c-34.19,0-68.38,0-102.56,0c-1.96-1.7-2.07-4.02-2.05-6.37c0.27-22.04-0.93-44.05-1.22-66.08
		c-0.32-24.18,0-48.39-1.02-72.54c-0.77-18.4,0.23-36.8-0.86-55.14c-1.22-20.55,0.08-41.11-1.06-61.6
		c-0.78-14.09-0.46-28.15-0.71-42.22c-0.04-2.43-0.37-5.06,1.82-6.93c1.23-0.62,2.56-0.38,3.84-0.38
		c31.25-0.01,62.49-0.02,93.74,0.02C1179.16,0.4,1180.7-0.12,1181.96,1.04z"/>
	<path class="st8" d="M768.78,311.64c-0.22-27.18-0.66-54.37-1.29-81.53c-0.44-18.89,0.4-37.81-0.82-56.64
		c-1.28-19.73,0.27-39.48-1.01-59.13c-1.22-18.74,0.28-37.49-0.94-56.15c-1.25-19.07-0.39-38.11-0.83-57.15
		c0.92-0.99,2.13-0.65,3.22-0.65c28.11-0.02,56.22-0.02,84.32-0.01c0.81,0,1.63,0,2.41,0.28c1.45,1.09,1.83,2.66,1.9,4.38
		c0.03,0.83,0.09,1.66,0.07,2.49c-0.58,31.67,0.92,63.32,1.27,94.98c0.23,20.87-0.18,41.79,0.95,62.63
		c0.93,17.25-0.07,34.49,0.84,51.69c1.14,21.54,0.41,43.1,1.06,64.63c0.24,7.93,0.83,15.87,0.77,23.82
		c-0.02,2.36-0.09,4.68-2.05,6.38C828.69,311.64,798.74,311.64,768.78,311.64z"/>
	<path class="st9" d="M1012.01,311.64c-26.37,0-52.75,0-79.12,0c-1.96-1.7-1.92-4.03-2.07-6.37c-1.35-20.85-0.3-41.75-1.16-62.59
		c-0.86-20.71,0.1-41.44-1.02-62.09c-1-18.4,0.19-36.8-0.9-55.14c-1.2-20.21,0.12-40.45-1.04-60.6c-1.09-18.9-0.38-37.76-0.73-56.64
		c-0.05-2.58-0.51-5.39,1.81-7.44c0.64-0.09-0.19-0.16,0.46-0.17c26.32-0.35,52.65-0.46,78.97,0.05c1.98,1.5,1.98,3.71,1.94,5.87
		c-0.28,18.07,1.36,36.09,1.12,54.17c-0.35,27.02,0.69,54.04,1.21,81.04c0.36,18.72-0.32,37.48,0.81,56.16
		c1.2,19.9-0.15,39.81,1.03,59.65c0.93,15.59,0.42,31.15,0.73,46.72C1014.11,306.91,1014.3,309.65,1012.01,311.64z"/>
	<path class="st10" d="M927.99,1.04c0,0.83,0.02,1.66,0,2.49c-0.68,36.48,0.83,72.94,1.3,109.41c0.25,19.21-0.43,38.48,0.83,57.63
		c1.27,19.4-0.28,38.81,0.98,58.14c1.27,19.4-0.01,38.79,0.96,58.14c0.41,8.27,0.77,16.52,0.82,24.8c-24.75,0-49.49,0-74.24,0
		c-0.32-26.51-0.6-53.04-1.29-79.53c-0.49-19.06,0.43-38.15-0.83-57.14c-1.28-19.4,0.26-38.81-0.99-58.14
		c-1.26-19.4,0.3-38.82-0.98-58.14c-1.28-19.24-0.29-38.44-0.8-57.65c0.92-0.99,2.13-0.65,3.23-0.65c22.6-0.02,45.19-0.02,67.79,0
		C925.87,0.39,927.07,0.05,927.99,1.04z"/>
	<path class="st11" d="M1012.01,311.64c0-6.97,0.01-13.94,0-20.91c-0.05-27.18-0.71-54.36-1.29-81.53
		c-0.41-18.89,0.41-37.81-0.82-56.64c-1.28-19.73,0.26-39.48-1-59.13c-1.22-18.91,0.11-37.8-0.94-56.65
		c-0.67-11.93-0.72-23.83-0.83-35.75c0.92-0.99,2.13-0.65,3.22-0.65c22.27-0.02,44.54-0.02,66.81,0c1.1,0,2.3-0.34,3.22,0.65
		c-0.73,25.86,1.13,51.69,1.06,77.55c-0.06,26.18,0.54,52.38,1.2,78.54c0.48,18.89-0.39,37.81,0.83,56.64
		c1.28,19.73-0.21,39.47,1.03,59.13c0.82,12.94,0.37,25.83,0.77,38.74C1060.85,311.64,1036.43,311.64,1012.01,311.64z"/>
	<path class="st12" d="M205.17,311.64c3.27-3.27,7.86-3.71,11.82-5.28c19.04-7.6,32.75-20.96,42.59-38.89
		c0.47-0.86,0.93-1.82,1.64-2.44c9.46-8.39,11.03-19.63,11.41-31.5c0.46-14.23-2.18-27.64-8.74-40.25c-1.3-2.49-1.94-5.2-2.1-8.09
		c-1.23-21.52-0.91-43.06-0.94-64.6c-0.01-8.1-1.41-9.17-9.22-11.23c-21.08-5.54-41.34-3.35-60.44,6.91
		c-10.75,5.77-20.9,12.8-27.51,23.81c-0.58,0.96-1.38,1.78-2.04,2.62c-1.96-0.79-1.39-2.34-1.36-3.51
		c0.69-26.19-1.41-52.34-1.04-78.53c0.28-19.88-1.65-39.73-0.96-59.62c1.43-1.22,3.13-0.63,4.69-0.63
		c36.24-0.03,72.47-0.05,108.7-0.01c3.11,0.98,2.8,3.71,2.87,6.12c0.65,22.01,1.2,44.02,1.11,66.06
		c-0.05,11.74,1.28,23.46,0.94,35.23c-0.11,3.64,1.76,6.08,4.56,8.24c19.08,14.71,31.63,33.76,34.88,58.15
		c3.02,22.66-1.5,43.83-14.88,62.63c-1.38,1.15-2.69,2.37-3.74,3.87c-3.96,5.66-8.2,11.01-14.06,14.86
		c-2.92,1.91-3.96,4.92-3.93,8.55c0.09,13.39,0.06,26.78,0.03,40.17c-0.01,2.64,0.23,5.35-1.99,7.38
		C253.36,311.64,229.26,311.64,205.17,311.64z"/>
	<path class="st13" d="M299.92,235.94c5.07-9.08,10.41-18.16,12.53-28.47c5.55-27,1.65-51.94-16.33-73.68
		c-5.14-6.22-10.22-12.35-17.11-16.67c-3.13-1.96-4.49-4.93-4.53-8.79c-0.23-25.52-1.05-51.02-1.15-76.54
		c-0.04-10.22-0.72-20.5-0.77-30.76c0.92-0.99,2.13-0.65,3.23-0.65c22.59-0.02,45.19-0.02,67.78,0c1.1,0,2.3-0.34,3.23,0.65
		c-0.7,28.52,0.97,57.01,1.03,85.52c0.06,26.18,0.57,52.38,1.23,78.54c0.48,18.89-0.39,37.81,0.83,56.64
		c1.28,19.73-0.12,39.47,1.02,59.13c0.6,10.28,0.49,20.52,0.77,30.77c-18.23,0-36.47,0-54.7,0c-2.11-1.85-2.03-4.38-2.04-6.88
		c-0.04-13.6,0-27.2-0.03-40.8c-0.01-3.97,0.12-7.94-0.76-11.88C292.71,245.51,296.14,240.64,299.92,235.94z"/>
	<path class="st13" d="M299.92,235.94c-4.64,6.73-3.39,14.12-3.13,21.75c0.61,17.97,0.2,35.97,0.2,53.95c-6.51,0-13.02,0-19.54,0
		c0-16.22,0.09-32.44-0.07-48.65c-0.03-3.48,0.83-6.26,3.58-8.15c6.67-4.58,11.93-10.54,16.71-17.03
		C298.23,237.04,299.16,236.56,299.92,235.94z"/>
</g>
</svg>
