<?xml version="1.0" encoding="utf-8"?>
<!-- Generator: Adobe Illustrator 26.0.0, SVG Export Plug-In . SVG Version: 6.00 Build 0)  -->
<svg version="1.1" id="Layer_1" xmlns="http://www.w3.org/2000/svg" xmlns:xlink="http://www.w3.org/1999/xlink" x="0px" y="0px"
	 viewBox="0 0 1439.84 1022.79" style="enable-background:new 0 0 1439.84 1022.79;" xml:space="preserve">
<style type="text/css">
	.st0{fill:#FCFCFC;}
	.st1{fill:#007461;}
	.st2{fill:#006555;}
	.st3{fill:#005D4D;}
	.st4{fill:#005548;}
	.st5{fill:#00A289;}
	.st6{fill:#00B297;}
	.st7{fill:#00CAAC;}
	.st8{fill:#00907A;}
	.st9{fill:#00B296;}
	.st10{fill:#008470;}
	.st11{fill:#008571;}
</style>
<g>
	<path class="st0" d="M0,267.91C0,178.61,0.02,89.3-0.09,0c0-3.36,0.57-4.13,4.06-4.13c477.22,0.1,954.44,0.1,1431.66-0.01
		c3.75,0,4.28,0.95,4.28,4.41c-0.09,338.39-0.09,676.78,0,1015.17c0,3.43-0.49,4.42-4.27,4.42
		c-477.22-0.11-954.44-0.11-1431.66-0.01c-3.47,0-4.08-0.74-4.07-4.12C0.03,954.09,0,892.44,0,830.79c5.08-0.48,8,4.13,12.39,5.27
		c12.47,7.38,25.69,13.22,38.98,18.93c9.16,4.17,18.52,7.84,28.06,11.05c22.84,8.55,46.36,14.68,70.15,19.86
		c24.86,4.79,49.83,8.7,75.2,9.45c1.17,0.03,2.33,0.15,3.47,0.39c5.41,1.34,10.88,0.35,16.32,0.46c15.56,0.3,31.1-0.16,46.58-1.79
		c22.88-1.51,45.41-5.25,67.62-10.94c6.42-1.64,12.8-3.45,19.23-5.03c16.61-4.41,32.62-10.51,48.35-17.34
		c33.4-14.5,64.14-33.37,91.24-57.67c50.52-45.3,82.65-100.87,91.76-168.73c6.84-50.95-1.49-99.82-21.48-146.88
		c-6.91-16.26-14.99-31.95-24.5-46.86c-10.1-15.83-20.99-31.09-33.38-45.22c-7.54-8.6-14.92-17.37-23.72-24.78
		c-9.98-9.31-19.89-18.7-30.62-27.16c-1.05-0.83-2.12-1.61-3.22-2.36c-19.7-16.58-41.26-30.39-63.78-42.75
		c-3.05-1.67-5.9-3.79-9.31-4.78c-19.86-9.82-39.77-19.5-60.76-26.74c-2.04-0.7-4.04-1.55-6.13-2.13
		c-8.28-2.89-16.64-5.53-25.14-7.74c-12.94-3.01-25.72-6.66-38.75-9.26c-1.46-0.29-2.9-0.71-4.4-0.81
		c-19.8-3.65-39.62-7.4-59.75-8.46c-11.11-0.59-22.2-2.15-33.38-1.34c-2.71,0.1-5.42,0.06-8.13,0.01
		c-5.98,0.08-11.99-0.71-17.93,0.59c-11.25,0.65-22.5,1.31-33.67,2.9c-18.14,2.32-36.15,5.35-53.89,9.88
		c-17.23,3.99-33.94,9.61-50.43,15.95C4.82,267.57,2.66,269.48,0,267.91z"/>
	<path class="st1" d="M171,236.09c31.7-0.33,62.98,3.36,93.97,9.85c3.26,2.04,1.72,4.75,0.73,7.07
		c-4.86,11.33-9.55,22.72-14.39,34.05c-22.36,52.38-44.55,104.83-66.87,157.22c-26.43,62.05-52.69,124.16-79.21,186.17
		c-3.47,8.11-6.77,16.3-10.38,24.35c-1.49,3.32-1.16,5.94,1.14,8.71c4.15,4.99,8.27,10.01,11.51,15.69
		c3.59,6.29,6.17,12.95,7.37,20.06c0.95,5.63,0.74,11.19-1.65,16.64c-6.76,15.4-13.08,30.99-19.84,46.39
		c-1.73,3.94-4.34,6.97-7.85,9.45c-11.56,8.16-24.62,11.7-38.49,12.23c-5.34,0.21-8.21,2.34-10.13,7.05
		c-5.61,13.72-11.35,27.38-17.39,40.92c-1.46,3.28-3.17,6.51-7.8,4.95c-3.9-2.04-7.8-4.07-11.7-6.11c0-26.99,0-53.99,0-80.98
		c4.62-7.75,7.61-16.26,11.11-24.51c9.12-21.45,18.34-42.86,27.35-64.36c0.56-1.34,1.81-2.79,0.87-4.19
		c-1.15-1.72-3.09-0.74-4.63-0.49c-8.36,1.32-15.86,4.84-23.14,9.01c-2.49,1.43-5.54,4.56-8,2.43c-2.52-2.18,0.3-5.58,1.41-8.18
		c21.42-50.06,42.59-100.23,63.91-150.33c22.3-52.4,44.57-104.82,66.85-157.22c15.25-35.86,30.55-71.69,45.66-107.61
		c2.47-5.88,2.37-5.91-3.99-6.18C175.18,238.07,172.31,239.29,171,236.09z"/>
	<path class="st2" d="M171,236.09c3.31,1.68,6.85,0.73,10.27,0.78c3.75,0.06,4.27,1.48,2.91,4.65
		c-6.75,15.71-13.41,31.46-20.12,47.18c-8.93,20.92-17.9,41.82-26.8,62.75c-9.09,21.38-18.09,42.81-27.19,64.19
		c-8.83,20.78-17.76,41.51-26.6,62.29c-9.22,21.69-18.37,43.41-27.58,65.11c-16.93,39.88-33.88,79.75-50.83,119.62
		c-0.64,1.49-1.48,2.92-1.23,4.98c6.84-2.47,12.41-7.14,19.18-9.46c4.57-1.57,9.06-3.08,13.91-3.54c4.76-0.45,5.58,0.26,3.78,4.57
		c-3.96,9.5-8.07,18.94-12.11,28.41C20.4,706.86,12.19,726.1,4,745.35c-0.84,1.97-1.2,4.29-4,4.47c0-69.99,0-139.97,0-209.96
		c2.84-3.01,7-2.85,10.5-4.24c3.88-1.54,6.33-3.95,7.9-7.72c10.94-26.28,22.12-52.45,33.41-78.58c1.5-3.47,1.56-6.66-0.08-10.06
		c-2.4-4.97-5.09-9.77-8.71-13.93c-3.37-3.88-3.74-7.77-1.58-12.42c3.02-6.48,5.74-13.11,8.48-19.73c1.68-4.06,4.38-6.28,8.97-6.74
		c5.79-0.58,11.47-1.88,16.97-3.99c3.52-1.35,5.87-3.56,7.32-6.99c11.25-26.51,22.41-53.05,33.8-79.51c1.34-3.12,1.4-6.08-0.06-9.14
		c-2.44-5.12-4.94-10.22-8.8-14.44c-3.48-3.8-3.91-7.75-1.66-12.37c2.11-4.33,3.72-8.92,5.8-13.26c1.4-2.92,1-5.05-1.51-6.93
		c11.24-2.06,22.57-3,33.99-2.97c6.04-1.12,12.19,0.29,18.24-0.74C165.64,236.09,168.32,236.09,171,236.09z"/>
	<path class="st3" d="M110.73,239.8c4.5-0.18,5.1,1.99,3.48,5.63c-2.43,5.46-4.68,11-7.24,16.4c-1.57,3.32-1.06,6.1,1.22,8.74
		c1.4,1.63,3.03,3.01,4.14,4.95c8.69,15.16,8.58,15.08-0.16,35.07c-9.11,20.83-18.4,41.61-26.59,62.81
		c-3.02,7.83-8.44,10.69-15.29,12.31c-4.3,1.02-8.64,2.31-13.19,2.24c-2.41-0.04-3.99,1.38-4.94,3.56
		c-3.58,8.22-7.22,16.41-10.74,24.66c-1.18,2.77-0.06,5.18,1.72,7.36c1.36,1.67,2.65,3.39,4.01,5.07
		c7.51,9.29,8.07,18.26,2.58,29.59c-10.85,22.37-20.27,45.48-29.34,68.65c-3.1,7.9-8.83,10.04-15.56,12
		c-1.58,0.46-3.23,0.7-4.84,1.04c0-34.33,0-68.65,0-102.98c3.78-6.06,5.96-12.85,8.88-19.31c1.47-3.25,0.55-4.86-2.54-6.05
		c-2.13-0.82-4.57-0.94-6.34-2.63c0-7,0-14,0-21c2.64-6.28,5.55-12.44,8.14-18.75c2.62-6.37,3.84-6.71,10-3.17
		c1.88,1.08,3.79,2.08,5.73,3.06c3.48,1.76,5.4,0.76,6.89-2.83c4.48-10.76,9.01-21.5,13.63-32.2c9.57-22.17,18.72-44.51,28.39-66.64
		c2.98-6.83,2.71-7.4-4.53-9.82c-1.74-0.58-3.49-1.13-5.27-1.54c-3.38-0.79-5.74-2.57-6.25-6.22
		C74.4,244.71,92.42,241.49,110.73,239.8z"/>
	<path class="st4" d="M56.72,249.77c3.24,5.49,9.31,5.39,14.38,7.29c5.97,2.24,6.3,2.58,3.85,8.4
		c-9.01,21.39-18.16,42.72-27.25,64.07c-5.26,12.35-10.57,24.69-15.72,37.09c-2.41,5.8-2.61,6.09-8.15,3.68
		c-2.72-1.18-5.57-2.35-7.85-4.17c-3.38-2.67-4.74-1.32-6.09,1.93c-2.43,5.81-5.08,11.53-7.63,17.3c-0.48,1.1-1.09,2.06-2.25,2.54
		c0-39.99,0-79.98,0-119.97c17.31-6.72,34.78-12.92,52.81-17.47C54.09,250.12,55.41,249.99,56.72,249.77z"/>
	<path class="st4" d="M0,408.88c0.83,0.02,1.67-0.08,2.47,0.08c8.46,1.68,9.75,3.59,6.47,11.28c-2.46,5.78-3.23,12.56-8.94,16.63
		C0,427.55,0,418.21,0,408.88z"/>
	<path class="st5" d="M227.59,896.89c-18.99,0-37.73-2.68-56.43-5.61c-7.49-1.18-15.07-1.99-22.31-4.43
		c12.56-24.45,21.94-50.31,33-75.42c4.61-10.48,9.98-20.72,10.83-32.53c0.81-11.19,3.28-22.05,7.44-32.51
		c4.73-11.87,11.2-22.72,19.52-32.39c5.17-6.01,9.13-12.59,12.21-19.89c23.05-54.64,46.29-109.19,69.6-163.72
		c1.87-4.38,1.36-7.53-1.62-10.85c-5-5.59-9.83-11.31-13.83-17.69c-1.6-2.55-3.02-5.17-4.44-7.82c-3.45-6.46-3.69-12.85-0.69-19.65
		c10.34-23.47,20.16-47.18,30.23-70.77c5.29-12.41,10.8-24.74,15.75-37.28c2.62-6.64,6.96-10.52,13.7-12.58
		c10.28-3.14,20.78-4.75,31.46-5.06c4.6-0.13,7.34-1.65,9.17-5.99c5.75-13.66,11.4-27.37,17.43-40.92c1.3-2.91-0.17-5.99,1.33-8.71
		c11.91,5,22.61,12.17,33.64,18.75c12.96,7.73,24.76,17.09,36.89,25.98c1.02,0.75,1.68,1.98,2.51,2.99
		c2.66,2.37,3.34,4.93,1.82,8.44c-6.89,15.89-13.46,31.93-20.44,47.78c-3,6.8-5.28,7.13-10.1,1.32c-3.52-4.25-7.24-8.29-11.38-11.9
		c-3.6-3.13-5.07-2.75-6.95,1.69c-14.62,34.51-29.34,68.98-43.99,103.47c-5.34,12.57-10.74,25.12-16.1,37.68
		c-2.65,6.21-2.41,6.42,4.04,7.6c4.84,0.89,9.61,0.54,14.42,0.01c8.69-0.96,10.24,0.98,6.86,8.95
		c-12.74,30.06-25.54,60.09-38.3,90.14c-6.9,16.25-14,32.42-20.67,48.77c-2.87,7.04-4.75,8.3-12.15,7.07
		c-5.65-0.93-11.31-0.38-16.95-0.7c-4.3-0.25-6.62,1.62-8.31,5.55c-9.53,22.19-18.86,44.47-28.36,66.68
		c-11.07,25.88-21.96,51.84-33.07,77.71c-3.16,7.35-2.86,8.75,2.77,14.55c3.5,3.6,7.54,6.55,11.39,9.73
		c4.93,4.07,5.3,5.78,2.87,11.6c-1.61,3.84-3.33,7.63-4.86,11.51c-2.49,6.34-4.82,9.69-12.98,8.85
		C230.9,897.11,229.2,897.53,227.59,896.89z"/>
	<path class="st6" d="M506.94,370.03c8.87,7,15.96,15.74,23.36,24.14c12.52,14.22,23.8,29.39,33.65,45.58
		c0.99,4.03,0.3,7.86-1.3,11.62c-37.25,87.49-74.44,175.01-111.67,262.52c-22.1,51.95-44.17,103.91-66.23,155.88
		c-1.5,3.53-3.06,7.04-5.83,9.82c-16.45,4.74-33,9.08-49.93,11.71c-12.28,1.91-24.53,4.2-37.02,4.39c-1.58-3.16,0.91-5.36,2.03-7.77
		c4.63-9.98,4.51-10.3-6.26-10.87c-3.01-0.16-5.96-0.74-8.84-1.55c-5.3-1.5-6.54-3.79-4.43-8.84c5.06-12.14,10.18-24.26,15.34-36.36
		c16.66-39.06,33.3-78.12,49.85-117.23c0.52-1.23,0.97-2.49,1.63-3.65c2.1-3.66,3.97-4.29,7.83-2.37c3.91,1.95,7.11,4.89,10.34,7.78
		c5.19,4.64,6.42,4.41,9.08-1.95c15.16-36.25,30.64-72.36,46.02-108.51c13.3-31.25,26.61-62.5,39.9-93.74
		c15.12-35.54,30.3-71.05,45.26-106.66c2.9-6.9,6.01-13.72,8.77-20.69c1.3-3.29,1.57-5.93-0.8-8.75
		C506.67,373.34,505.67,371.79,506.94,370.03z"/>
	<path class="st7" d="M378.92,879.61c3.1-7.12,6.23-14.21,9.28-21.35c9.91-23.21,19.79-46.43,29.67-69.65
		c9.17-21.54,18.33-43.08,27.48-64.62c8.89-20.93,17.74-41.88,26.63-62.81c9.86-23.23,19.75-46.44,29.63-69.66
		c10.14-23.83,20.28-47.66,30.41-71.49c9.74-22.92,19.36-45.89,29.32-68.71c1.67-3.82,1.08-7.86,2.61-11.55
		c17.53,26.77,30.3,55.7,38.91,86.47c8.02,28.67,11.64,57.97,9.9,87.65c-3.24,55.39-21.67,105.37-55.76,149.32
		c-38.83,50.06-89.39,83.92-148.05,106.45C399.1,873.44,389.19,877.08,378.92,879.61z"/>
	<path class="st8" d="M399.94,293.06c2.89,5.69-0.75,10.32-2.7,15.06c-5.13,12.43-10.77,24.65-15.79,37.12
		c-1.6,3.96-4.18,4.58-7.73,4.67c-11.64,0.3-23.04,1.96-34.2,5.55c-5.38,1.73-8.71,4.82-10.87,9.97
		c-15.73,37.33-31.57,74.6-47.44,111.87c-3.61,8.48,0.84,15.14,4.69,21.9c4.54,7.97,10.82,14.66,16.65,21.66
		c2.19,2.63,2.4,4.83,0.99,8.09c-10.03,23.15-19.76,46.43-29.64,69.65c-9.1,21.39-18.24,42.75-27.38,64.13
		c-5.09,11.91-10.55,23.67-15.17,35.76c-2.95,7.73-8.45,13.44-13.34,19.64c-14.41,18.27-22.43,38.91-24.07,62.1
		c-0.71,9.97-5.27,18.76-9.06,27.76c-10,23.7-20.06,47.39-30.11,71.07c-1.31,3.08-2.68,6.13-5.91,7.77
		c-15.68-2.4-30.84-6.93-45.98-11.46c-8.18-2.44-16.45-4.76-24.22-8.42c14.56-33.06,28.43-66.42,42.58-99.66
		c18.2-42.75,36.35-85.53,54.52-128.29c21.5-50.58,42.98-101.16,64.49-151.73c7.5-17.62,15.19-35.17,22.4-52.91
		c1.63-4.01,2.84-8.19,4-12.35c3.41-12.32,9.37-23.47,15.37-34.62c6.72-12.49,11.55-25.83,17.15-38.82
		c10.69-24.77,21.12-49.66,31.74-74.46c1.39-3.24,2.5-6.49,2.06-10.08c15.38,4.99,30.35,10.93,44.9,18.03
		C385.25,285.68,392.63,289.3,399.94,293.06z"/>
	<path class="st9" d="M506.94,370.03c0.06,0.33-0.01,0.78,0.18,0.96c6.32,5.95,3.19,12.16,0.53,18.35
		c-10.51,24.39-21.09,48.76-31.53,73.18c-7.44,17.4-14.67,34.88-22.05,52.3c-8.42,19.87-16.93,39.69-25.37,59.55
		c-8.57,20.16-17.07,40.36-25.64,60.52c-8.51,20.01-17.11,39.98-25.62,59.99c-2.98,7.02-5.8,14.12-8.68,21.19
		c-1.88,4.61-3.04,5.07-7.15,2.04c-3.73-2.75-7.08-6.01-10.81-8.75c-5.24-3.85-6.97-3.17-9.51,2.83
		c-13.76,32.57-27.57,65.11-41.36,97.67c-8.22,19.41-16.35,38.86-24.72,58.2c-1.5,3.46-0.48,4.91,2.69,5.84
		c4.65,1.36,9.37,1.85,14.22,1.96c7.01,0.16,7.6,1.21,5.08,7.48c-1.66,4.15-3.49,8.24-5.24,12.35c-14.64,2.08-29.37,2.25-44.11,2.03
		c-6.75-0.1-13.57,0.86-20.26-0.85c4.89-0.59,10.69,1.58,14.11-3.7c2.04-3.15,3.32-6.82,4.71-10.35c5.77-14.62,7.94-9.96-5.38-21.06
		c-3.18-2.65-6.19-5.55-9.03-8.57c-2.3-2.44-2.95-5.27-1.48-8.68c6.37-14.78,12.54-29.66,18.82-44.48
		c9.85-23.23,19.73-46.44,29.6-69.66c5.19-12.22,10.4-24.44,15.58-36.66c1.17-2.77,3.07-4.13,6.2-3.93
		c6.78,0.44,13.6-0.66,20.37,0.94c4.88,1.15,7.79-0.83,9.82-5.78c9.72-23.64,19.84-47.11,29.81-70.65
		c10.16-24,20.29-48.01,30.49-71.99c1.44-3.38,0.39-4.8-3.12-4.44c-7.07,0.74-14.08,1.41-21.21,0.07c-4.75-0.9-5.43-1.42-3.51-5.95
		c12.18-28.73,24.4-57.44,36.59-86.17c8.23-19.41,16.42-38.83,24.66-58.23c2.71-6.39,4.51-6.71,9.79-1.73
		c4.59,4.34,8.86,8.98,12.9,13.85c1.89,2.28,3.32,2.86,4.83-0.77c7.15-17.16,14.44-34.27,22.03-51.24c1.38-3.09-1.32-4.56-1.19-6.92
		c3.45,0.88,5.74,3.63,8.21,5.75C490,354.1,498.39,362.16,506.94,370.03z"/>
	<path class="st10" d="M11.7,836.9c3.07,0.08,5.04-1.58,6.16-4.21c5.74-13.44,11.55-26.85,17.07-40.37c3.67-9,3.72-8.97,13.28-9.58
		c14-0.9,27.06-4.84,38.49-13.34c3.52-2.62,5.01-6.51,6.64-10.33c6.2-14.51,12.29-29.06,18.62-43.51
		c3.85-8.79,1.85-17.21-0.96-25.65c-3.27-9.81-9.4-17.88-16.07-25.53c-2.77-3.18-3.17-5.85-1.42-9.85
		c10.01-22.99,19.67-46.13,29.48-69.2c9.09-21.4,18.23-42.77,27.33-64.17c8.9-20.93,17.77-41.88,26.67-62.82
		c9.87-23.23,19.74-46.46,29.61-69.69c9.16-21.55,18.31-43.1,27.47-64.64c9.89-23.22,19.81-46.43,29.66-69.67
		c1.12-2.64,3.24-5.25,1.23-8.4c13.58,2.37,26.99,5.46,40.16,9.54c0.92,0.28,1.89,0.41,2.83,0.61c1.48,2.68-0.39,4.85-1.31,7
		c-13.52,31.71-26.94,63.46-40.44,95.18c-21.32,50.11-42.6,100.24-63.92,150.35c-25.29,59.46-50.4,118.99-75.95,178.35
		c-3.19,7.41-5.17,14.8-5.23,23.08c-0.17,23.12-7.63,43.61-25.39,59.18c-7.99,7.01-11.15,16.39-15.06,25.49
		c-8.02,18.67-15.82,37.43-23.92,56.06c-1.09,2.51-1.64,6.2-6.01,5.11C37.21,850.62,24.19,844.31,11.7,836.9z"/>
	<path class="st11" d="M50.74,855.89c3.48-0.26,3.93-3.33,4.91-5.64c10.11-23.66,20.15-47.35,30.14-71.07
		c1.9-4.51,5.61-7.44,8.98-10.56c10.64-9.86,17.84-21.72,22.07-35.55c2.36-7.72,2.96-15.72,2.91-23.56
		c-0.06-8.12,2.06-15.3,5.14-22.53c12.2-28.55,24.26-57.15,36.44-85.71c12.89-30.24,25.89-60.44,38.76-90.69
		c12.8-30.09,25.46-60.25,38.26-90.34c12.8-30.1,25.77-60.13,38.55-90.24c10.44-24.6,20.71-49.27,31.06-73.9
		c8.49,2.15,16.85,4.73,25.01,7.95c1.7,1.88,2.05,3.63,0.92,6.25c-15.11,35.25-30.11,70.55-44.99,105.89
		c-2.27,5.39-5.04,10.46-7.83,15.56c-6.25,11.4-11.33,23.29-14.89,35.82c-3.41,12.02-9.07,23.15-13.89,34.61
		c-8.69,20.66-17.48,41.28-26.25,61.91c-9.15,21.54-18.33,43.08-27.49,64.62c-8.84,20.78-17.66,41.56-26.5,62.34
		c-9.16,21.54-18.34,43.08-27.49,64.62c-8.89,20.94-17.74,41.89-26.63,62.82c-9.86,23.23-19.75,46.45-29.64,69.66
		c-2.08,4.89-4.17,9.78-6.33,14.63c-0.73,1.65-1.35,3.47-3.31,4.18C69.04,864.06,59.74,860.35,50.74,855.89z"/>
	<path class="st1" d="M162.96,236.09c-6.02,1.71-12.16,0.56-18.24,0.74C150.77,235.61,156.87,235.89,162.96,236.09z"/>
	<path class="st6" d="M428.51,507.44c8.24-19.36,16.49-38.73,25.16-59.09C459.02,466.46,443.66,500.73,428.51,507.44z"/>
	<path class="st6" d="M417.43,517.94c11.9-27.91,23.52-55.16,35.52-83.3c1.57,3.15,0.93,5.27,0.09,7.3
		c-5.36,13.03-10.73,26.06-16.17,39.06c-4.23,10.09-8.52,20.16-12.92,30.18C422.74,513.93,421.7,517.06,417.43,517.94z"/>
</g>
</svg>
