<svg id="Layer_1" data-name="Layer 1" xmlns="http://www.w3.org/2000/svg" viewBox="0 0 1440 1024"><defs><style>.cls-1{fill:#fcfcfc;}.cls-2{fill:#00b89c;}.cls-3{fill:#00a48a;}.cls-4{fill:#005e4e;}.cls-5{fill:#00d1b1;}.cls-6{fill:#008b75;}.cls-7{fill:#00463b;}.cls-8{fill:#007461;}.cls-9{fill:#008873;}</style></defs><path class="cls-1" d="M861.91,302.43q0,173.19.09,346.38c0,3.66-.66,4.66-4.53,4.65q-715.56-.15-1431.1,0c-3.55,0-4.37-.65-4.37-4.31q.16-507.58,0-1015.17c0-3.92,1.07-4.51,4.68-4.51q244.68.15,489.36.09c1.53,1.64,1.31,3.7,1.31,5.67a312.75,312.75,0,0,0,5,54.56c7.32,40.7,22.36,78,49.5,109.69a178.9,178.9,0,0,0,53.11,42.46c7.81,4.1,15.61,8.24,24.06,11,23,8.91,46.81,14,71.31,16.21,14.09,1.29,28.17,2.07,42.33,2,13.49-.12,26.83-2.17,40.28-2.75,2.82-.12,5.64-.35,8.46-.23,23.83.33,47.38,2.62,70.23,9.88C300-116.2,317-107.87,331.4-94.72c19.09,16.86,30.3,38.21,35.77,62.83,1.3,5.83,2.11,11.74,3.07,17.63,3.05,31.24-1.52,61.75-8.9,92a13.83,13.83,0,0,0,.54,9.26,121,121,0,0,0,34.64,45.78c18.11,15.14,39.27,22.62,62.47,25.33,25,2.93,49.06-1.48,72.89-8.29,2.88-.82,5.73-1.76,8.65-2.46,8.1-2.05,15.7-5.52,23.5-8.41a148.48,148.48,0,0,1,52.77-9.69c22.55.15,43.06,6.93,59.76,22.68,11.87,11.18,19.35,25.3,24.93,40.47.81,2.19,1.47,4.43,2.26,6.62A224.75,224.75,0,0,0,723,231.62c10.61,15.38,22.32,29.86,36.07,42.56,14.68,13.57,30.85,24.81,50.45,30.22a77.6,77.6,0,0,0,44.75-.57C856.72,303.05,859.09,301.4,861.91,302.43Z" transform="translate(578 370.54)"/><path class="cls-2" d="M702.75,199.64c-4.7-12.76-9.66-25.41-18-36.35-12.83-16.87-29.69-27.21-50.62-30.84-27.11-4.71-52.71,1-77.78,10.92-5,2-9.89,4.48-15.41,4.94-1.82-2.33-.37-4.51.5-6.55Q568.83,77.41,596.17,13c5.74-13.48,11.39-27,17.28-40.42,1.47-3.34.54-4.32-2.75-3.68-6.11,1.2-12.28,1-18.43.76-7.86-.34-9.67-3.43-6.61-10.62q20.6-48.51,41.22-97c3.08-7.18,5.3-7.83,11.43-3.15,5,3.78,8.62,8.75,12.41,13.62,3,3.83,3.54,3.71,5.44-.69,7.7-17.9,14.93-36,23-53.72,2.48-5.43,1.72-9.44-2.39-13.39-5.29-5.09-10.29-10.41-13.29-17.31a13.67,13.67,0,0,1-.14-11.56c10.84-24.88,22.06-49.64,31.59-75,4.81-12.83,13.77-15.91,25.35-16.59a71.55,71.55,0,0,1,9.49,0c4.55.32,7-1.82,8.66-5.87,5.87-14,11.73-27.94,17.7-41.87,1.05-2.43,1.87-5,3.78-7,32.83,0,65.66.05,98.49-.08,3,0,3.59.6,3.58,3.58q-.15,99.22-.08,198.46C827.46-87.77,793.31-6.93,758.85,73.79c-17.2,40.28-34.17,80.67-51.45,120.91C706.49,196.82,706.24,199.83,702.75,199.64Z" transform="translate(578 370.54)"/><path class="cls-3" d="M759.92-370.45c-1.22,6.44-4.69,12-7.07,18-4.16,10.5-8.83,20.79-13.05,31.25-1.88,4.66-4.35,7.39-10,6.86a60.53,60.53,0,0,0-21.23,1.86c-4.48,1.18-7.74,3.3-9.6,7.75-9.62,23-19.38,45.89-29.09,68.83-1.36,3.21-2.32,6.67-4.15,9.58-4.68,7.41-1.92,13.75,2.59,19.64,4,5.26,8.58,10.11,13,15.07,1.35,1.52,2,3,1.14,5q-13.79,32-27.58,64.06c-.06.14-.24.22-.55.5-3.76-2.25-5.81-6.11-8.43-9.43a51.76,51.76,0,0,0-10.78-10.27c-3-2.14-4.65-1.41-6,1.8-4.31,10.26-8.78,20.45-13.12,30.7-9.79,23.08-19.49,46.2-29.35,69.26-2.7,6.32-1.64,8.25,5.51,8.5a107.63,107.63,0,0,0,20.37-1c3.83-.6,4.15,1,2.82,4.15Q596,16.75,576.77,61.88q-17.21,40.32-34.3,80.69a39,39,0,0,0-1.5,5.74,200.43,200.43,0,0,1-40.19,10.12c-16.65,2.6-33.37,3-50,0-20.41-3.6-39.27-10.71-55-24.81,7.86-18.89,16-37.68,24-56.52q30.4-71.71,60.94-143.39,36.55-85.93,73.08-171.88,27-63.42,53.81-126.89c.85-2,1.63-4,3.39-5.43Z" transform="translate(578 370.54)"/><path class="cls-4" d="M212-130.59c-21.53,1.1-43,3.85-64.62,3.1-33.06-1.13-65.51-5.64-96.71-17.18a22,22,0,0,1-3-1.64c7.22-15.19,13.36-30.84,20-46.26,2.9-6.73,5.91-13.42,8.52-20.26,2.26-6,7-9.7,11.73-13.28,17.72-13.31,27.71-31.18,31.13-52.81a78.92,78.92,0,0,0,0-22.4c-.73-5.72-.61-11.2,1.79-16.62,7.14-16.14,13.89-32.45,20.75-48.71a11.39,11.39,0,0,1,2.34-3.8H313c1.51,2.23.09,4.18-.7,6.1Q303.64-343.6,294.69-323c-2.31,5.36-2.16,5.8,3,8.44,1,.53,2.07,1.07,3.14,1.54,5,2.27,6.06,2.08,9-2.55,4-6.41,8.61-12.27,15.12-16.35,1.51-.95,3.27-2.57,5-1.29,1.92,1.46.86,3.68.08,5.51-2.36,5.51-4.59,11.08-7.11,16.52-1.72,3.73-1.33,6.75,1.5,10,7.8,9,14.81,18.43,17.21,30.52a19.07,19.07,0,0,1-.8,11.24c-2.91,7.27-6.11,14.41-9.14,21.62-1.88,4.46-4,5.2-8.21,2.83-4.87-2.74-8.51-6.9-11.79-11.33-2.48-3.35-4.66-6.9-7-10.37-.71-1.09-1.2-2.78-2.65-2.73s-1.74,1.82-2.25,3c-4.06,9.31-8.09,18.63-12,28-5.22,12.43-10.58,24.8-15.83,37.22-1.52,3.6-3.85,5-7.66,5-6.5-.07-12.37-2.47-18.32-4.57-6.39-2.27-6.31-2.33-9.1,4.1-7.42,17.1-14.49,34.35-22,51.43C214.15-133.52,213.59-131.75,212-130.59Z" transform="translate(578 370.54)"/><path class="cls-5" d="M702.75,199.64c4.89-5.27,6.31-12.28,9-18.57,10.15-23.26,19.93-46.68,29.86-70q16.05-37.78,32.13-75.56,13.73-32.29,27.42-64.59,13.41-31.6,26.8-63.22,13.74-32.28,27.64-64.49c1.75-4,2.49-8.68,6.26-11.66V302.43c-24.33,9.9-48,7.86-71.15-3.91-18-9.18-32.78-22.43-46.21-37.26-16-17.71-29.29-37.4-40.64-58.4A21.6,21.6,0,0,1,702.75,199.64Z" transform="translate(578 370.54)"/><path class="cls-6" d="M610.94-370.45c-5.07,14.24-11.59,27.88-17.42,41.81-8.8,21-17.73,41.9-26.61,62.84q-14.7,34.62-29.41,69.22Q521.24-158.3,505-120q-13.65,32.08-27.31,64.16Q464.3-24.45,451,7q-14.79,34.85-29.59,69.68-10.71,25.22-21.44,50.43c-1,2.42-1.63,5.12-4.17,6.59-9.13-6.49-16.18-15-22.77-23.9-1.47-2-2.75-4.1-4.05-6.2-10.82-17.33-10.85-18.47-5.69-41.07,3.17-13.87,4.68-28,5.94-42.17,1.05-11.7-.24-23.24-.15-34.84,20.8-48.14,41-96.52,61.6-144.76C455-216.4,479.19-273.6,503.57-330.71,508.74-342.8,514-354.87,519-367a9.56,9.56,0,0,1,2-3.41Z" transform="translate(578 370.54)"/><path class="cls-7" d="M144-370.45c-1.7,8-5.92,15.09-8.91,22.62q-6.42,16.2-13.6,32.09c-1.92,4.24-1.89,8.53-1.31,12.7q5.79,41.88-23.91,71.75a39.83,39.83,0,0,1-6.47,5.42C82.41-221,78-214.22,74.75-206.12c-7.42,18.48-15.3,36.77-23.06,55.12-.81,1.89-1.25,4.3-3.95,4.69-12.68-4.06-24.28-10.39-35.38-17.54C-36-195-63-240.57-76-295.49c-5.85-24.65-8.17-49.67-8-75Z" transform="translate(578 370.54)"/><path class="cls-8" d="M212-130.59c4.6-13.54,11.14-26.27,16.33-39.56,2.6-6.65,5.73-13.09,8.29-19.75,1.53-4,3.53-4.83,7.5-3.09,6.68,2.93,13.49,5.63,21,5.55,2.62,0,4-.71,5.17-3.42,9.48-22.67,19.18-45.25,28.85-67.84.56-1.32.85-3.16,2.61-3.35,1.95-.21,2.11,1.81,2.89,3,4.64,7.08,8.76,14.55,15.35,20.13a44,44,0,0,0,4,3c3.23,2.15,5.13,1.73,6.55-2.38a127.86,127.86,0,0,1,7.93-18.8c4.17-7.73,1.86-14.83-.9-22-3.15-8.19-8.51-15.11-14.43-21.34-3.63-3.83-3.41-7.08-1.58-11.17,2.51-5.6,5-11.25,7.42-16.87.59-1.35,1.5-2.65.35-4.39-8.86,4-14.62,11.24-19.18,19.37-2.18,3.89-4.48,4.13-8.07,2.65-11.38-4.7-11.59-4.73-7.12-15.84,4.95-12.32,10.33-24.47,15.47-36.72,1-2.28,1.69-4.66,2.52-7H449c1.6,2,.43,3.79-.35,5.59-5.8,13.44-11.3,27-17.23,40.41a18.9,18.9,0,0,0-1.1,14c4,12.89,5.36,26,2.67,39.4a69.71,69.71,0,0,1-25.39,41.75c-5.32,4.29-10.83,8.32-17.14,11.1a14.55,14.55,0,0,0-7.62,8.16q-23.62,55.59-47.3,111.17c-.9,2.09-.93,5.19-4.36,5.32-17.86-15.26-38.55-24.76-61.24-30.32-17.4-4.26-35.09-5.86-52.91-6.5C215.34-130.44,213.69-130.52,212-130.59Z" transform="translate(578 370.54)"/><path class="cls-9" d="M331.15-93.56c4.48-6.63,6.66-14.32,9.8-21.56,10-23.14,19.77-46.4,29.66-69.59,3.31-7.79,7.15-15.39,9.94-23.35,2.16-6.16,6-9.73,11.65-12.66,18.25-9.47,31.65-23.55,37.77-43.54,4-13.24,4.83-26.94.32-40.1-3.51-10.21-1.41-18.84,3-28,5.58-11.66,10.32-23.73,15.38-35.64a9.29,9.29,0,0,0,.32-2.45h72c-1.21,7.68-5.31,14.27-8.22,21.28-9.79,23.61-19.88,47.1-29.89,70.62Q468-243.72,453.17-208.91,437.09-171.09,421-133.28,407.31-101,393.56-68.66,383.26-44.37,373-20c-.92,2.2-1.74,4.33-4,5.52-2-7.6-2.65-15.44-4.66-23A117.07,117.07,0,0,0,331.15-93.56Z" transform="translate(578 370.54)"/></svg>